<svg width="489" height="355" viewBox="0 0 489 355" fill="none" xmlns="http://www.w3.org/2000/svg">
<path d="M489 260.06V285.372C489 285.372 480.928 299.595 475.593 301.813H378.829L371.721 299.595L368.602 306.707H127.119L126.477 306.478L115.578 302.7L33.4576 313.36C33.4576 313.36 30.8589 313.238 27.129 312.749C16.6729 311.387 -2.63416 307.151 1.93655 294.701C1.93655 294.701 -2.42014 271.102 1.93655 257.399C1.93655 257.399 3.26649 238.296 19.6844 231.628C36.1175 224.975 84.4998 212.082 111.129 208.105C111.129 208.105 134.655 200.993 144.867 191.664C144.867 191.664 167.904 174.442 196.352 161.962C211.685 155.248 228.087 151.287 244.75 149.727C276.989 146.699 347.063 142.034 391.67 153.015C429.565 162.36 454.681 183.772 467.904 198.087C475.165 205.949 479.125 216.211 479.125 226.917V236.522L482.228 247.626C482.243 247.626 489 252.504 489 260.06Z" fill="#E0CFFF"/>
<path d="M126.676 301.966C126.676 303.48 126.615 304.995 126.477 306.478L115.578 302.7L33.4577 313.36C33.4577 313.36 30.859 313.238 27.1291 312.749C26.3647 309.277 25.9673 305.667 25.9673 301.966C25.9673 274.146 48.5151 251.587 76.3215 251.587C104.128 251.587 126.676 274.146 126.676 301.966Z" fill="#2E3235"/>
<path d="M76.3214 343.138C99.0488 343.138 117.473 324.705 117.473 301.966C117.473 279.227 99.0488 260.794 76.3214 260.794C53.5939 260.794 35.1697 279.227 35.1697 301.966C35.1697 324.705 53.5939 343.138 76.3214 343.138Z" fill="#3E4347"/>
<path d="M370.757 301.783L371.72 299.58L378.829 301.798H471.45C471.359 274.054 448.857 251.587 421.112 251.587C393.351 251.587 370.849 274.054 370.757 301.783Z" fill="#2E3235"/>
<path d="M421.097 343.138C443.824 343.138 462.248 324.705 462.248 301.966C462.248 279.227 443.824 260.794 421.097 260.794C398.369 260.794 379.945 279.227 379.945 301.966C379.945 324.705 398.369 343.138 421.097 343.138Z" fill="#3E4347"/>
<path d="M274.681 159.301C266.136 159.592 260.724 159.882 260.617 159.898L260.312 159.913H260.006C259.15 159.882 258.294 159.882 257.438 159.882C220.123 159.882 182.946 182.059 164.097 195.273C155.583 201.238 148.887 209.635 145.004 219.117L263.919 209.619L274.681 159.301Z" fill="#3E4347"/>
<path d="M385.769 166.75C373.953 161.58 345.81 158.735 306.401 158.735C301.785 158.735 297.306 158.781 293.086 158.842L288.806 207.616L406.651 198.21C407.033 196.007 407.354 193.912 407.583 192L407.599 191.847L407.629 191.694C408.867 184.476 395.446 172.653 385.769 166.75Z" fill="#3E4347"/>
<path d="M10.528 249.935C10.528 249.935 26.9 230.863 45.2439 232.301C49.7076 232.653 63.0529 238.633 42.1866 249.935C35.6592 253.468 22.8184 255.548 13.0503 255.701C5.13176 255.808 10.528 249.935 10.528 249.935Z" fill="#FFD83B"/>
<path d="M479.14 236.522V226.917C479.14 222.773 478.376 218.75 477.23 214.85C470.626 214.024 462.356 213.611 459.665 216.303C456.088 219.882 456.088 232.974 459.665 236.553C462.662 239.55 472.659 238.709 479.461 237.715L479.14 236.522Z" fill="#FFD83B"/>
<path d="M76.3214 329.45C91.4928 329.45 103.792 317.145 103.792 301.966C103.792 286.787 91.4928 274.482 76.3214 274.482C61.1501 274.482 48.8513 286.787 48.8513 301.966C48.8513 317.145 61.1501 329.45 76.3214 329.45Z" fill="#CBD6E0"/>
<path d="M76.3214 324.388C88.6982 324.388 98.7316 314.349 98.7316 301.966C98.7316 289.583 88.6982 279.545 76.3214 279.545C63.9445 279.545 53.9111 289.583 53.9111 301.966C53.9111 314.349 63.9445 324.388 76.3214 324.388Z" fill="#939799"/>
<path d="M76.3213 318.102C85.2282 318.102 92.4487 310.878 92.4487 301.967C92.4487 293.055 85.2282 285.831 76.3213 285.831C67.4143 285.831 60.1938 293.055 60.1938 301.967C60.1938 310.878 67.4143 318.102 76.3213 318.102Z" fill="#CBD6E0"/>
<path d="M421.096 329.45C436.268 329.45 448.566 317.145 448.566 301.966C448.566 286.787 436.268 274.482 421.096 274.482C405.925 274.482 393.626 286.787 393.626 301.966C393.626 317.145 405.925 329.45 421.096 329.45Z" fill="#CBD6E0"/>
<path d="M421.097 324.388C433.473 324.388 443.507 314.349 443.507 301.966C443.507 289.583 433.473 279.545 421.097 279.545C408.72 279.545 398.686 289.583 398.686 301.966C398.686 314.349 408.72 324.388 421.097 324.388Z" fill="#939799"/>
<path d="M421.097 318.101C430.004 318.101 437.224 310.877 437.224 301.966C437.224 293.055 430.004 285.831 421.097 285.831C412.19 285.831 404.969 293.055 404.969 301.966C404.969 310.877 412.19 318.101 421.097 318.101Z" fill="#CBD6E0"/>
<path d="M172.811 216.884L197.835 214.881L229.31 163.675C218.365 166.489 207.985 170.634 198.431 175.207L172.811 216.884Z" fill="#5A5F63"/>
<path d="M206.656 214.177L219.71 213.137L252.225 160.234C247.746 160.479 243.298 160.968 238.88 161.749L206.656 214.177Z" fill="#5A5F63"/>
<path d="M295.608 207.081L320.633 205.077L348.256 160.127C341.285 159.607 333.55 159.225 325.142 159.011L295.608 207.081Z" fill="#5A5F63"/>
<path d="M329.438 204.374L342.493 203.334L367.731 162.269C364.215 161.718 360.439 161.213 356.22 160.8L329.438 204.374Z" fill="#5A5F63"/>
</svg>
