<svg width="32" height="32" viewBox="0 0 32 32" fill="none" xmlns="http://www.w3.org/2000/svg">
<path fill-rule="evenodd" clip-rule="evenodd" d="M1.33398 16C1.33398 7.89983 7.90047 1.33334 16.0007 1.33334C24.1008 1.33334 30.6673 7.89983 30.6673 16C30.6673 24.1002 24.1008 30.6667 16.0007 30.6667C7.90047 30.6667 1.33398 24.1002 1.33398 16Z" fill="#884DF0"/>
<path fill-rule="evenodd" clip-rule="evenodd" d="M23.0816 10.7239C23.6023 11.2446 23.6023 12.0888 23.0816 12.6095L14.8054 21.2762C14.2847 21.7969 13.4405 21.7969 12.9198 21.2762L8.91982 17.2762C8.39912 16.7555 8.39912 15.9113 8.91982 15.3906C9.44052 14.8699 10.2847 14.8699 10.8054 15.3906L13.8626 18.4478L21.196 10.7239C21.7167 10.2032 22.5609 10.2032 23.0816 10.7239Z" fill="white"/>
</svg>
