<svg width="32" height="32" viewBox="0 0 32 32" fill="none" xmlns="http://www.w3.org/2000/svg">
<path fill-rule="evenodd" clip-rule="evenodd" d="M1.33301 16C1.33301 7.89983 7.8995 1.33334 15.9997 1.33334C24.0999 1.33334 30.6663 7.89983 30.6663 16C30.6663 24.1002 24.0999 30.6667 15.9997 30.6667C7.8995 30.6667 1.33301 24.1002 1.33301 16Z" fill="#884DF0"/>
<path fill-rule="evenodd" clip-rule="evenodd" d="M23.0806 10.7239C23.6013 11.2446 23.6013 12.0888 23.0806 12.6095L14.8045 21.2762C14.2838 21.7969 13.4395 21.7969 12.9188 21.2762L8.91884 17.2762C8.39815 16.7555 8.39815 15.9113 8.91884 15.3906C9.43954 14.8699 10.2838 14.8699 10.8045 15.3906L13.8617 18.4478L21.195 10.7239C21.7157 10.2032 22.5599 10.2032 23.0806 10.7239Z" fill="white"/>
</svg>
