<svg width="16" height="16" viewBox="0 0 16 16" fill="none" xmlns="http://www.w3.org/2000/svg">
<path fill-rule="evenodd" clip-rule="evenodd" d="M0.667969 8C0.667969 3.94992 3.95121 0.666672 8.0013 0.666672C12.0514 0.666672 15.3346 3.94992 15.3346 8C15.3346 12.0501 12.0514 15.3333 8.0013 15.3333C3.95121 15.3333 0.667969 12.0501 0.667969 8Z" fill="#E0CFFF"/>
<path fill-rule="evenodd" clip-rule="evenodd" d="M11.5418 5.36195C11.8021 5.6223 11.8021 6.04441 11.5418 6.30476L7.4037 10.6381C7.14335 10.8984 6.72124 10.8984 6.46089 10.6381L4.46089 8.6381C4.20054 8.37775 4.20054 7.95564 4.46089 7.69529C4.72124 7.43494 5.14335 7.43494 5.4037 7.69529L6.93229 9.22388L10.599 5.36195C10.8593 5.1016 11.2814 5.1016 11.5418 5.36195Z" fill="white"/>
</svg>
