<svg width="32" height="32" viewBox="0 0 32 32" fill="none" xmlns="http://www.w3.org/2000/svg">
<path fill-rule="evenodd" clip-rule="evenodd" d="M1.3335 16C1.3335 7.89983 7.89999 1.33334 16.0002 1.33334C24.1003 1.33334 30.6668 7.89983 30.6668 16C30.6668 24.1002 24.1003 30.6667 16.0002 30.6667C7.89999 30.6667 1.3335 24.1002 1.3335 16Z" fill="#884DF0"/>
<path fill-rule="evenodd" clip-rule="evenodd" d="M23.0811 10.7239C23.6018 11.2446 23.6018 12.0888 23.0811 12.6095L14.805 21.2762C14.2843 21.7969 13.44 21.7969 12.9193 21.2762L8.91933 17.2762C8.39863 16.7555 8.39863 15.9113 8.91933 15.3906C9.44003 14.8699 10.2843 14.8699 10.805 15.3906L13.8621 18.4478L21.1955 10.7239C21.7162 10.2032 22.5604 10.2032 23.0811 10.7239Z" fill="white"/>
</svg>
