<svg width="320" height="267" viewBox="0 0 320 267" fill="none" xmlns="http://www.w3.org/2000/svg">
<path d="M84.7136 122.332C84.7136 122.332 79.8048 75.6123 113.219 69.3211C146.634 63.0299 152.845 68.3067 176.118 52.3323C199.392 36.3579 272.925 83.5099 258.038 149.833C256.283 157.699 254.054 165.452 251.366 173.049" stroke="#EFE5FF" stroke-miterlimit="10"/>
<path d="M228.823 91.4043H216.669V250.121H228.823V91.4043Z" stroke="#EFE5FF" stroke-miterlimit="10"/>
<path d="M120.09 213.558V91.4043H216.669V250.124H200.397V201.379C200.393 199.424 199.613 197.552 198.23 196.172C196.846 194.792 194.972 194.018 193.018 194.019H144.442C142.488 194.019 140.614 194.793 139.231 196.173C137.848 197.553 137.068 199.425 137.063 201.379V250.124H121.226L120.09 213.558ZM131.677 174.025C131.575 174.024 131.474 174.004 131.38 173.965C131.286 173.925 131.201 173.867 131.129 173.795C131.058 173.722 131.001 173.636 130.963 173.542C130.924 173.447 130.905 173.346 130.906 173.244V166.998C130.906 166.793 130.987 166.597 131.132 166.453C131.276 166.308 131.473 166.227 131.677 166.227H144.272C144.374 166.226 144.475 166.245 144.57 166.283C144.664 166.322 144.75 166.378 144.823 166.45C144.896 166.522 144.953 166.607 144.993 166.701C145.032 166.795 145.053 166.896 145.053 166.998V173.244C145.054 173.347 145.034 173.448 144.994 173.543C144.955 173.639 144.898 173.725 144.826 173.797C144.753 173.87 144.666 173.927 144.572 173.967C144.477 174.006 144.375 174.025 144.272 174.025H131.677ZM153.818 184.163C153.816 184.368 153.733 184.566 153.587 184.711C153.441 184.855 153.243 184.937 153.037 184.937H140.442C140.236 184.937 140.038 184.855 139.892 184.711C139.746 184.566 139.663 184.368 139.661 184.163V177.91C139.664 177.704 139.747 177.508 139.893 177.364C140.039 177.22 140.236 177.139 140.442 177.139H153.037C153.242 177.139 153.44 177.22 153.586 177.364C153.732 177.508 153.815 177.704 153.818 177.91V184.163ZM147.52 173.244V166.998C147.521 166.896 147.541 166.795 147.581 166.701C147.62 166.607 147.678 166.522 147.751 166.45C147.823 166.378 147.909 166.322 148.003 166.283C148.098 166.245 148.199 166.226 148.301 166.227H160.896C161.102 166.227 161.299 166.308 161.445 166.452C161.591 166.596 161.674 166.792 161.677 166.998V173.244C161.676 173.451 161.594 173.649 161.448 173.795C161.301 173.942 161.103 174.024 160.896 174.025H148.298C148.195 174.025 148.094 174.005 148 173.966C147.905 173.926 147.819 173.869 147.747 173.796C147.675 173.724 147.618 173.638 147.578 173.543C147.54 173.448 147.52 173.347 147.52 173.244ZM170.375 184.163C170.375 184.264 170.355 184.365 170.317 184.459C170.278 184.553 170.222 184.638 170.15 184.71C170.078 184.782 169.993 184.839 169.899 184.878C169.806 184.917 169.705 184.937 169.603 184.937H156.995C156.894 184.937 156.794 184.917 156.7 184.878C156.606 184.839 156.521 184.782 156.449 184.71C156.378 184.638 156.321 184.553 156.282 184.459C156.243 184.365 156.224 184.264 156.224 184.163V177.91C156.224 177.705 156.306 177.509 156.45 177.365C156.595 177.22 156.791 177.139 156.995 177.139H169.6C169.805 177.139 170.001 177.22 170.146 177.365C170.29 177.509 170.371 177.705 170.371 177.91L170.375 184.163ZM178.285 173.244C178.286 173.347 178.266 173.448 178.226 173.543C178.187 173.639 178.13 173.725 178.058 173.797C177.985 173.87 177.898 173.927 177.804 173.967C177.709 174.006 177.607 174.025 177.504 174.025H164.909C164.807 174.024 164.706 174.004 164.612 173.965C164.518 173.925 164.432 173.867 164.36 173.795C164.288 173.722 164.231 173.637 164.193 173.542C164.154 173.447 164.134 173.346 164.135 173.244V166.998C164.135 166.896 164.155 166.796 164.194 166.702C164.233 166.608 164.29 166.523 164.362 166.451C164.434 166.38 164.519 166.323 164.613 166.284C164.707 166.246 164.808 166.226 164.909 166.227H177.501C177.603 166.226 177.704 166.245 177.799 166.283C177.893 166.322 177.979 166.378 178.052 166.45C178.124 166.522 178.182 166.607 178.221 166.701C178.261 166.795 178.282 166.896 178.282 166.998L178.285 173.244ZM194.896 173.244C194.897 173.346 194.878 173.447 194.84 173.542C194.801 173.636 194.745 173.722 194.673 173.795C194.601 173.867 194.516 173.925 194.422 173.965C194.328 174.004 194.227 174.024 194.125 174.025H181.527C181.424 174.025 181.322 174.006 181.227 173.967C181.132 173.927 181.046 173.87 180.974 173.797C180.901 173.725 180.843 173.639 180.804 173.543C180.765 173.448 180.746 173.347 180.746 173.244V166.998C180.746 166.896 180.767 166.795 180.806 166.701C180.846 166.607 180.904 166.522 180.976 166.45C181.049 166.378 181.135 166.322 181.229 166.283C181.324 166.245 181.425 166.226 181.527 166.227H194.122C194.326 166.227 194.522 166.308 194.667 166.453C194.812 166.597 194.893 166.793 194.893 166.998L194.896 173.244ZM206.557 149.791C206.56 150.759 206.371 151.719 206.002 152.614C205.634 153.509 205.092 154.323 204.408 155.008C203.724 155.694 202.912 156.238 202.018 156.608C201.124 156.98 200.165 157.171 199.197 157.171H137.706C135.749 157.17 133.873 156.392 132.489 155.008C131.105 153.625 130.328 151.748 130.327 149.791V123.772C130.327 121.815 131.104 119.938 132.488 118.554C133.872 117.17 135.749 116.393 137.706 116.393H199.184C200.153 116.393 201.111 116.584 202.005 116.955C202.899 117.326 203.712 117.87 204.395 118.555C205.079 119.241 205.621 120.055 205.99 120.95C206.358 121.845 206.547 122.804 206.544 123.772L206.557 149.791ZM205.479 107.775C205.14 108.119 204.736 108.391 204.291 108.576C203.846 108.761 203.369 108.855 202.887 108.854H134.576C133.603 108.853 132.67 108.466 131.982 107.778C131.294 107.09 130.907 106.157 130.906 105.183C130.909 104.211 131.297 103.279 131.985 102.592C132.672 101.904 133.604 101.516 134.576 101.513H202.88C203.362 101.512 203.84 101.607 204.285 101.791C204.731 101.976 205.136 102.246 205.477 102.587C205.818 102.928 206.088 103.333 206.272 103.778C206.457 104.224 206.551 104.701 206.551 105.183C206.553 105.665 206.459 106.143 206.274 106.588C206.09 107.033 205.818 107.437 205.475 107.775H205.479ZM120.09 231.75V223.478V231.75Z" stroke="#EFE5FF" stroke-miterlimit="10"/>
<path d="M144.271 174.025H131.676C131.574 174.025 131.473 174.004 131.379 173.965C131.285 173.925 131.2 173.867 131.128 173.795C131.056 173.722 131 173.636 130.962 173.542C130.923 173.447 130.904 173.346 130.905 173.244V166.998C130.905 166.793 130.986 166.597 131.131 166.453C131.275 166.308 131.472 166.227 131.676 166.227H144.271C144.373 166.226 144.474 166.245 144.569 166.284C144.663 166.322 144.749 166.378 144.822 166.45C144.895 166.522 144.952 166.607 144.992 166.701C145.031 166.795 145.052 166.896 145.052 166.998V173.244C145.053 173.347 145.032 173.449 144.993 173.543C144.954 173.638 144.897 173.725 144.824 173.797C144.752 173.87 144.665 173.927 144.571 173.966C144.476 174.006 144.374 174.025 144.271 174.025Z" stroke="#EFE5FF" stroke-miterlimit="10"/>
<path d="M140.442 177.139H153.037C153.243 177.139 153.44 177.22 153.586 177.364C153.732 177.508 153.816 177.704 153.818 177.91V184.163C153.816 184.368 153.733 184.566 153.587 184.711C153.441 184.855 153.243 184.937 153.037 184.937H140.442C140.236 184.937 140.038 184.855 139.892 184.711C139.746 184.566 139.663 184.368 139.661 184.163V177.91C139.664 177.704 139.747 177.508 139.893 177.364C140.039 177.22 140.236 177.139 140.442 177.139Z" stroke="#EFE5FF" stroke-miterlimit="10"/>
<path d="M161.673 166.998V173.244C161.672 173.451 161.59 173.649 161.443 173.795C161.297 173.942 161.099 174.024 160.892 174.025H148.297C148.195 174.025 148.093 174.006 147.998 173.966C147.903 173.927 147.817 173.87 147.744 173.797C147.671 173.725 147.614 173.638 147.575 173.543C147.536 173.449 147.516 173.347 147.516 173.244V166.998C147.517 166.896 147.537 166.795 147.577 166.701C147.616 166.607 147.674 166.522 147.747 166.45C147.819 166.378 147.905 166.322 147.999 166.284C148.094 166.245 148.195 166.226 148.297 166.227H160.892C161.098 166.227 161.295 166.308 161.441 166.452C161.587 166.596 161.67 166.792 161.673 166.998Z" stroke="#EFE5FF" stroke-miterlimit="10"/>
<path d="M169.6 177.139H156.995C156.569 177.139 156.224 177.484 156.224 177.91V184.166C156.224 184.592 156.569 184.937 156.995 184.937H169.6C170.026 184.937 170.371 184.592 170.371 184.166V177.91C170.371 177.484 170.026 177.139 169.6 177.139Z" stroke="#EFE5FF" stroke-miterlimit="10"/>
<path d="M164.91 174.025C164.808 174.025 164.706 174.004 164.612 173.965C164.518 173.925 164.433 173.868 164.361 173.795C164.289 173.723 164.232 173.637 164.193 173.542C164.154 173.447 164.135 173.346 164.135 173.244V166.998C164.135 166.896 164.155 166.796 164.194 166.702C164.233 166.608 164.29 166.523 164.362 166.451C164.434 166.38 164.52 166.323 164.614 166.285C164.707 166.246 164.808 166.226 164.91 166.227H177.502C177.604 166.226 177.705 166.245 177.799 166.284C177.894 166.322 177.98 166.378 178.052 166.45C178.125 166.522 178.182 166.607 178.222 166.701C178.261 166.795 178.282 166.896 178.282 166.998V173.244C178.283 173.347 178.263 173.449 178.224 173.543C178.185 173.638 178.127 173.725 178.055 173.797C177.982 173.87 177.896 173.927 177.801 173.966C177.706 174.006 177.604 174.025 177.502 174.025H164.91Z" stroke="#EFE5FF" stroke-miterlimit="10"/>
<path d="M181.525 174.025C181.423 174.025 181.321 174.006 181.226 173.966C181.131 173.927 181.045 173.87 180.972 173.797C180.9 173.725 180.842 173.638 180.803 173.543C180.764 173.449 180.744 173.347 180.745 173.244V166.998C180.745 166.896 180.766 166.795 180.805 166.701C180.845 166.607 180.902 166.522 180.975 166.45C181.047 166.378 181.133 166.322 181.228 166.284C181.322 166.245 181.424 166.226 181.525 166.227H194.121C194.325 166.227 194.521 166.308 194.666 166.453C194.811 166.597 194.892 166.793 194.892 166.998V173.244C194.893 173.346 194.873 173.447 194.835 173.542C194.797 173.636 194.74 173.722 194.669 173.795C194.597 173.867 194.512 173.925 194.418 173.965C194.324 174.004 194.223 174.025 194.121 174.025H181.525Z" stroke="#EFE5FF" stroke-miterlimit="10"/>
<path d="M200.397 201.379V250.124H137.062V201.379C137.068 199.425 137.847 197.553 139.231 196.173C140.614 194.793 142.488 194.019 144.442 194.019H193.018C194.972 194.018 196.846 194.792 198.23 196.172C199.613 197.552 200.393 199.424 200.397 201.379Z" stroke="#EFE5FF" stroke-miterlimit="10"/>
<path d="M130.905 105.183C130.908 104.211 131.296 103.279 131.984 102.592C132.671 101.904 133.603 101.516 134.575 101.513H202.879C203.361 101.512 203.839 101.607 204.284 101.791C204.73 101.976 205.135 102.246 205.476 102.587C205.816 102.928 206.087 103.333 206.271 103.778C206.455 104.224 206.55 104.701 206.55 105.183C206.546 106.156 206.159 107.087 205.471 107.775C204.783 108.463 203.852 108.85 202.879 108.854H134.575C133.602 108.853 132.669 108.466 131.981 107.778C131.293 107.09 130.906 106.157 130.905 105.183Z" stroke="#EFE5FF" stroke-miterlimit="10"/>
<path d="M164.762 127.411V146.185C164.762 146.867 164.629 147.543 164.369 148.174C164.108 148.804 163.726 149.378 163.244 149.861C162.762 150.343 162.19 150.727 161.559 150.988C160.929 151.25 160.254 151.385 159.571 151.385H141.367C139.989 151.383 138.668 150.835 137.695 149.86C136.722 148.885 136.175 147.563 136.176 146.185V127.411C136.176 126.729 136.31 126.053 136.57 125.423C136.831 124.793 137.213 124.22 137.695 123.737C138.177 123.255 138.749 122.872 139.379 122.61C140.009 122.349 140.684 122.214 141.367 122.214H159.571C160.254 122.214 160.929 122.348 161.559 122.61C162.189 122.871 162.762 123.254 163.244 123.736C163.726 124.219 164.108 124.792 164.369 125.423C164.629 126.053 164.762 126.728 164.762 127.411Z" stroke="#EFE5FF" stroke-miterlimit="10"/>
<path d="M200.509 127.388V146.211C200.51 146.893 200.376 147.569 200.116 148.199C199.856 148.83 199.473 149.403 198.992 149.886C198.509 150.369 197.937 150.752 197.307 151.014C196.677 151.275 196.001 151.41 195.319 151.411H177.079C176.396 151.41 175.72 151.275 175.09 151.014C174.46 150.752 173.887 150.369 173.405 149.886C172.923 149.403 172.54 148.83 172.279 148.199C172.019 147.569 171.885 146.893 171.885 146.211V127.388C171.885 126.706 172.019 126.03 172.279 125.399C172.54 124.769 172.923 124.196 173.405 123.713C173.887 123.23 174.46 122.847 175.09 122.585C175.72 122.324 176.396 122.189 177.079 122.188H195.319C196.001 122.189 196.677 122.324 197.307 122.585C197.937 122.847 198.509 123.23 198.992 123.713C199.473 124.196 199.856 124.769 200.116 125.399C200.376 126.03 200.51 126.706 200.509 127.388Z" stroke="#EFE5FF" stroke-miterlimit="10"/>
<path d="M199.184 116.393H137.706C135.749 116.393 133.872 117.17 132.488 118.554C131.104 119.938 130.327 121.815 130.327 123.772V149.791C130.327 151.748 131.105 153.624 132.489 155.008C133.873 156.392 135.749 157.17 137.706 157.171H199.184C200.152 157.171 201.111 156.98 202.005 156.608C202.899 156.237 203.712 155.694 204.395 155.008C205.079 154.323 205.621 153.509 205.989 152.614C206.358 151.719 206.547 150.759 206.544 149.791V123.772C206.547 122.804 206.358 121.845 205.989 120.95C205.621 120.055 205.079 119.241 204.395 118.555C203.712 117.87 202.899 117.326 202.005 116.955C201.111 116.584 200.152 116.393 199.184 116.393ZM164.762 146.185C164.763 146.867 164.629 147.543 164.369 148.174C164.108 148.804 163.726 149.377 163.244 149.86C162.762 150.343 162.189 150.727 161.559 150.988C160.929 151.25 160.254 151.384 159.571 151.385H141.367C139.989 151.383 138.668 150.834 137.695 149.859C136.722 148.884 136.175 147.563 136.176 146.185V127.411C136.176 126.728 136.31 126.053 136.57 125.423C136.831 124.792 137.213 124.22 137.695 123.737C138.177 123.255 138.749 122.872 139.379 122.61C140.009 122.349 140.684 122.214 141.367 122.214H159.571C160.253 122.214 160.929 122.348 161.559 122.609C162.189 122.871 162.762 123.254 163.244 123.736C163.726 124.219 164.108 124.792 164.369 125.422C164.629 126.053 164.763 126.728 164.762 127.411V146.185ZM200.509 146.211C200.51 146.893 200.376 147.569 200.116 148.199C199.855 148.83 199.473 149.403 198.991 149.886C198.509 150.369 197.937 150.752 197.307 151.014C196.676 151.275 196.001 151.41 195.319 151.411H177.079C176.396 151.41 175.72 151.275 175.09 151.014C174.46 150.752 173.887 150.369 173.405 149.886C172.923 149.403 172.54 148.83 172.279 148.199C172.019 147.569 171.884 146.893 171.885 146.211V127.388C171.884 126.706 172.019 126.03 172.279 125.399C172.54 124.768 172.923 124.195 173.405 123.712C173.887 123.23 174.46 122.847 175.09 122.585C175.72 122.323 176.396 122.189 177.079 122.188H195.319C196.001 122.189 196.676 122.323 197.307 122.585C197.937 122.847 198.509 123.23 198.991 123.713C199.473 124.196 199.855 124.769 200.116 125.399C200.376 126.03 200.51 126.706 200.509 127.388V146.211Z" stroke="#EFE5FF" stroke-miterlimit="10"/>
<path d="M164.762 127.411V146.185C164.762 146.867 164.629 147.543 164.369 148.174C164.108 148.804 163.726 149.378 163.244 149.861C162.762 150.343 162.19 150.727 161.559 150.988C160.929 151.25 160.254 151.385 159.571 151.385H141.367C139.989 151.383 138.668 150.835 137.695 149.86C136.722 148.885 136.175 147.563 136.176 146.185V127.411C136.176 126.729 136.31 126.053 136.57 125.423C136.831 124.793 137.213 124.22 137.695 123.737C138.177 123.255 138.749 122.872 139.379 122.61C140.009 122.349 140.684 122.214 141.367 122.214H159.571C160.254 122.214 160.929 122.348 161.559 122.61C162.189 122.871 162.762 123.254 163.244 123.736C163.726 124.219 164.108 124.792 164.369 125.423C164.629 126.053 164.762 126.728 164.762 127.411Z" stroke="#EFE5FF" stroke-miterlimit="10"/>
<path d="M200.509 127.388V146.211C200.51 146.893 200.376 147.569 200.116 148.199C199.856 148.83 199.473 149.403 198.992 149.886C198.509 150.369 197.937 150.752 197.307 151.014C196.677 151.275 196.001 151.41 195.319 151.411H177.079C176.396 151.41 175.72 151.275 175.09 151.014C174.46 150.752 173.887 150.369 173.405 149.886C172.923 149.403 172.54 148.83 172.279 148.199C172.019 147.569 171.885 146.893 171.885 146.211V127.388C171.885 126.706 172.019 126.03 172.279 125.399C172.54 124.769 172.923 124.196 173.405 123.713C173.887 123.23 174.46 122.847 175.09 122.585C175.72 122.324 176.396 122.189 177.079 122.188H195.319C196.001 122.189 196.677 122.324 197.307 122.585C197.937 122.847 198.509 123.23 198.992 123.713C199.473 124.196 199.856 124.769 200.116 125.399C200.376 126.03 200.51 126.706 200.509 127.388Z" stroke="#EFE5FF" stroke-miterlimit="10"/>
<path d="M200.509 127.388V146.211C200.51 146.893 200.376 147.569 200.116 148.199C199.856 148.83 199.473 149.403 198.992 149.886C198.509 150.369 197.937 150.752 197.307 151.014C196.677 151.275 196.001 151.41 195.319 151.411H177.079C176.396 151.41 175.72 151.275 175.09 151.014C174.46 150.752 173.887 150.369 173.405 149.886C172.923 149.403 172.54 148.83 172.279 148.199C172.019 147.569 171.885 146.893 171.885 146.211V127.388C171.885 126.706 172.019 126.03 172.279 125.399C172.54 124.769 172.923 124.196 173.405 123.713C173.887 123.23 174.46 122.847 175.09 122.585C175.72 122.324 176.396 122.189 177.079 122.188H195.319C196.001 122.189 196.677 122.324 197.307 122.585C197.937 122.847 198.509 123.23 198.992 123.713C199.473 124.196 199.856 124.769 200.116 125.399C200.376 126.03 200.51 126.706 200.509 127.388Z" stroke="#EFE5FF" stroke-miterlimit="10"/>
<path d="M164.762 127.411V146.185C164.762 146.867 164.629 147.543 164.369 148.174C164.108 148.804 163.726 149.378 163.244 149.861C162.762 150.343 162.19 150.727 161.559 150.988C160.929 151.25 160.254 151.385 159.571 151.385H141.367C139.989 151.383 138.668 150.835 137.695 149.86C136.722 148.885 136.175 147.563 136.176 146.185V127.411C136.176 126.729 136.31 126.053 136.57 125.423C136.831 124.793 137.213 124.22 137.695 123.737C138.177 123.255 138.749 122.872 139.379 122.61C140.009 122.349 140.684 122.214 141.367 122.214H159.571C160.254 122.214 160.929 122.348 161.559 122.61C162.189 122.871 162.762 123.254 163.244 123.736C163.726 124.219 164.108 124.792 164.369 125.423C164.629 126.053 164.762 126.728 164.762 127.411Z" stroke="#EFE5FF" stroke-miterlimit="10"/>
<path d="M200.397 201.379V250.124H137.062V201.379C137.068 199.425 137.847 197.553 139.231 196.173C140.614 194.793 142.488 194.019 144.442 194.019H193.018C194.972 194.018 196.846 194.792 198.23 196.172C199.613 197.552 200.393 199.424 200.397 201.379Z" stroke="#EFE5FF" stroke-miterlimit="10"/>
<path d="M145.052 166.998V173.244C145.053 173.347 145.032 173.449 144.993 173.543C144.954 173.638 144.897 173.725 144.824 173.797C144.752 173.87 144.665 173.927 144.571 173.966C144.476 174.006 144.374 174.025 144.271 174.025H131.676C131.574 174.025 131.473 174.004 131.379 173.965C131.285 173.925 131.2 173.867 131.128 173.795C131.056 173.722 131 173.636 130.962 173.542C130.923 173.447 130.904 173.346 130.905 173.244V166.998C130.905 166.793 130.986 166.597 131.131 166.453C131.275 166.308 131.472 166.227 131.676 166.227H144.271C144.373 166.226 144.474 166.245 144.569 166.284C144.663 166.322 144.749 166.378 144.822 166.45C144.895 166.522 144.952 166.607 144.992 166.701C145.031 166.795 145.052 166.896 145.052 166.998Z" stroke="#EFE5FF" stroke-miterlimit="10"/>
<path d="M161.673 166.998V173.244C161.672 173.451 161.59 173.649 161.443 173.795C161.297 173.942 161.099 174.024 160.892 174.025H148.297C148.195 174.025 148.093 174.006 147.998 173.966C147.903 173.927 147.817 173.87 147.744 173.797C147.671 173.725 147.614 173.638 147.575 173.543C147.536 173.449 147.516 173.347 147.516 173.244V166.998C147.517 166.896 147.537 166.795 147.577 166.701C147.616 166.607 147.674 166.522 147.747 166.45C147.819 166.378 147.905 166.322 147.999 166.284C148.094 166.245 148.195 166.226 148.297 166.227H160.892C161.098 166.227 161.295 166.308 161.441 166.452C161.587 166.596 161.67 166.792 161.673 166.998Z" stroke="#EFE5FF" stroke-miterlimit="10"/>
<path d="M178.282 166.998V173.244C178.283 173.347 178.263 173.449 178.224 173.543C178.185 173.638 178.127 173.725 178.055 173.797C177.982 173.87 177.896 173.927 177.801 173.966C177.706 174.006 177.604 174.025 177.502 174.025H164.91C164.808 174.025 164.706 174.004 164.612 173.965C164.518 173.925 164.433 173.868 164.361 173.795C164.289 173.723 164.232 173.637 164.193 173.542C164.154 173.447 164.135 173.346 164.135 173.244V166.998C164.135 166.896 164.155 166.796 164.194 166.702C164.233 166.608 164.29 166.523 164.362 166.451C164.434 166.38 164.52 166.323 164.614 166.285C164.707 166.246 164.808 166.226 164.91 166.227H177.502C177.604 166.226 177.705 166.245 177.799 166.284C177.894 166.322 177.98 166.378 178.052 166.45C178.125 166.522 178.182 166.607 178.222 166.701C178.261 166.795 178.282 166.896 178.282 166.998Z" stroke="#EFE5FF" stroke-miterlimit="10"/>
<path d="M194.879 166.998V173.244C194.88 173.346 194.86 173.447 194.822 173.542C194.784 173.636 194.727 173.722 194.656 173.795C194.584 173.867 194.499 173.925 194.405 173.965C194.311 174.004 194.21 174.025 194.108 174.025H181.525C181.423 174.025 181.321 174.006 181.226 173.966C181.131 173.927 181.045 173.87 180.972 173.797C180.9 173.725 180.842 173.638 180.803 173.543C180.764 173.449 180.744 173.347 180.745 173.244V166.998C180.745 166.896 180.766 166.795 180.805 166.701C180.845 166.607 180.902 166.522 180.975 166.45C181.047 166.378 181.133 166.322 181.228 166.284C181.322 166.245 181.424 166.226 181.525 166.227H194.121C194.323 166.23 194.516 166.313 194.658 166.457C194.8 166.601 194.879 166.796 194.879 166.998Z" stroke="#EFE5FF" stroke-miterlimit="10"/>
<path d="M153.818 177.91V184.163C153.816 184.368 153.733 184.566 153.587 184.711C153.441 184.855 153.243 184.937 153.037 184.937H140.442C140.236 184.937 140.038 184.855 139.892 184.711C139.746 184.566 139.663 184.368 139.661 184.163V177.91C139.664 177.704 139.747 177.508 139.893 177.364C140.039 177.22 140.236 177.139 140.442 177.139H153.037C153.243 177.139 153.44 177.22 153.586 177.364C153.732 177.508 153.816 177.704 153.818 177.91Z" stroke="#EFE5FF" stroke-miterlimit="10"/>
<path d="M169.6 177.139H156.995C156.569 177.139 156.224 177.484 156.224 177.91V184.166C156.224 184.592 156.569 184.937 156.995 184.937H169.6C170.026 184.937 170.371 184.592 170.371 184.166V177.91C170.371 177.484 170.026 177.139 169.6 177.139Z" stroke="#EFE5FF" stroke-miterlimit="10"/>
<path d="M206.553 105.183C206.55 106.156 206.161 107.088 205.473 107.776C204.785 108.464 203.852 108.851 202.879 108.854H134.575C133.602 108.853 132.669 108.466 131.981 107.778C131.293 107.09 130.906 106.157 130.905 105.183C130.908 104.211 131.296 103.279 131.984 102.592C132.671 101.904 133.603 101.516 134.575 101.513H202.879C203.362 101.512 203.839 101.607 204.285 101.791C204.731 101.975 205.136 102.245 205.478 102.586C205.819 102.927 206.089 103.332 206.274 103.777C206.458 104.223 206.553 104.701 206.553 105.183Z" stroke="#EFE5FF" stroke-miterlimit="10"/>
<path d="M192.82 199.657H144.452C143.305 199.657 142.375 200.587 142.375 201.734V201.814C142.375 202.961 143.305 203.891 144.452 203.891H192.82C193.967 203.891 194.897 202.961 194.897 201.814V201.734C194.897 200.587 193.967 199.657 192.82 199.657Z" stroke="#EFE5FF" stroke-miterlimit="10"/>
<path d="M192.82 208.393H144.452C143.305 208.393 142.375 209.323 142.375 210.47V210.55C142.375 211.697 143.305 212.627 144.452 212.627H192.82C193.967 212.627 194.897 211.697 194.897 210.55V210.47C194.897 209.323 193.967 208.393 192.82 208.393Z" stroke="#EFE5FF" stroke-miterlimit="10"/>
<path d="M192.82 217.129H144.452C143.305 217.129 142.375 218.059 142.375 219.206V219.286C142.375 220.433 143.305 221.363 144.452 221.363H192.82C193.967 221.363 194.897 220.433 194.897 219.286V219.206C194.897 218.059 193.967 217.129 192.82 217.129Z" stroke="#EFE5FF" stroke-miterlimit="10"/>
<path d="M192.82 225.868H144.452C143.305 225.868 142.375 226.798 142.375 227.945V228.025C142.375 229.172 143.305 230.102 144.452 230.102H192.82C193.967 230.102 194.897 229.172 194.897 228.025V227.945C194.897 226.798 193.967 225.868 192.82 225.868Z" stroke="#EFE5FF" stroke-miterlimit="10"/>
<path d="M192.82 234.604H144.452C143.305 234.604 142.375 235.534 142.375 236.681V236.761C142.375 237.908 143.305 238.838 144.452 238.838H192.82C193.967 238.838 194.897 237.908 194.897 236.761V236.681C194.897 235.534 193.967 234.604 192.82 234.604Z" stroke="#EFE5FF" stroke-miterlimit="10"/>
<path d="M111.159 76.9467H234.704C236.641 76.9467 238.498 77.7159 239.868 79.0855C241.238 80.4548 242.007 82.3124 242.007 84.2491V91.2891H103.856V84.2491C103.856 82.3124 104.626 80.4548 105.995 79.0855C107.365 77.7159 109.222 76.9467 111.159 76.9467Z" stroke="#EFE5FF" stroke-miterlimit="10"/>
<path d="M228.819 190.966H242.102V203.052H254.707V216.934H266.982V227.804H279.062V237.369H304V250.118H228.819V190.966Z" stroke="#EFE5FF" stroke-miterlimit="10"/>
<path d="M231.325 164.204H242.189H242.519L254.727 176.415L267.034 188.719L279.066 200.751L284.756 206.441" stroke="#EFE5FF" stroke-miterlimit="10"/>
<path d="M242.189 203.052V164.204" stroke="#EFE5FF" stroke-miterlimit="10"/>
<path d="M279.065 227.807V200.751" stroke="#EFE5FF" stroke-miterlimit="10"/>
<path d="M254.727 208.492V176.412" stroke="#EFE5FF" stroke-miterlimit="10"/>
<path d="M266.982 188.719V217.996" stroke="#EFE5FF" stroke-miterlimit="10"/>
<path d="M120.042 223.548V231.75" stroke="#EFE5FF" stroke-miterlimit="10"/>
<path d="M107.887 231.75V226.707C108.402 228.185 109.788 229.475 111.574 230.111C110.994 225.887 109.862 219.231 107.887 213.276" stroke="#EFE5FF" stroke-miterlimit="10"/>
<path d="M120.041 207.123V136.787H107.887V203.961" stroke="#EFE5FF" stroke-miterlimit="10"/>
<path d="M107.887 226.713V231.75" stroke="#EFE5FF" stroke-miterlimit="10"/>
<path d="M107.888 203.961V136.787H32.2339V250.124H106.906H107.888" stroke="#EFE5FF" stroke-miterlimit="10"/>
<path d="M55.2451 153.385V197.67C55.2451 201.666 58.4842 204.905 62.4803 204.905H79.4403C83.4362 204.905 86.6755 201.666 86.6755 197.67V153.385C86.6755 149.389 83.4362 146.15 79.4403 146.15H62.4803C58.4842 146.15 55.2451 149.389 55.2451 153.385Z" stroke="#EFE5FF" stroke-miterlimit="10"/>
<path d="M59.7148 155.907V167.785C59.7148 170.6 61.9971 172.883 64.8124 172.883H77.1388C79.9542 172.883 82.2364 170.6 82.2364 167.785V155.907C82.2364 153.091 79.9542 150.809 77.1388 150.809H64.8124C61.9971 150.809 59.7148 153.091 59.7148 155.907Z" stroke="#EFE5FF" stroke-miterlimit="10"/>
<path d="M59.7349 183.455V195.299C59.7349 198.114 62.0171 200.396 64.8325 200.396H77.1205C79.9358 200.396 82.2181 198.114 82.2181 195.299V183.455C82.2181 180.64 79.9358 178.358 77.1205 178.358H64.8325C62.0171 178.358 59.7349 180.64 59.7349 183.455Z" stroke="#EFE5FF" stroke-miterlimit="10"/>
<path d="M56.432 211.609H43.8112C43.3888 211.609 43.0464 211.951 43.0464 212.374V218.646C43.0464 219.068 43.3888 219.411 43.8112 219.411H56.432C56.8541 219.411 57.1968 219.068 57.1968 218.646V212.374C57.1968 211.951 56.8541 211.609 56.432 211.609Z" stroke="#EFE5FF" stroke-miterlimit="10"/>
<path d="M73.0467 211.609H60.4259C60.0035 211.609 59.6611 211.951 59.6611 212.374V218.646C59.6611 219.068 60.0035 219.411 60.4259 219.411H73.0467C73.4691 219.411 73.8115 219.068 73.8115 218.646V212.374C73.8115 211.951 73.4691 211.609 73.0467 211.609Z" stroke="#EFE5FF" stroke-miterlimit="10"/>
<path d="M89.6605 211.609H77.0397C76.6173 211.609 76.2749 211.951 76.2749 212.374V218.646C76.2749 219.068 76.6173 219.411 77.0397 219.411H89.6605C90.0829 219.411 90.4253 219.068 90.4253 218.646V212.374C90.4253 211.951 90.0829 211.609 89.6605 211.609Z" stroke="#EFE5FF" stroke-miterlimit="10"/>
<path d="M65.1927 222.524H52.5719C52.1495 222.524 51.8071 222.867 51.8071 223.289V229.561C51.8071 229.983 52.1495 230.326 52.5719 230.326H65.1927C65.6151 230.326 65.9575 229.983 65.9575 229.561V223.289C65.9575 222.867 65.6151 222.524 65.1927 222.524Z" stroke="#EFE5FF" stroke-miterlimit="10"/>
<path d="M81.7508 222.524H69.13C68.7076 222.524 68.3652 222.867 68.3652 223.289V229.561C68.3652 229.983 68.7076 230.326 69.13 230.326H81.7508C82.1732 230.326 82.5156 229.983 82.5156 229.561V223.289C82.5156 222.867 82.1732 222.524 81.7508 222.524Z" stroke="#EFE5FF" stroke-miterlimit="10"/>
<path d="M23.4432 122.332H120.083V136.665H16V129.779C16.0008 127.805 16.7852 125.911 18.1808 124.515C19.5764 123.119 21.4691 122.334 23.4432 122.332Z" stroke="#EFE5FF" stroke-miterlimit="10"/>
<path d="M114.08 216.486C114.743 215.948 115.511 215.452 116.042 214.86C117.533 213.193 116.96 211.062 117.917 209.231C119.082 206.991 122.743 205.439 126.343 205.644C126.002 206.697 125.768 207.782 125.645 208.883C125.54 209.862 125.796 210.95 125.514 211.9C125.056 213.423 122.612 214.348 122.314 215.913C122.052 217.295 123.671 218.588 123.402 219.996C123.117 221.507 120.797 222.342 119.943 223.676C119.245 224.764 119.575 226.006 119.213 227.161C118.775 228.556 117.258 229.788 115.271 230.361L115.072 230.419C114.342 229.792 113.716 229.055 113.216 228.233" stroke="#EFE5FF" stroke-miterlimit="10"/>
<path d="M124.161 207.398C118.794 212.873 116.27 224.415 115.287 230.367C115.207 230.87 115.134 231.327 115.073 231.747" stroke="#EFE5FF" stroke-miterlimit="10"/>
<path d="M124.64 235.1L122.17 248.905C122.101 249.293 121.899 249.643 121.597 249.896C121.296 250.149 120.915 250.287 120.522 250.287H107.616C107.219 250.287 106.835 250.146 106.532 249.889C106.23 249.631 106.029 249.275 105.965 248.883L103.68 235.1H124.64Z" stroke="#EFE5FF" stroke-miterlimit="10"/>
<path d="M126.986 233.561C126.951 233.981 126.76 234.372 126.451 234.657C126.141 234.942 125.736 235.1 125.315 235.1H103.04C102.623 235.101 102.221 234.945 101.913 234.665C101.604 234.384 101.412 233.998 101.373 233.583C101.351 233.351 101.377 233.117 101.451 232.895C101.524 232.673 101.643 232.47 101.8 232.296C101.957 232.124 102.149 231.985 102.362 231.891C102.576 231.796 102.807 231.747 103.04 231.747H125.303C125.535 231.745 125.766 231.792 125.98 231.884C126.193 231.976 126.385 232.112 126.544 232.283C126.702 232.454 126.823 232.655 126.899 232.876C126.975 233.095 127.005 233.329 126.986 233.561Z" stroke="#EFE5FF" stroke-miterlimit="10"/>
<path d="M107.889 226.707C107.851 226.602 107.819 226.495 107.793 226.387C107.437 225.049 107.754 223.599 107.085 222.345C106.263 220.799 104.042 219.833 103.761 218.079C103.511 216.454 105.066 214.95 104.807 213.347C104.525 211.539 102.177 210.467 101.732 208.697C101.466 207.603 101.709 206.339 101.613 205.203C101.494 203.935 101.267 202.681 100.935 201.452C103.591 201.27 106.279 202.291 107.889 203.948C108.371 204.427 108.759 204.993 109.031 205.615C109.949 207.731 109.402 210.201 110.836 212.134C111.617 213.18 112.913 213.961 113.578 215.055C113.801 215.413 113.957 215.807 114.039 216.22C114.042 216.251 114.048 216.28 114.055 216.31C114.071 216.367 114.077 216.422 114.087 216.47C114.327 218.089 113.709 219.843 113.908 221.51C114.087 222.892 114.836 224.278 114.407 225.628C114.107 226.536 113.708 227.409 113.217 228.23C112.819 228.937 112.329 229.59 111.761 230.169C111.697 230.153 111.639 230.127 111.575 230.105C110.996 225.881 109.863 219.225 107.889 213.27" stroke="#EFE5FF" stroke-miterlimit="10"/>
<path d="M111.785 231.743C111.727 231.251 111.654 230.713 111.574 230.118C110.995 225.894 109.862 219.238 107.887 213.283C106.643 209.491 105.055 205.967 103.052 203.503" stroke="#EFE5FF" stroke-miterlimit="10"/>
<path d="M110.835 212.143C110.835 212.143 111.19 206.633 114.163 204.956C117.136 203.279 117.072 212.675 117.072 212.675" stroke="#EFE5FF" stroke-miterlimit="10"/>
<path d="M114.08 216.486C113.744 214.394 113.901 212.253 114.537 210.233" stroke="#EFE5FF" stroke-miterlimit="10"/>
<path d="M158.854 113.391C159.267 113.839 159.505 114.42 159.526 115.028C159.546 115.637 159.348 116.232 158.966 116.707L151.571 129.427L151.312 131.987L149.011 155.107L145.356 191.827C145.334 192.06 145.286 192.294 145.244 192.527C145.222 192.713 145.196 192.899 145.164 193.084C145.116 193.324 145.059 193.551 145.004 193.782C144.95 194.012 144.915 194.163 144.857 194.348C144.8 194.534 144.723 194.79 144.643 195.007L144.448 195.555C144.361 195.772 144.272 195.98 144.182 196.195C144.092 196.409 144.012 196.543 143.926 196.719C143.84 196.895 143.724 197.123 143.606 197.315C143.488 197.507 143.411 197.654 143.308 197.814C143.206 197.974 143.075 198.191 142.944 198.377C142.812 198.563 142.72 198.697 142.608 198.844C142.364 199.164 142.124 199.465 141.859 199.753C141.721 199.913 141.577 200.073 141.433 200.227C141.289 200.38 141.113 200.524 140.966 200.671C140.819 200.819 140.675 200.943 140.521 201.071C140.368 201.199 140.201 201.347 140.025 201.475C139.849 201.603 139.705 201.724 139.542 201.836C139.379 201.948 139.193 202.079 139.017 202.201C138.841 202.323 138.672 202.415 138.496 202.521C138.32 202.627 138.131 202.732 137.948 202.841C137.766 202.95 137.577 203.027 137.385 203.113C137.193 203.199 137.014 203.299 136.822 203.379C136.63 203.459 136.409 203.542 136.201 203.612C135.993 203.683 135.83 203.756 135.644 203.814C135.292 203.926 134.931 204.022 134.566 204.105C134.358 204.153 134.156 204.191 133.948 204.223C133.74 204.255 133.545 204.303 133.337 204.339H133.369L136.224 210.419L138.896 210.444C138.033 210.567 137.161 210.604 136.291 210.556L140.521 219.577C141.201 221.023 141.504 222.618 141.402 224.213C141.301 225.808 140.799 227.351 139.943 228.701C139.086 230.05 137.903 231.161 136.503 231.931C135.103 232.702 133.53 233.106 131.932 233.107H126.812C126.614 233.107 126.418 233.147 126.235 233.223C126.052 233.299 125.886 233.411 125.746 233.551C125.607 233.692 125.496 233.859 125.421 234.042C125.346 234.226 125.308 234.422 125.308 234.62V235.369C127.056 235.961 128.537 237.155 129.486 238.738C130.435 240.32 130.791 242.188 130.491 244.009C130.191 245.83 129.254 247.485 127.847 248.679C126.44 249.873 124.655 250.528 122.809 250.528C120.964 250.528 119.178 249.873 117.772 248.679C116.365 247.485 115.427 245.83 115.127 244.009C114.827 242.188 115.184 240.32 116.133 238.738C117.082 237.155 118.562 235.961 120.31 235.369V234.62C120.311 234.422 120.272 234.225 120.196 234.041C120.12 233.858 120.009 233.691 119.869 233.55C119.729 233.41 119.562 233.298 119.378 233.222C119.195 233.146 118.998 233.107 118.8 233.107H62.3036C62.1052 233.107 61.9084 233.146 61.725 233.222C61.5413 233.298 61.3749 233.41 61.2345 233.55C61.0943 233.691 60.983 233.858 60.9074 234.041C60.8316 234.225 60.7929 234.422 60.7932 234.62V235.369C62.5436 235.961 64.0265 237.157 64.9775 238.741C65.9286 240.325 66.286 242.196 65.9858 244.019C65.6854 245.842 64.7474 247.5 63.3385 248.696C61.9298 249.892 60.142 250.548 58.294 250.548C56.4463 250.548 54.6585 249.892 53.2495 248.696C51.8409 247.5 50.9026 245.842 50.6025 244.019C50.3023 242.196 50.6594 240.325 51.6105 238.741C52.5615 237.157 54.0444 235.961 55.7948 235.369V234.62C55.7948 234.219 55.6354 233.834 55.3516 233.55C55.0677 233.266 54.6828 233.107 54.2812 233.107H45.5004C45.0965 233.106 44.7017 232.985 44.3663 232.76C44.0309 232.535 43.7695 232.215 43.6156 231.841C43.4613 231.468 43.4217 231.057 43.5007 230.661C43.5797 230.265 43.7746 229.901 44.0604 229.615C44.2492 229.426 44.4738 229.276 44.7209 229.174C44.9679 229.071 45.2329 229.019 45.5004 229.02H130.092C131.16 229.019 132.21 228.749 133.146 228.235C134.082 227.721 134.874 226.98 135.448 226.079C136.021 225.179 136.359 224.149 136.43 223.083C136.501 222.018 136.302 220.952 135.852 219.983L128.579 204.287L55.6796 198.393C55.6239 198.38 55.5673 198.372 55.51 198.367C55.19 198.335 54.87 198.294 54.55 198.239C54.4425 198.226 54.3356 198.207 54.23 198.182C53.8684 198.118 53.5228 198.038 53.174 197.948L52.8764 197.862C52.5564 197.763 52.2364 197.66 51.9164 197.542L51.6668 197.446C51.3756 197.334 51.0876 197.206 50.806 197.068C50.6866 197.018 50.5701 196.962 50.4572 196.899C50.2012 196.771 49.9452 196.633 49.6956 196.479C47.5954 195.245 45.854 193.484 44.6437 191.369C43.4335 189.255 42.7967 186.861 42.7964 184.425V152.825C42.797 149.454 44.013 146.197 46.2213 143.65C48.4297 141.103 51.4821 139.438 54.8188 138.959L146.131 125.839L155.126 113.382C155.366 113.128 155.656 112.926 155.976 112.789C156.297 112.651 156.643 112.581 156.992 112.581C157.341 112.582 157.687 112.655 158.007 112.794C158.327 112.933 158.615 113.136 158.854 113.391Z" fill="white"/>
<path d="M262.775 221.126C256.871 208.876 244.717 187.011 228.026 173.804L226.4 144.463C227.632 144.403 228.851 144.188 230.029 143.823C231.367 143.606 232.269 143.267 232.589 142.767C232.835 142.352 233.007 141.897 233.098 141.423C233.366 140.839 233.493 140.2 233.469 139.558C233.469 139.238 233.444 138.857 233.437 138.47C233.556 135.244 233.242 130.607 232.864 125.103C232.477 117.167 232.045 109.423 232.036 109.353V109.337C232.036 109.225 232.084 102.271 232.407 94.5947C232.823 98.9499 234.628 101.676 236.992 103.35C239.552 105.459 242.909 106.031 245.789 106.031C247.895 106.027 249.991 105.751 252.026 105.209C255.453 104.14 258.272 102.435 260.365 100.003C262.285 98.1531 263.885 95.7947 264.324 92.8955C264.723 90.5502 264.596 88.1457 263.952 85.8555C263.387 83.1918 261.876 80.8228 259.7 79.1867C259.188 78.754 258.623 78.3886 258.02 78.0987C257.005 77.5099 255.959 76.9403 254.967 76.2875C253.628 75.3511 252.462 74.1892 251.52 72.8539C250.901 71.7124 250.523 70.4552 250.41 69.1611C250.511 66.9991 250.481 64.8331 250.32 62.6747C250.32 62.2235 250.272 61.7723 250.224 61.3307C250.103 59.7851 249.991 58.7163 249.991 58.7163C248.677 55.3348 246.434 52.3937 243.52 50.2331C243.341 50.0891 243.159 49.9515 242.98 49.8139C240.422 47.9463 237.452 46.7236 234.32 46.2491C234.032 46.2075 233.741 46.1755 233.46 46.1531C232.536 46.0023 231.602 45.9191 230.666 45.9035C229.47 45.4027 228.443 44.57 227.706 43.5035C227.059 42.3265 226.6 41.0558 226.346 39.7371C225.984 37.5803 225.952 34.9915 225.773 32.0059C225.801 29.0078 225.021 26.0574 223.514 23.4651C223.507 23.4449 223.496 23.4263 223.482 23.4107C222.839 22.3303 222.059 21.3377 221.162 20.4571C218.58 17.3979 214.983 15.4843 210.509 16.6011C210.468 16.6011 210.426 16.6267 210.378 16.6427C210.192 16.6427 210.01 16.6427 209.824 16.6747C209.819 16.6731 209.814 16.6731 209.808 16.6747C208.058 16.8203 206.361 17.3537 204.842 18.2363C204.283 18.5604 203.755 18.9351 203.264 19.3563C200.304 21.9163 198.605 25.8747 198.144 29.7947C198.122 29.9547 198.112 30.1147 198.106 30.2747C197.588 30.8996 197.281 31.6724 197.229 32.4827C197.179 33.2705 197.358 34.0564 197.744 34.7447C198.131 35.4331 198.709 35.9947 199.408 36.3611V36.5627C199.458 37.9467 199.761 39.3099 200.301 40.5851C201.21 42.7419 202.836 45.1963 205.588 45.5899C205.687 45.5899 205.783 45.6059 205.869 45.6219L207.882 49.2123L208.365 51.2955L209.485 56.1243L209.869 55.9067C210.314 55.6571 210.756 55.4107 211.213 55.1675L211.504 55.6987C209.785 56.6817 208.143 57.794 206.592 59.0267C202.634 62.0123 197.773 66.5755 194.352 72.8187C192.34 76.3131 190.916 80.1115 190.474 84.1435C190.471 84.1972 190.466 84.2503 190.458 84.3035C190.4 84.6651 190.352 85.0267 190.314 85.3979V83.6347C190.244 83.6347 190.176 83.6027 190.106 83.5963V83.5643C189.859 83.5284 189.614 83.4795 189.373 83.4171L170.928 72.4347C170.101 71.6923 169.502 70.7284 169.204 69.6571C168.693 67.5915 167.537 65.7422 165.904 64.3771C164.51 63.2919 162.869 62.5707 161.127 62.2779C161.021 62.2523 160.909 62.2363 160.807 62.2203C160.877 62.066 160.914 61.8987 160.914 61.7291C160.915 61.5595 160.879 61.3918 160.81 61.2372C160.741 61.0823 160.639 60.9441 160.512 60.8318C160.385 60.7195 160.236 60.6353 160.074 60.5851L146.442 56.2811C146.158 56.1905 145.849 56.2097 145.578 56.3345C145.307 56.4596 145.093 56.6814 144.976 56.9563L141.837 64.3835C141.773 64.5371 141.742 64.7022 141.745 64.8686C141.749 65.0347 141.787 65.1985 141.858 65.3492C141.928 65.4999 142.029 65.634 142.155 65.7431C142.28 65.8526 142.427 65.9345 142.586 65.9835L142.941 66.0955V66.1275L150.999 68.6267L151.146 68.6747C151.146 68.8347 151.146 68.9947 151.162 69.1547C151.184 69.9191 151.264 70.6807 151.402 71.4331C151.46 71.7531 151.53 72.0731 151.61 72.3931C151.658 72.5691 151.7 72.7387 151.764 72.9083L151.789 72.9979C151.837 73.1483 151.885 73.3179 151.949 73.4619C151.965 73.5217 151.984 73.5803 152.007 73.6379C152.012 73.6398 152.018 73.6398 152.023 73.6379C152.223 74.1553 152.473 74.6516 152.772 75.1195C153.474 76.2171 154.501 77.0692 155.709 77.5579C156.852 78.0059 158.074 77.9195 159.229 78.3771C160.118 78.7489 160.934 79.2779 161.636 79.9387L162.071 80.4123C161.837 80.7611 159.738 84.0027 161.252 85.0235L161.194 85.0491L162.724 86.0091L181.492 98.4027C181.677 98.5467 181.869 98.6843 182.055 98.8187L180.704 100.307C176.98 101.625 172.583 103.065 169.098 104.063C167.008 104.595 164.9 105.062 162.775 105.439C159.514 106.003 156.189 106.028 152.948 106.582C150.589 106.969 148.592 109.167 148.148 111.628C147.776 113.631 147.687 115.788 149.901 116.819C152.436 117.996 153.7 114.39 155.236 113.11C157.604 111.107 159.959 113.497 162.423 114.857C162.647 116.175 163.034 117.446 163.332 118.742C163.41 119.201 163.588 119.638 163.853 120.022C164.304 120.601 164.778 120.662 165.197 120.447L165.092 120.537C165.898 120.324 166.711 120.111 167.53 119.897C168.298 119.778 169.055 119.595 169.792 119.35C175.29 118.044 181.149 116.828 187.008 115.356H187.031C187.306 115.286 187.588 115.212 187.86 115.148C187.951 115.145 188.042 115.16 188.128 115.193C188.214 115.225 188.292 115.274 188.358 115.337C188.425 115.399 188.478 115.475 188.516 115.559C188.553 115.642 188.574 115.732 188.576 115.823C188.544 116.243 188.503 116.668 188.464 117.103C188.039 118.979 187.338 124.041 186.544 128.127C186.109 129.939 185.658 131.628 185.223 133.126C184.516 134.726 183.824 136.303 184.042 137.606C184.066 138.187 184.291 138.741 184.678 139.175C185.066 139.607 185.592 139.893 186.167 139.98L187.178 140.134C187.872 140.3 189.047 140.502 190.519 140.713C190.72 142.143 190.938 143.593 191.178 145.001L191.236 145.356C191.405 146.287 191.581 147.238 191.757 148.179V148.204V148.236L191.901 149.007L192.055 149.839L190.887 160.188L190.538 163.347L181.655 241.679L172.311 244.166L165.309 246.035C165.054 246.089 164.811 246.19 164.592 246.332C164.267 246.536 164 246.819 163.815 247.155C163.631 247.491 163.536 247.869 163.54 248.252C163.54 248.628 163.637 248.997 163.821 249.324C163.922 249.518 164.049 249.697 164.199 249.856C164.508 250.161 164.899 250.371 165.325 250.46C165.484 250.498 165.646 250.516 165.808 250.515H193.098L195.338 241.686L208.714 188.758L209.415 189.398C209.415 189.398 209.415 189.423 209.44 189.43V189.446L229.952 208.947L230.196 209.161L230.516 209.481L234.788 213.536L235.108 213.833L235.236 213.961C251.188 229.372 251.757 231.385 251.402 231.596H251.2L243.84 246.867C243.611 247.346 243.556 247.891 243.685 248.407C243.814 248.923 244.119 249.377 244.548 249.692L245.063 250.07C245.526 250.405 246.098 250.552 246.665 250.483C247.232 250.415 247.752 250.134 248.122 249.699L266.807 227.859C266.807 227.859 265.421 226.582 262.775 221.126ZM165.76 119.967C165.857 119.85 165.946 119.726 166.026 119.596C166.03 119.637 166.044 119.675 166.068 119.708L165.76 119.967ZM181.597 99.9867C181.703 99.9387 181.805 99.8971 181.917 99.8555L183.021 99.4235L183.069 99.4459C182.596 99.6219 182.103 99.8075 181.597 99.9867ZM189.088 83.3467C188.133 83.0475 187.253 82.5476 186.506 81.8811L185.485 81.2699L189.268 83.3787C189.204 83.3819 189.146 83.3819 189.088 83.3659V83.3467Z" fill="white"/>
<path d="M184.051 99.6379L183.494 99.4299C183.454 99.4088 183.416 99.3851 183.379 99.3595C180.47 97.4779 178.198 94.8219 176.256 91.9995C174.208 89.0203 167.181 85.9547 164.909 83.1323C163.453 81.3467 161.93 79.2923 159.699 78.4027C158.55 77.9515 157.322 78.0379 156.179 77.5835C154.97 77.0977 153.944 76.2446 153.245 75.1451C152.941 74.6763 152.687 74.1777 152.486 73.6571C152.462 73.5976 152.441 73.5367 152.426 73.4747C152.35 73.2939 152.289 73.1076 152.243 72.9179C152.182 72.7451 152.138 72.5787 152.093 72.4027C152.005 72.0868 151.936 71.7662 151.885 71.4427C151.765 70.7191 151.69 69.9892 151.658 69.2571V69.2219C151.632 68.4795 151.642 67.7499 151.677 67.0363V67.0171H151.642L148.374 65.8683C147.924 65.7192 147.521 65.451 147.21 65.0923C146.9 64.7335 146.691 64.2971 146.608 63.8299C146.564 63.5694 146.572 63.3025 146.634 63.0459C146.708 62.7063 146.856 62.3873 147.066 62.1111C147.277 61.8347 147.545 61.6078 147.853 61.4459C148.137 61.2951 148.449 61.2049 148.769 61.1809C149.09 61.1566 149.412 61.1988 149.715 61.3051L156.291 63.6923L157.642 64.1787L157.677 64.1979C157.677 64.1979 157.677 62.1947 159.597 62.2363C161.373 62.2811 167.808 62.8027 169.715 69.8395C170.013 70.9092 170.611 71.8712 171.44 72.6107L186.986 81.9195C188.042 82.8772 189.369 83.4862 190.784 83.6635V85.6379C190.782 85.6395 190.78 85.6417 190.779 85.6443C190.778 85.6468 190.777 85.6494 190.777 85.6523C190.777 85.6548 190.778 85.6574 190.779 85.66C190.78 85.6625 190.782 85.6648 190.784 85.6667V87.1035L192.019 95.7595L192.89 101.811C191.754 101.903 190.611 101.862 189.485 101.689L188.746 101.411H188.727L184.051 99.6379Z" fill="#EFE5FF"/>
<path d="M190.579 85.5355V85.5611C190.211 88.8027 189.846 92.5659 189.558 96.7291C187.484 97.6891 185.369 98.5211 183.289 99.3499C183.249 99.3288 183.211 99.3054 183.174 99.2795C181.761 98.3512 180.463 97.2577 179.308 96.0219L161.664 85.0715C162.755 84.5192 163.728 83.7582 164.528 82.8315L164.582 82.7771C167.907 79.2059 170.79 73.1771 171.148 72.4219L171.225 72.5019L186.771 81.8107C187.828 82.7678 189.154 83.3758 190.569 83.5515L190.579 85.5355Z" fill="#E0CFFF"/>
<path d="M151.616 68.6267C151.616 68.7995 151.616 68.9851 151.635 69.1579C151.658 69.9236 151.74 70.6862 151.879 71.4395C151.93 71.763 151.999 72.0836 152.087 72.3995C152.131 72.5723 152.173 72.7387 152.234 72.9115C152.295 73.0843 152.359 73.2955 152.435 73.4875C152.46 73.5585 152.489 73.6279 152.522 73.6955" stroke="#E0CFFF" stroke-miterlimit="10"/>
<path d="M190.774 83.9867L171.373 72.4347C170.547 71.6916 169.952 70.7278 169.657 69.6571C169.142 67.594 167.987 65.7467 166.358 64.3803C164.961 63.2987 163.319 62.578 161.577 62.2811C160.896 62.1403 160.208 62.0283 159.52 61.9067C159.039 61.7943 158.55 61.7182 158.057 61.6795C157.795 61.6641 157.532 61.707 157.288 61.8049C157.044 61.9028 156.825 62.0532 156.646 62.2459C156.472 62.435 156.347 62.6641 156.282 62.9128C156.216 63.1617 156.213 63.4225 156.272 63.6731C156.438 64.3163 156.768 64.9054 157.232 65.3819C157.68 65.9003 158.205 66.3463 158.79 66.7035C158.8 66.7291 158.825 66.7291 158.825 66.7291C159.214 66.9752 159.625 67.1828 160.054 67.3499C160.323 67.4523 160.56 67.5387 160.88 67.6187C161.2 67.6987 161.52 67.7595 161.84 67.8107C161.84 67.8107 155 62.5 152 61C149 59.5 146.3 61.9617 149.5 65.3819C150.86 66.5879 154.622 69.4 158.79 71" stroke="#EFE6FF" stroke-miterlimit="10"/>
<path d="M151.639 69.1547C151.639 69.1547 152.259 72.6459 157.114 72.5499C157.49 72.5361 157.853 72.4075 158.154 72.1816C158.455 71.9553 158.679 71.6424 158.797 71.2849C158.915 70.9272 158.92 70.5422 158.813 70.1815C158.705 69.8206 158.49 69.5015 158.195 69.2667L158.131 69.2187" stroke="#EFE6FF" stroke-miterlimit="10"/>
<path d="M152.419 73.4587C152.419 73.4587 154.797 75.9323 157.168 74.8635C159.264 73.9035 157.83 72.0251 157.83 72.0251" stroke="#EFE6FF" stroke-miterlimit="10"/>
<path d="M158.905 69.1067L158.732 69.0555" stroke="#E0CFFF" stroke-miterlimit="10"/>
<path d="M133.805 204.332C132.796 204.477 131.774 204.506 130.759 204.419L129.159 204.291L133.805 204.332Z" fill="#D7E8F0"/>
<path d="M151.789 132.003L145.821 191.843C145.508 194.97 144.153 197.901 141.973 200.164C139.793 202.428 136.915 203.892 133.802 204.323C132.793 204.467 131.771 204.496 130.756 204.409L129.156 204.281L56.1412 198.383C54.0254 198.218 51.9758 197.569 50.1508 196.486C49.2683 194.63 48.8123 192.601 48.8164 190.547V189.155L115.898 194.595L117.498 194.726C118.513 194.81 119.535 194.781 120.544 194.639C123.657 194.207 126.534 192.742 128.713 190.479C130.893 188.216 132.249 185.286 132.564 182.159L137.364 134.111L151.789 132.003Z" fill="#EFE6FF"/>
<path d="M137.357 134.076L132.557 182.124C132.243 185.251 130.887 188.181 128.707 190.444C126.528 192.707 123.65 194.173 120.538 194.604C119.529 194.746 118.507 194.775 117.492 194.691L115.892 194.559L48.8101 189.119V158.94C48.8117 155.569 50.0273 152.311 52.2344 149.763C54.4417 147.215 57.4929 145.547 60.8293 145.065L137.357 134.076Z" fill="#EFE5FF"/>
<path d="M139.374 210.447C138.364 210.592 137.34 210.621 136.324 210.534L134.724 210.406L139.374 210.447Z" fill="#D7E8F0"/>
<path d="M133.842 204.332L140.998 219.583C141.676 221.03 141.977 222.624 141.875 224.218C141.774 225.813 141.271 227.355 140.414 228.704C139.558 230.052 138.375 231.163 136.975 231.932C135.575 232.702 134.003 233.106 132.406 233.107H127.286C127.087 233.106 126.891 233.145 126.708 233.221C126.525 233.296 126.358 233.407 126.218 233.547C126.078 233.687 125.966 233.853 125.89 234.036C125.814 234.219 125.775 234.416 125.775 234.614V242.051C125.775 242.713 125.512 243.349 125.043 243.818C124.575 244.287 123.939 244.55 123.276 244.55C122.613 244.55 121.977 244.287 121.509 243.818C121.04 243.349 120.777 242.713 120.777 242.051V234.611C120.777 234.412 120.738 234.216 120.663 234.033C120.587 233.849 120.476 233.683 120.335 233.543C120.195 233.403 120.028 233.292 119.845 233.216C119.661 233.141 119.465 233.102 119.266 233.103H62.7736C62.5755 233.103 62.3794 233.142 62.1963 233.217C62.0133 233.293 61.8472 233.404 61.707 233.544C61.5669 233.684 61.4558 233.85 61.3803 234.033C61.3048 234.216 61.2661 234.413 61.2664 234.611V242.047C61.2434 242.695 60.9698 243.309 60.5032 243.759C60.0366 244.209 59.4139 244.46 58.7656 244.46C58.1176 244.46 57.4946 244.209 57.0283 243.759C56.5618 243.309 56.2882 242.695 56.2648 242.047V234.611C56.2654 234.413 56.2267 234.216 56.1509 234.033C56.0754 233.85 55.9643 233.684 55.8245 233.544C55.6843 233.404 55.5179 233.293 55.3349 233.217C55.1518 233.142 54.9557 233.103 54.7576 233.103H45.9768C45.4482 233.083 44.948 232.858 44.5813 232.476C44.2146 232.095 44.0098 231.586 44.0098 231.057C44.0098 230.528 44.2146 230.019 44.5813 229.638C44.948 229.256 45.4482 229.031 45.9768 229.011H130.559C131.626 229.009 132.674 228.74 133.609 228.227C134.544 227.714 135.335 226.974 135.909 226.075C136.482 225.176 136.821 224.147 136.892 223.083C136.964 222.019 136.767 220.954 136.319 219.987L129.046 204.307" fill="#E0CFFF"/>
<path d="M130.755 204.419L56.1405 198.387C52.6311 198.104 49.3572 196.51 46.97 193.922C44.5824 191.334 43.257 187.942 43.2573 184.422V152.825C43.2583 149.454 44.474 146.197 46.6813 143.65C48.8887 141.103 51.9402 139.437 55.2765 138.956L146.585 125.836L155.587 113.372C155.828 113.118 156.119 112.915 156.441 112.777C156.764 112.639 157.111 112.569 157.462 112.571C157.813 112.574 158.159 112.648 158.48 112.789C158.801 112.931 159.09 113.137 159.328 113.395C159.737 113.844 159.974 114.424 159.995 115.031C160.016 115.638 159.82 116.234 159.443 116.71L152.038 129.443L145.827 191.843C145.462 195.495 143.679 198.859 140.861 201.211C138.042 203.562 134.414 204.714 130.755 204.419Z" stroke="#EFE6FF" stroke-miterlimit="10"/>
<path d="M131.081 242.729C131.084 244.162 130.692 245.567 129.947 246.792C129.203 248.016 128.135 249.011 126.861 249.668C125.588 250.324 124.158 250.617 122.729 250.513C121.3 250.409 119.927 249.914 118.761 249.08C117.596 248.247 116.683 247.108 116.123 245.789C115.563 244.47 115.378 243.022 115.587 241.605C115.797 240.188 116.394 238.855 117.311 237.755C118.229 236.655 119.433 235.829 120.79 235.369V242.051C120.79 242.713 121.053 243.349 121.522 243.818C121.99 244.287 122.626 244.55 123.289 244.55C123.952 244.55 124.588 244.287 125.056 243.818C125.525 243.349 125.788 242.713 125.788 242.051V235.366C127.331 235.884 128.672 236.873 129.621 238.194C130.571 239.515 131.082 241.102 131.081 242.729Z" stroke="#E0CFFF" stroke-miterlimit="10"/>
<path d="M66.56 242.729C66.5626 244.161 66.1703 245.567 65.4256 246.79C64.681 248.014 63.6132 249.009 62.3399 249.665C61.0666 250.321 59.6368 250.613 58.208 250.509C56.7795 250.404 55.4074 249.908 54.2426 249.074C53.0778 248.24 52.1658 247.102 51.6064 245.783C51.0474 244.464 50.8627 243.016 51.0733 241.6C51.2839 240.183 51.881 238.851 52.7994 237.752C53.7178 236.653 54.9216 235.828 56.2784 235.369V242.051C56.2791 242.714 56.5434 243.349 57.0125 243.818C57.4816 244.286 58.1178 244.55 58.7808 244.55C59.4436 244.55 60.0794 244.286 60.5479 243.818C61.0167 243.349 61.28 242.713 61.28 242.051V235.366C62.8208 235.885 64.16 236.874 65.1076 238.196C66.0551 239.517 66.5629 241.103 66.56 242.729Z" stroke="#E0CFFF" stroke-miterlimit="10"/>
<path d="M133.842 204.332L140.998 219.583C141.676 221.03 141.977 222.624 141.875 224.218C141.774 225.813 141.271 227.355 140.414 228.704C139.558 230.052 138.375 231.163 136.975 231.932C135.575 232.702 134.003 233.106 132.406 233.107H127.286C127.087 233.106 126.891 233.145 126.708 233.221C126.525 233.296 126.358 233.407 126.218 233.547C126.078 233.687 125.966 233.853 125.89 234.036C125.814 234.219 125.775 234.416 125.775 234.614V242.051C125.775 242.713 125.512 243.349 125.043 243.818C124.575 244.287 123.939 244.55 123.276 244.55C122.613 244.55 121.977 244.287 121.509 243.818C121.04 243.349 120.777 242.713 120.777 242.051V234.611C120.777 234.412 120.738 234.216 120.663 234.033C120.587 233.849 120.476 233.683 120.335 233.543C120.195 233.403 120.028 233.292 119.845 233.216C119.661 233.141 119.465 233.102 119.266 233.103H62.7736C62.5755 233.103 62.3794 233.142 62.1963 233.217C62.0133 233.293 61.8472 233.404 61.707 233.544C61.5669 233.684 61.4558 233.85 61.3803 234.033C61.3048 234.216 61.2661 234.413 61.2664 234.611V242.047C61.2434 242.695 60.9698 243.309 60.5032 243.759C60.0366 244.209 59.4139 244.46 58.7656 244.46C58.1176 244.46 57.4946 244.209 57.0283 243.759C56.5618 243.309 56.2882 242.695 56.2648 242.047V234.611C56.2654 234.413 56.2267 234.216 56.1509 234.033C56.0754 233.85 55.9643 233.684 55.8245 233.544C55.6843 233.404 55.5179 233.293 55.3349 233.217C55.1518 233.142 54.9557 233.103 54.7576 233.103H45.9768C45.4482 233.083 44.948 232.858 44.5813 232.476C44.2146 232.095 44.0098 231.586 44.0098 231.057C44.0098 230.528 44.2146 230.019 44.5813 229.638C44.948 229.256 45.4482 229.031 45.9768 229.011H130.559C131.626 229.009 132.674 228.74 133.609 228.227C134.544 227.714 135.335 226.974 135.909 226.075C136.482 225.176 136.821 224.147 136.892 223.083C136.964 222.019 136.767 220.954 136.319 219.987L129.046 204.307" stroke="#E0CFFF" stroke-miterlimit="10"/>
<path d="M171.385 72.4347C171.385 72.4347 166.719 82.5819 162.198 84.9915C162.165 85.0081 162.137 85.0328 162.117 85.0638C162.096 85.0945 162.085 85.13 162.083 85.1668C162.081 85.2036 162.089 85.2401 162.106 85.2731C162.122 85.3057 162.147 85.3335 162.178 85.3531L183.379 99.3467" stroke="#EFE6FF" stroke-miterlimit="10"/>
<path d="M162.56 80.4027C162.56 80.4027 159.942 84.2171 161.875 85.1515" stroke="#EFE6FF" stroke-miterlimit="10"/>
<path d="M164.01 105.299C164.01 105.299 162.938 105.347 165.088 108.054C167.239 110.761 167.968 115.913 166.506 119.596C166.506 119.596 166.442 120.556 170.269 119.359C174.096 118.163 187.52 115.363 187.52 115.363C187.52 115.363 189.616 114.259 188.967 117.055C188.317 119.852 187.047 130.14 185.719 133.107C184.391 136.073 183.098 139.014 187.667 140.127C192.237 141.241 217.165 143.583 217.165 143.583C217.165 143.583 234.125 147.343 233.946 139.555C233.767 131.766 232.522 109.343 232.522 109.343C232.522 109.343 232.624 92.0347 233.767 81.8011C233.767 81.8011 236.749 55.8011 227.882 53.3979C219.015 50.9947 216.003 53.5515 213.754 54.7643C211.504 55.9771 191.674 66.3419 190.592 87.7243C190.592 87.7243 190.519 95.9867 188.845 97.2187C187.171 98.4507 167.587 105.225 164.01 105.299Z" fill="#E0CFFF"/>
<path d="M195.799 241.679L193.559 250.508H166.286C165.687 250.504 165.114 250.268 164.686 249.849C164.399 249.562 164.195 249.203 164.095 248.81C163.994 248.417 164.001 248.005 164.114 247.615C164.227 247.226 164.442 246.874 164.737 246.596C165.033 246.318 165.397 246.124 165.793 246.035L182.138 241.679C182.138 241.679 191.601 245.004 195.799 241.679Z" fill="#E0CFFF"/>
<path d="M227.492 144.073C227.284 144.073 227.066 144.092 226.852 144.092C225.998 149.603 225.049 155.095 224.004 160.569C211.786 157.833 194.906 162.684 194.906 162.684L195.261 164.604C192.477 164.755 191.623 163.727 191.623 163.727L191.009 163.347L192.541 149.82L192.247 148.22V148.169C192.065 147.228 191.892 146.278 191.725 145.337L191.665 144.991C191.421 143.535 191.194 142.073 190.993 140.617L191.194 140.646C191.265 140.646 191.332 140.671 191.412 140.678L191.585 140.707C191.735 140.723 191.882 140.748 192.029 140.767C192.349 140.809 192.762 140.87 193.223 140.94C193.405 140.94 193.597 140.985 193.799 141.02C200.737 141.983 218.81 144.335 227.492 144.073Z" fill="#EFE6FF"/>
<path d="M209.22 188.585L209.178 188.752L195.799 241.679L193.559 250.508H166.285C165.686 250.504 165.113 250.268 164.685 249.849C164.399 249.562 164.195 249.203 164.095 248.81C163.994 248.416 164.001 248.004 164.114 247.614C164.227 247.225 164.442 246.872 164.737 246.594C165.033 246.316 165.397 246.122 165.792 246.032L182.138 241.679L191.008 163.347L192.541 149.82" stroke="#EFE6FF" stroke-miterlimit="10"/>
<path d="M167.207 115.593C166.247 115.638 165.709 115.647 165.709 115.647C164.749 115.715 163.818 115.35 162.896 114.854C160.432 113.494 158.071 111.11 155.703 113.113C154.17 114.393 152.906 117.996 150.371 116.822C148.16 115.795 148.247 113.622 148.611 111.631C149.066 109.167 151.059 106.972 153.411 106.579C156.65 106.031 159.978 106.006 163.235 105.439C169.797 104.239 176.219 102.372 182.4 99.8651C189.264 97.1291 196.752 94.3099 201.821 88.6907C207.84 82.0379 211.664 73.3307 213.754 64.6715" stroke="#EFE6FF" stroke-miterlimit="10"/>
<path d="M201.098 28.8955C201.098 28.8955 201.696 18.9339 210.995 16.6011C220.294 14.2683 225.843 25.0715 226.262 32.0059C226.682 38.9403 226.262 43.7243 231.149 45.9067C231.149 45.9067 245.27 45.7339 250.474 58.7067C250.474 58.7067 251.178 65.0651 250.89 69.1579C250.602 73.2507 255.709 76.8379 258.49 78.0987C261.27 79.3595 266.109 84.4986 264.794 92.8923C263.478 101.286 252.499 105.199 252.499 105.199C252.499 105.199 243.117 107.977 237.459 103.34C231.453 98.4219 233.152 89.4267 233.152 89.4267C233.152 89.4267 236.394 60.1723 230.493 55.3659C227.245 52.7195 225.77 52.9595 223.475 51.5643C221.059 50.0955 220.195 49.6443 219.386 48.6107C217.811 46.5851 215.021 43.5259 217.04 36.3099C219.059 29.0939 217.04 32.7323 215.12 31.7147C215.12 31.7147 212.765 28.0795 209.21 30.6491C205.654 33.2187 206.522 26.9499 206.522 26.9499L204.96 29.0491C204.96 29.0491 202.518 29.5387 201.098 28.8955Z" fill="#EFE6FF"/>
<path d="M198.909 32.3387C198.823 27.6891 200.557 22.4667 204.17 19.3691C204.66 18.9467 205.187 18.5687 205.745 18.2395C209.649 15.9323 215.073 16.1403 218.957 18.3835C221.023 19.6107 222.747 21.3383 223.969 23.4075L224.001 23.4651C225.506 26.058 226.287 29.0078 226.263 32.0059C226.282 35.9035 226.305 41.1931 228.807 44.4283C230.388 46.4763 232.49 45.9003 234.804 46.2491C237.936 46.7198 240.908 47.9441 243.463 49.8171C246.913 52.3547 249.786 56.1403 250.58 60.4155C251.345 64.5307 249.85 69.1707 252.068 72.9755C253.693 75.7563 256.785 77.0267 259.402 78.6491C264.657 81.9451 265.738 88.3323 264.074 93.9515C262.34 99.8107 258.263 103.411 252.5 105.206C252.5 105.206 233.025 110.006 232.785 92.9371" stroke="#EFE6FF" stroke-miterlimit="10"/>
<path d="M206.25 26.6555C206.048 28.0251 205.216 29.2891 203.735 29.6667C202.064 30.0923 201.175 31.7179 200.708 33.3531C200.039 35.7521 200.212 38.3073 201.197 40.5947C202.109 42.7451 203.738 45.2027 206.49 45.5963C211.527 46.3131 214.032 44.1915 214.032 44.1915" stroke="#EFE6FF" stroke-miterlimit="10"/>
<path d="M210.445 33.9739C210.924 33.9739 211.312 33.5857 211.312 33.1067C211.312 32.6276 210.924 32.2395 210.445 32.2395C209.966 32.2395 209.578 32.6276 209.578 33.1067C209.578 33.5857 209.966 33.9739 210.445 33.9739Z" fill="#E0CFFF"/>
<path d="M202.838 33.4043C203.317 33.4043 203.706 33.0158 203.706 32.5371C203.706 32.058 203.317 31.6699 202.838 31.6699C202.359 31.6699 201.971 32.058 201.971 32.5371C201.971 33.0158 202.359 33.4043 202.838 33.4043Z" fill="#E0CFFF"/>
<path d="M206.249 26.6555C206.058 27.4785 206.088 28.3371 206.335 29.1451C206.373 29.2759 206.423 29.4033 206.483 29.5259C207.084 30.9371 208.483 32.0635 210.963 31.9227C216.348 31.6251 218.268 31.2827 217.83 33.7563C217.648 34.6315 217.387 35.4884 217.049 36.3163C216.457 37.8875 216.044 40.5851 216.652 43.5227C217.353 46.9563 219.017 50.4635 224.627 52.4155" stroke="#EFE6FF" stroke-miterlimit="10"/>
<path d="M206.72 33.3179C206.72 33.3179 205.811 36.6395 205.904 37.1291C205.997 37.6187 207.158 37.2379 207.158 37.2379" stroke="#E0CFFF" stroke-miterlimit="10"/>
<path d="M207.36 40.2811C209.097 41.2187 211.113 40.6267 211.901 39.0587" stroke="#E0CFFF" stroke-miterlimit="10"/>
<path d="M214.703 36.554C216.198 34.9707 216.095 32.4459 214.473 30.915C212.851 29.3838 210.325 29.4264 208.83 31.0094C207.335 32.5928 207.438 35.1175 209.06 36.6484C210.682 38.1796 213.208 38.1371 214.703 36.554Z" stroke="#EFE6FF" stroke-miterlimit="10"/>
<path d="M204.613 35.6283C206.108 34.0449 206.005 31.5204 204.383 29.9892C202.761 28.4583 200.234 28.5006 198.74 30.0839C197.245 31.6673 197.348 34.1918 198.97 35.723C200.592 37.2539 203.119 37.2116 204.613 35.6283Z" stroke="#EFE6FF" stroke-miterlimit="10"/>
<path d="M201.6 30.0922C201.686 30.0874 201.773 30.0874 201.859 30.0922C202.598 30.1607 203.28 30.5137 203.763 31.0772C204.246 31.6404 204.49 32.3694 204.445 33.1099C204.404 33.7895 204.103 34.4273 203.605 34.892C203.107 35.3563 202.45 35.612 201.769 35.6059C201.683 35.6059 201.597 35.6059 201.51 35.6059C200.772 35.5358 200.09 35.1822 199.608 34.619C199.126 34.0561 198.88 33.3281 198.925 32.5883C198.966 31.9086 199.266 31.2705 199.764 30.8062C200.262 30.3415 200.919 30.0858 201.6 30.0922ZM201.6 29.5002C200.769 29.4961 199.969 29.809 199.362 30.3751C198.754 30.9412 198.386 31.7182 198.333 32.5467C198.278 33.4411 198.573 34.3217 199.156 35.0024C199.739 35.6833 200.563 36.1105 201.456 36.1947C201.561 36.1947 201.667 36.2107 201.776 36.2107C202.606 36.2139 203.407 35.9003 204.014 35.3336C204.621 34.7668 204.989 33.9899 205.043 33.1611C205.097 32.2667 204.801 31.3863 204.218 30.7057C203.636 30.0254 202.812 29.5975 201.92 29.513C201.814 29.513 201.709 29.513 201.6 29.513V29.5002Z" fill="white"/>
<path d="M207.78 33.4139L205.661 33.2187" stroke="#E0CFFF" stroke-miterlimit="10"/>
<path d="M211.677 30.9339H211.943C212.704 31.0055 213.407 31.3697 213.904 31.9502C214.402 32.5303 214.654 33.2814 214.609 34.0443C214.563 34.7425 214.251 35.3969 213.738 35.8727C213.225 36.3489 212.55 36.6107 211.85 36.6043C211.76 36.6043 211.674 36.6043 211.584 36.6043C210.824 36.5326 210.12 36.1681 209.623 35.5876C209.126 35.0075 208.873 34.2567 208.919 33.4939C208.964 32.7953 209.275 32.1403 209.788 31.6641C210.301 31.1879 210.977 30.9265 211.677 30.9339ZM211.677 30.3419C210.825 30.3358 210.002 30.6561 209.378 31.2366C208.754 31.8171 208.376 32.6145 208.32 33.4651C208.265 34.3812 208.568 35.2833 209.165 35.9809C209.762 36.6782 210.607 37.1163 211.52 37.2027C211.629 37.2027 211.735 37.2187 211.84 37.2187C212.692 37.2219 213.512 36.9003 214.134 36.3191C214.756 35.7383 215.133 34.9415 215.188 34.0923C215.248 33.1745 214.947 32.2699 214.349 31.5713C213.751 30.8727 212.904 30.4363 211.988 30.3547C211.879 30.3547 211.773 30.3547 211.668 30.3547L211.677 30.3419Z" fill="white"/>
<path d="M204.197 35.235C205.48 33.8766 205.391 31.7102 203.999 30.3966C202.607 29.0826 200.439 29.1188 199.157 30.4772C197.875 31.8356 197.963 34.0017 199.355 35.3156C200.747 36.6295 202.915 36.5934 204.197 35.235Z" fill="#EFE6FF"/>
<path d="M214.301 36.1704C215.59 34.8055 215.501 32.6292 214.102 31.3092C212.704 29.9892 210.526 30.0257 209.238 31.3905C207.949 32.7553 208.038 34.9316 209.437 36.2516C210.835 37.5716 213.013 37.5352 214.301 36.1704Z" fill="#EFE6FF"/>
<path d="M210.445 56.3995L209.268 51.3051L207.988 45.8107" stroke="#EFE6FF" stroke-miterlimit="10"/>
<path d="M267.286 227.871L248.605 249.711C248.235 250.147 247.714 250.426 247.147 250.495C246.58 250.563 246.008 250.415 245.545 250.079L245.033 249.705C244.604 249.392 244.297 248.938 244.167 248.423C244.037 247.907 244.091 247.363 244.32 246.883L251.661 231.606C251.661 231.606 263.341 231.942 263.245 221.116C265.891 226.585 267.286 227.871 267.286 227.871Z" fill="#E0CFFF"/>
<path d="M235.715 213.974L235.584 213.843L230.672 209.174L230.435 208.956L209.916 189.436V189.417L209.888 189.391L209.193 188.751L202.956 182.822C199.541 179.57 197.242 175.32 196.39 170.681L195.26 164.627L194.902 162.707L192.54 149.852L192.246 148.252V148.201C192.064 147.26 191.891 146.31 191.724 145.369L191.664 145.023" stroke="#EFE6FF" stroke-miterlimit="10"/>
<path d="M190.982 140.627C191.184 142.083 191.411 143.545 191.654 145.001L191.715 145.347C191.882 146.287 192.054 147.238 192.237 148.179V148.23" stroke="#E0CFFF" stroke-linejoin="round"/>
<path d="M209.869 189.404L209.894 189.43L209.913 189.449" stroke="#E0CFFF" stroke-linejoin="round"/>
<path d="M230.433 208.956L230.669 209.174C232.444 210.838 234.081 212.394 235.581 213.843L235.709 213.974C255.386 232.985 251.658 231.606 251.658 231.606L244.314 246.883C244.086 247.363 244.033 247.908 244.164 248.423C244.295 248.939 244.601 249.392 245.031 249.705L245.543 250.079C246.005 250.415 246.577 250.563 247.145 250.495C247.712 250.426 248.232 250.147 248.602 249.711L267.281 227.871C267.281 227.871 265.889 226.591 263.242 221.116C256.884 207.939 243.306 183.622 224.615 170.95C223.919 170.483 223.377 169.821 223.058 169.046C222.738 168.271 222.655 167.42 222.82 166.598C223.178 164.863 223.517 163.129 223.85 161.388C223.901 161.119 223.953 160.847 223.997 160.579C225.041 155.1 225.99 149.608 226.845 144.102" stroke="#EFE6FF" stroke-linejoin="round"/>
<path d="M189.76 96.8091C190.048 92.6491 190.4 88.8827 190.781 85.6091C190.832 85.1131 190.893 84.6235 190.944 84.1435C191.725 77.0107 195.594 70.5723 200.352 65.3531C205.056 60.1947 211.043 55.1803 217.837 53.1483C220.026 52.4587 222.329 52.2097 224.615 52.4155C226.183 52.6043 227.682 53.1713 228.983 54.0683C230.283 54.9652 231.346 56.1652 232.08 57.5643C232.991 59.3531 233.572 61.291 233.795 63.2859C233.795 63.3115 233.795 63.3371 233.795 63.3659C234.195 66.5659 233.968 69.9227 234.003 73.1003C234.064 79.7307 233.498 86.3483 232.765 92.9403" stroke="#E0CFFF" stroke-linejoin="round"/>
<path d="M189.19 113.391V113.382" stroke="#E0CFFF" stroke-linejoin="round"/>
<path d="M163.245 105.427C166.276 108.972 168.164 114.147 166.864 118.774C166.544 119.871 165.386 121.359 164.333 120.006C164.067 119.623 163.889 119.186 163.812 118.726C163.514 117.423 163.124 116.143 162.896 114.822" stroke="#E0CFFF" stroke-miterlimit="10"/>
<path d="M165.571 120.531C190.323 113.99 225.373 111.775 232.922 77.2667C233.91 72.6718 234.205 67.955 233.798 63.2731" stroke="#EFE6FF" stroke-miterlimit="10"/>
<path d="M189.12 114.95C188.63 123.206 186.045 132.23 184.618 136.71C184.506 137.057 184.471 137.425 184.515 137.787C184.559 138.149 184.682 138.498 184.874 138.808C185.066 139.118 185.323 139.383 185.627 139.584C185.931 139.786 186.276 139.919 186.637 139.974C187.805 140.156 189.283 140.374 190.982 140.614L191.184 140.643C191.254 140.643 191.322 140.668 191.402 140.675L191.574 140.703C191.725 140.719 191.872 140.745 192.019 140.764C192.403 140.825 192.803 140.876 193.213 140.937C193.395 140.937 193.587 140.982 193.789 141.017C203.709 142.425 218.486 144.265 226.848 144.083C227.066 144.083 227.283 144.083 227.488 144.063L228.128 144.038L228.749 144.003C231.034 143.836 232.589 143.446 233.034 142.758C235.914 138.403 230.57 113.372 233.13 89.4139" stroke="#E0CFFF" stroke-miterlimit="10"/>
<path d="M255.69 250.511H21.3765" stroke="#E0CFFF" stroke-linejoin="round"/>
<path d="M32.2337 177.139C32.2337 177.139 0.505616 214.351 32.2337 250.124" stroke="#EFE5FF" stroke-miterlimit="10"/>
</svg>
