<svg width="180" height="180" viewBox="0 0 180 180" fill="none" xmlns="http://www.w3.org/2000/svg">
<g clip-path="url(#clip0_15_248)">
<path d="M179.492 63.6104L152.492 27.0319L149.885 27.9961L151.823 27.0319L90.5769 1.31757H89.4L27.0231 27.0319L0 63.6104L20.0077 71.1318L19.9615 71.4211V153.45L62.7692 168.91V170.71L66.0692 170.132L88.8231 178.36H91.1769L160.062 153.45V71.4211V70.9068L179.492 63.6104Z" fill="white"/>
<path d="M150.718 27.6747L92.1254 48.9533H87.2792L27.0254 27.0319L89.4023 1.31757L150.718 27.6747Z" fill="#E2E2E2"/>
<path d="M90.255 1.86375C87.1396 13.178 79.6627 31.8209 66.0012 40.4351L55.1781 36.4815L29.1704 27.0316L80.7704 5.75302L90.255 1.86375Z" fill="white"/>
<path d="M160.337 70.0065V152.517L96.5989 175.596L89.6758 178.071L89.9989 165.856L107.676 160.006L142.522 148.049C145.544 147.024 148.23 144.611 150.147 141.2C152.065 137.789 153.102 133.578 153.091 129.246V73.5101L160.337 70.0065Z" fill="#E2E2E2"/>
<path d="M19.9131 70.0065V147.471C19.9131 150.364 20.4669 153.032 22.4746 153.899L82.7746 175.724L90.9669 179.357L89.3746 165.985L71.6977 160.135L36.9208 148.049C33.8944 147.03 31.2032 144.62 29.2811 141.208C27.3593 137.797 26.3192 133.582 26.3284 129.246V73.5101L19.9131 70.0065Z" fill="#E2E2E2"/>
<path d="M27.1185 65.8283C28.9289 68.3978 31.2278 70.1949 33.7458 71.009C36.2635 71.8232 38.8958 71.6204 41.3339 70.4247H41.4493C44.1031 69.0425 46.8955 66.0854 46.6416 62.164C46.4533 60.3669 45.845 58.7064 44.9108 57.439C43.4918 55.1571 41.5042 53.7097 39.3493 53.389C37.4817 53.4729 35.6323 53.9274 33.857 54.739C30.1497 55.8823 26.2836 55.4911 22.7338 53.614C21.8806 53.064 20.9813 52.6645 20.0569 52.4247C19.5922 52.3157 19.1151 52.3732 18.6709 52.5928C18.2267 52.812 17.83 53.1858 17.5184 53.6782C17.1831 54.5496 17.0943 55.5641 17.2694 56.5219C17.4446 57.4798 17.871 58.3116 18.4646 58.8532C19.7236 59.8696 21.0849 60.6172 22.5031 61.0711C23.9508 61.722 25.2435 62.9113 26.2416 64.5104L27.1185 65.8283Z" fill="white"/>
<path d="M34.0262 50.7163C34.1321 49.0182 32.0356 47.3782 29.3439 47.0526C26.6519 46.7274 24.3839 47.8401 24.2782 49.5379C24.1725 51.2357 26.2689 52.8756 28.9608 53.2012C31.6525 53.5265 33.9205 52.4141 34.0262 50.7163Z" fill="white"/>
<path d="M19.9171 125.903C20.6563 125.903 21.2555 125.068 21.2555 124.039C21.2555 123.009 20.6563 122.174 19.9171 122.174C19.1779 122.174 18.5786 123.009 18.5786 124.039C18.5786 125.068 19.1779 125.903 19.9171 125.903Z" fill="#E2E2E2"/>
<path d="M29.1723 109.382C29.7457 109.382 30.2107 108.489 30.2107 107.389C30.2107 106.288 29.7457 105.396 29.1723 105.396C28.5988 105.396 28.1338 106.288 28.1338 107.389C28.1338 108.489 28.5988 109.382 29.1723 109.382Z" fill="white"/>
<path d="M89.996 46.8961C89.8368 46.8961 89.6842 46.808 89.5716 46.6512C89.4592 46.4946 89.396 46.2819 89.396 46.0604V9.2889C89.396 9.06728 89.4592 8.85468 89.5716 8.69795C89.6842 8.54126 89.8368 8.45319 89.996 8.45319C90.155 8.45319 90.3078 8.54126 90.4201 8.69795C90.5328 8.85468 90.596 9.06728 90.596 9.2889V46.0604C90.596 46.2819 90.5328 46.4946 90.4201 46.6512C90.3078 46.808 90.155 46.8961 89.996 46.8961Z" fill="#E2E2E2"/>
<path d="M26.974 28.35C26.7499 28.3452 26.5343 28.2297 26.3656 28.0242C26.197 27.8187 26.0862 27.5365 26.053 27.2278C26.0197 26.9191 26.0661 26.604 26.1843 26.3386C26.3022 26.0732 26.4838 25.8748 26.697 25.7786L89.0047 0.0642917C89.2436 -0.0362763 89.5011 -0.00152231 89.7215 0.160996C89.9419 0.323514 90.1071 0.600656 90.1816 0.932148C90.2477 1.27299 90.2174 1.63603 90.0972 1.94681C89.977 2.2576 89.7762 2.49259 89.5355 2.60358L27.2278 28.3179L26.974 28.35Z" fill="#E2E2E2"/>
<path d="M151.78 28.3496C151.689 28.3809 151.594 28.3809 151.503 28.3496L90.2565 2.6032C90.0161 2.49221 89.8151 2.25722 89.6948 1.94643C89.5746 1.63564 89.5444 1.2726 89.6104 0.931767C89.6425 0.761811 89.6985 0.602482 89.7754 0.463156C89.8522 0.323826 89.9482 0.207311 90.0578 0.120461C90.1675 0.0336107 90.2886 -0.0218203 90.4139 -0.042572C90.539 -0.0633238 90.6661 -0.0489771 90.7873 -0.000375986L152.057 25.7139C152.27 25.8101 152.451 26.0085 152.57 26.274C152.687 26.5394 152.734 26.8545 152.701 27.1631C152.667 27.4718 152.557 27.754 152.388 27.9596C152.219 28.165 152.004 28.2805 151.78 28.2853V28.3496Z" fill="#E2E2E2"/>
<path d="M93.2337 49.7893H86.0568C85.8975 49.7893 85.745 49.7012 85.6324 49.5443C85.5198 49.3878 85.4565 49.175 85.4565 48.9536C85.4565 48.7318 85.5198 48.5193 85.6324 48.3625C85.745 48.2059 85.8975 48.1179 86.0568 48.1179H93.2337C93.3927 48.1179 93.5452 48.2059 93.6578 48.3625C93.7705 48.5193 93.8337 48.7318 93.8337 48.9536C93.8337 49.175 93.7705 49.3878 93.6578 49.5443C93.5452 49.7012 93.3927 49.7893 93.2337 49.7893Z" fill="#E2E2E2"/>
<path d="M91.2712 175.146C91.0464 175.138 90.8327 175.01 90.6739 174.789C90.5149 174.568 90.4231 174.27 90.4173 173.957V108.032C90.3968 107.857 90.4037 107.678 90.4376 107.508C90.4718 107.337 90.532 107.178 90.6144 107.043C90.6965 106.908 90.799 106.8 90.9144 106.726C91.0298 106.651 91.1555 106.613 91.2827 106.613C91.4098 106.613 91.5354 106.651 91.6508 106.726C91.7662 106.8 91.8686 106.908 91.951 107.043C92.0334 107.178 92.0936 107.337 92.1275 107.508C92.1617 107.678 92.1686 107.857 92.1481 108.032V173.957C92.1421 174.275 92.047 174.577 91.8832 174.8C91.7193 175.022 91.4998 175.146 91.2712 175.146Z" fill="#E2E2E2"/>
<path d="M91.2712 101.089C91.0464 101.081 90.8327 100.953 90.6739 100.731C90.5149 100.51 90.4231 100.212 90.4173 99.8994V96.4279C90.3968 96.2531 90.4037 96.0744 90.4376 95.9037C90.4718 95.733 90.532 95.5745 90.6144 95.4395C90.6965 95.3045 90.799 95.1962 90.9144 95.122C91.0298 95.0474 91.1555 95.0088 91.2827 95.0088C91.4098 95.0088 91.5354 95.0474 91.6508 95.122C91.7662 95.1962 91.8686 95.3045 91.951 95.4395C92.0334 95.5745 92.0936 95.733 92.1275 95.9037C92.1617 96.0744 92.1686 96.2531 92.1481 96.4279V100.028C92.1199 100.323 92.0152 100.594 91.8536 100.789C91.6923 100.985 91.4851 101.091 91.2712 101.089Z" fill="#E2E2E2"/>
<path d="M91.2684 87.3321C91.042 87.3321 90.8246 87.2068 90.6647 86.9837C90.5046 86.7606 90.4146 86.4582 90.4146 86.1428V61.9393C90.4482 61.6532 90.5537 61.3935 90.7122 61.2058C90.8708 61.0184 91.072 60.9152 91.2799 60.9152C91.4879 60.9152 91.6891 61.0184 91.8476 61.2058C92.0062 61.3935 92.1116 61.6532 92.1453 61.9393V86.1428C92.1453 86.3016 92.1225 86.4591 92.0782 86.6054C92.0339 86.752 91.9688 86.8844 91.8871 86.9953C91.8054 87.1062 91.7085 87.193 91.6023 87.2508C91.4959 87.3087 91.3824 87.3363 91.2684 87.3321Z" fill="#E2E2E2"/>
<path d="M88.7744 179.679H88.5436L22.3358 155.668C21.3721 155.325 20.5177 154.545 19.9076 153.451C19.2975 152.356 18.9664 151.01 18.9666 149.625V130.596C18.9635 130.421 18.9857 130.246 19.0319 130.082C19.078 129.919 19.1473 129.769 19.2354 129.644C19.3236 129.518 19.4289 129.418 19.5453 129.35C19.6616 129.281 19.7865 129.246 19.9127 129.246C20.1658 129.255 20.4064 129.401 20.5832 129.653C20.76 129.905 20.859 130.244 20.8589 130.596V149.625C20.86 150.425 21.0506 151.202 21.4011 151.835C21.7516 152.469 22.2424 152.923 22.7974 153.129L89.0282 177.075C89.2694 177.165 89.4752 177.385 89.6007 177.686C89.7261 177.987 89.7609 178.345 89.6974 178.682C89.6388 178.963 89.5181 179.21 89.3522 179.389C89.1863 179.568 88.9841 179.67 88.7744 179.679Z" fill="#E2E2E2"/>
<path d="M19.9125 118.929C19.6615 118.929 19.4209 118.79 19.2434 118.543C19.066 118.295 18.9663 117.96 18.9663 117.611V108.9C18.9663 108.55 19.066 108.215 19.2434 107.968C19.4209 107.721 19.6615 107.582 19.9125 107.582C20.1634 107.582 20.404 107.721 20.5815 107.968C20.7589 108.215 20.8586 108.55 20.8586 108.9V117.643C20.847 117.984 20.7429 118.307 20.5673 118.545C20.3917 118.784 20.1577 118.921 19.9125 118.929Z" fill="#E2E2E2"/>
<path d="M19.9125 100.317C19.6615 100.317 19.4209 100.178 19.2434 99.9312C19.066 99.684 18.9663 99.3491 18.9663 98.9994V71.4208C18.9663 71.0714 19.066 70.7361 19.2434 70.489C19.4209 70.2418 19.6615 70.1029 19.9125 70.1029C20.1616 70.1113 20.3988 70.2527 20.575 70.498C20.7512 70.7435 20.8528 71.074 20.8586 71.4208V98.9994C20.8586 99.3491 20.7589 99.684 20.5815 99.9312C20.404 100.178 20.1634 100.317 19.9125 100.317Z" fill="#E2E2E2"/>
<path d="M91.1281 179.678C90.9184 179.669 90.716 179.568 90.5503 179.389C90.3844 179.21 90.2635 178.962 90.2051 178.682C90.1485 178.341 90.1891 177.983 90.3184 177.683C90.4474 177.384 90.6551 177.166 90.8974 177.075L157.105 153.128C157.662 152.928 158.155 152.474 158.506 151.84C158.857 151.205 159.046 150.426 159.044 149.625V71.4211C159.079 71.1029 159.195 70.813 159.371 70.6034C159.546 70.3938 159.77 70.2788 160.001 70.2788C160.232 70.2788 160.456 70.3938 160.632 70.6034C160.807 70.813 160.923 71.1029 160.959 71.4211V149.625C160.959 151.01 160.628 152.356 160.018 153.45C159.408 154.545 158.553 155.325 157.59 155.668L91.3589 179.614L91.1281 179.678Z" fill="#E2E2E2"/>
<path d="M71.006 153.514H70.8675L54.206 147.857C54.1314 147.834 54.061 147.791 53.9987 147.73C53.9362 147.669 53.8831 147.592 53.8425 147.502C53.8017 147.412 53.774 147.312 53.7613 147.208C53.7484 147.103 53.7504 146.996 53.7675 146.893C53.7839 146.785 53.8155 146.683 53.8603 146.592C53.9053 146.501 53.9627 146.424 54.0292 146.364C54.0957 146.304 54.17 146.263 54.2477 146.244C54.3257 146.224 54.4056 146.226 54.4829 146.25L71.1444 151.81C71.2974 151.836 71.4368 151.945 71.5321 152.114C71.6272 152.283 71.6704 152.497 71.6521 152.71C71.6337 152.923 71.5554 153.118 71.4341 153.25C71.3129 153.383 71.159 153.443 71.006 153.418V153.514Z" fill="#E2E2E2"/>
<path d="M71.0064 147.857H70.868L54.2064 142.328C54.0543 142.275 53.9233 142.141 53.8413 141.955C53.7594 141.768 53.7331 141.545 53.768 141.332C53.7841 141.225 53.8157 141.124 53.861 141.034C53.9062 140.944 53.9641 140.869 54.031 140.812C54.0982 140.755 54.1727 140.717 54.2505 140.701C54.3283 140.686 54.4074 140.692 54.4833 140.721L71.1449 146.25C71.2822 146.304 71.4013 146.424 71.4806 146.59C71.56 146.755 71.5944 146.954 71.5778 147.152C71.561 147.349 71.4943 147.532 71.3897 147.667C71.285 147.802 71.149 147.881 71.0064 147.889V147.857Z" fill="#E2E2E2"/>
<path d="M71.0116 141.975H70.8731L54.2116 136.446C54.1255 136.436 54.0419 136.4 53.9669 136.34C53.8919 136.281 53.8269 136.2 53.7763 136.102C53.7258 136.005 53.6909 135.893 53.6743 135.775C53.6577 135.657 53.6596 135.535 53.6796 135.418C53.6997 135.301 53.7378 135.192 53.7911 135.097C53.8444 135.003 53.9118 134.925 53.9886 134.87C54.0652 134.815 54.1497 134.784 54.236 134.779C54.3223 134.773 54.4084 134.794 54.4885 134.839L71.15 140.368C71.2262 140.401 71.2968 140.454 71.3579 140.526C71.4191 140.597 71.4694 140.684 71.5059 140.783C71.5425 140.882 71.5645 140.99 71.5707 141.101C71.5769 141.212 71.5672 141.323 71.5423 141.428C71.5017 141.582 71.4299 141.715 71.3356 141.812C71.2414 141.909 71.1286 141.966 71.0116 141.975Z" fill="#E2E2E2"/>
<path d="M71.0097 112.339L54.3481 106.811V129.182L71.0097 134.711V112.339Z" fill="white"/>
<path opacity="0.2" d="M71.0069 115.199V134.485L60.4146 130.949C64.9591 127.227 68.6369 121.759 71.0069 115.199Z" fill="#C9D2DF"/>
<path d="M149.108 152.194C152.669 150.951 155.043 147.096 154.41 143.583C153.778 140.07 150.38 138.23 146.819 139.473C143.259 140.716 140.885 144.571 141.517 148.084C142.149 151.597 145.548 153.437 149.108 152.194Z" fill="#E2E2E2"/>
<path d="M154.813 133.609C155.114 132.14 154.126 130.46 152.606 129.856C151.087 129.252 149.611 129.953 149.31 131.421C149.009 132.889 149.997 134.569 151.517 135.173C153.037 135.777 154.512 135.076 154.813 133.609Z" fill="#E2E2E2"/>
<g opacity="0.4">
<path opacity="0.4" d="M140.865 142.039C141.541 142.039 142.088 141.276 142.088 140.335C142.088 139.395 141.541 138.632 140.865 138.632C140.19 138.632 139.642 139.395 139.642 140.335C139.642 141.276 140.19 142.039 140.865 142.039Z" fill="#E2E2E2"/>
<path opacity="0.4" d="M146.501 136.335C146.62 135.755 146.19 135.075 145.54 134.817C144.891 134.559 144.267 134.82 144.149 135.4C144.03 135.98 144.46 136.66 145.109 136.919C145.759 137.177 146.382 136.916 146.501 136.335Z" fill="#E2E2E2"/>
<path opacity="0.4" d="M136.665 144.418C136.933 144.418 137.15 144.116 137.15 143.743C137.15 143.37 136.933 143.068 136.665 143.068C136.398 143.068 136.181 143.37 136.181 143.743C136.181 144.116 136.398 144.418 136.665 144.418Z" fill="#E2E2E2"/>
</g>
<path d="M122.193 156.76C123.518 156.76 124.593 155.609 124.593 154.189C124.593 152.769 123.518 151.618 122.193 151.618C120.867 151.618 119.793 152.769 119.793 154.189C119.793 155.609 120.867 156.76 122.193 156.76Z" fill="#E2E2E2"/>
<path d="M123.76 149.239C124.219 149.239 124.591 148.721 124.591 148.082C124.591 147.443 124.219 146.925 123.76 146.925C123.302 146.925 122.93 147.443 122.93 148.082C122.93 148.721 123.302 149.239 123.76 149.239Z" fill="#E2E2E2"/>
<path d="M116.61 155.829C117.248 155.829 117.764 155.109 117.764 154.221C117.764 153.334 117.248 152.614 116.61 152.614C115.973 152.614 115.457 153.334 115.457 154.221C115.457 155.109 115.973 155.829 116.61 155.829Z" fill="#E2E2E2"/>
<path opacity="0.45" d="M118.429 149.881C118.786 149.881 119.075 149.479 119.075 148.981C119.075 148.485 118.786 148.081 118.429 148.081C118.072 148.081 117.783 148.485 117.783 148.981C117.783 149.479 118.072 149.881 118.429 149.881Z" fill="#E2E2E2"/>
<path d="M61.8431 90C61.3359 90.001 60.8312 89.9036 60.3431 89.7107L23.074 75.5036C22.9736 75.4663 22.8796 75.4017 22.7973 75.3136C22.715 75.2252 22.6461 75.1153 22.5946 74.9896C22.5431 74.8642 22.51 74.7257 22.4972 74.582C22.4844 74.4384 22.4922 74.2927 22.5201 74.1536C22.5468 74.0137 22.5932 73.8829 22.6565 73.7682C22.7199 73.6537 22.7989 73.5576 22.889 73.486C22.9792 73.414 23.0788 73.368 23.1817 73.3503C23.2848 73.3323 23.3894 73.3432 23.4893 73.3821L60.7124 87.4607C61.41 87.7429 62.1503 87.7445 62.8486 87.4659C63.5467 87.1872 64.1741 86.6395 64.6585 85.8857L86.3278 51.975C86.4757 51.795 86.6654 51.696 86.8618 51.697C87.0581 51.6976 87.2476 51.7982 87.3946 51.9792C87.5416 52.1605 87.6362 52.4102 87.6607 52.6815C87.6854 52.9528 87.6381 53.2273 87.5278 53.4536L65.8355 87.3321C65.3423 88.1431 64.7317 88.7998 64.0438 89.2594C63.3558 89.7191 62.6058 89.9714 61.8431 90Z" fill="#E2E2E2"/>
<path d="M117.689 90.3536C117.021 90.3465 116.362 90.1286 115.763 89.7168C115.163 89.3047 114.639 88.7095 114.228 87.975L92.4201 52.9714C92.2824 52.7496 92.2136 52.461 92.2286 52.1685C92.2438 51.8763 92.3417 51.6041 92.5009 51.4125C92.6599 51.2206 92.8674 51.1248 93.0771 51.1457C93.2871 51.1669 93.4824 51.3032 93.6201 51.525L115.382 86.5286C115.762 87.2418 116.299 87.7625 116.911 88.012C117.524 88.2614 118.177 88.2257 118.774 87.9107L155.974 73.9286C156.176 73.8517 156.391 73.89 156.573 74.0346C156.755 74.1793 156.888 74.4187 156.943 74.7C156.998 74.9812 156.971 75.2815 156.867 75.5347C156.763 75.7877 156.591 75.9732 156.389 76.05L119.189 90C118.704 90.2144 118.199 90.3336 117.689 90.3536Z" fill="#E2E2E2"/>
<path d="M3.74143 62.2601C3.43709 62.254 3.14678 62.0807 2.93374 61.7779C2.82696 61.6342 2.74206 61.4616 2.68407 61.2714C2.62608 61.0807 2.59619 60.876 2.59619 60.669C2.59619 60.462 2.62608 60.2572 2.68407 60.0666C2.74206 59.8764 2.82696 59.7041 2.93374 59.5601L24.3492 30.278C25.0542 29.3145 25.9265 28.6216 26.8807 28.2668C27.8352 27.9119 28.8393 27.9072 29.7953 28.253L81.6953 47.5386C81.8391 47.5936 81.9741 47.6875 82.092 47.8147C82.2097 47.9424 82.3085 48.1008 82.3826 48.2815C82.4564 48.4618 82.5042 48.6611 82.5229 48.8671C82.5416 49.0735 82.5307 49.2827 82.4915 49.4833C82.452 49.6839 82.3846 49.8716 82.2933 50.0358C82.2016 50.2001 82.0879 50.3376 81.9582 50.4405C81.8285 50.5434 81.6856 50.6099 81.5375 50.6359C81.3896 50.662 81.2391 50.6472 81.0953 50.5922L29.1953 31.3065C28.6256 31.0936 28.0256 31.0913 27.4551 31.2998C26.8844 31.5084 26.3626 31.9206 25.9415 32.4958L4.61835 61.8101C4.50121 61.9631 4.36326 62.0817 4.21264 62.1588C4.06201 62.2363 3.90177 62.2707 3.74143 62.2601Z" fill="white"/>
<path d="M97.8217 50.3994C97.6458 50.399 97.4753 50.3164 97.3371 50.165C97.1991 50.0136 97.1015 49.8018 97.0601 49.5636C97.0322 49.4245 97.0244 49.2789 97.0373 49.1352C97.05 48.9918 97.083 48.8533 97.1347 48.7276C97.1862 48.6019 97.2552 48.492 97.3373 48.4036C97.4197 48.3155 97.5136 48.2509 97.614 48.2136L149.514 28.928C149.614 28.8891 149.719 28.8783 149.822 28.8961C149.925 28.9139 150.024 28.96 150.114 29.0317C150.204 29.1035 150.283 29.1995 150.347 29.3141C150.41 29.4287 150.456 29.5597 150.483 29.6994C150.511 29.8409 150.518 29.9887 150.504 30.1339C150.489 30.2791 150.454 30.4189 150.4 30.5448C150.346 30.6708 150.275 30.7803 150.19 30.867C150.105 30.9538 150.009 31.0158 149.906 31.0494L98.0294 50.3351L97.8217 50.3994Z" fill="white"/>
<path d="M62.3113 88.2961C62.1273 88.3273 61.9413 88.3273 61.7574 88.2961L1.6189 65.7961C1.26087 65.6624 0.934632 65.3991 0.673346 65.0327C0.412062 64.6666 0.225037 64.2105 0.131274 63.711C0.0375121 63.2115 0.0403538 62.6863 0.139511 62.1887C0.238669 61.6911 0.430606 61.2389 0.695827 60.8782L26.3113 26.0997C26.4267 25.9366 26.5693 25.816 26.7262 25.7487C26.8833 25.6814 27.05 25.6695 27.2113 25.714L87.5113 47.6354C87.667 47.6977 87.8097 47.8125 87.9262 47.9694C88.043 48.1262 88.1302 48.3207 88.1805 48.5354C88.2264 48.7546 88.2338 48.986 88.2015 49.2101C88.1694 49.4338 88.0988 49.6437 87.9959 49.8211L75.6267 69.1068C75.4582 69.371 75.2214 69.5314 74.9683 69.5526C74.7151 69.5735 74.4663 69.454 74.2767 69.2193C74.087 68.985 73.9718 68.6552 73.9566 68.3026C73.9414 67.95 74.0274 67.6032 74.1959 67.339L85.5497 49.6925L27.2574 28.5105L2.05737 62.5818V63.064L62.1959 85.564L69.119 74.9247C69.2872 74.6646 69.5228 74.5084 69.7739 74.4904C70.0247 74.4724 70.2707 74.5939 70.4574 74.8282C70.6441 75.0629 70.7563 75.3907 70.7692 75.7405C70.7821 76.0902 70.6949 76.4325 70.5267 76.6925L63.9267 87.3318C63.7233 87.6455 63.4737 87.8943 63.1949 88.0608C62.9159 88.2273 62.6145 88.3074 62.3113 88.2961Z" fill="#E2E2E2"/>
<path d="M23.7826 42.4295C24.4966 40.8954 24.3473 38.9938 23.4489 38.1828C22.5505 37.3719 21.2434 37.9581 20.5294 39.4926C19.8154 41.0268 19.9648 42.9281 20.8632 43.7394C21.7616 44.5503 23.0687 43.964 23.7826 42.4295Z" fill="white"/>
<path d="M25.0859 38.8925C25.3793 38.8925 25.6167 38.5615 25.6167 38.1533C25.6167 37.745 25.3793 37.414 25.0859 37.414C24.7929 37.414 24.5552 37.745 24.5552 38.1533C24.5552 38.5615 24.7929 38.8925 25.0859 38.8925Z" fill="white"/>
<path d="M21.2312 46.9922C21.6008 46.9922 21.9005 46.575 21.9005 46.0601C21.9005 45.5451 21.6008 45.1279 21.2312 45.1279C20.8616 45.1279 20.562 45.5451 20.562 46.0601C20.562 46.575 20.8616 46.9922 21.2312 46.9922Z" fill="white"/>
<path d="M11.9812 56.3464C12.644 56.3464 13.1812 55.5981 13.1812 54.675C13.1812 53.7518 12.644 53.0036 11.9812 53.0036C11.3185 53.0036 10.7812 53.7518 10.7812 54.675C10.7812 55.5981 11.3185 56.3464 11.9812 56.3464Z" fill="white"/>
<path d="M89.996 174.76C89.8407 174.76 89.6916 174.677 89.5797 174.527C89.4678 174.377 89.402 174.173 89.396 173.957V108.032C89.396 107.81 89.4592 107.598 89.5716 107.441C89.6842 107.284 89.8368 107.196 89.996 107.196C90.155 107.196 90.3078 107.284 90.4201 107.441C90.5328 107.598 90.596 107.81 90.596 108.032V173.957C90.59 174.173 90.5242 174.377 90.4123 174.527C90.3004 174.677 90.1511 174.76 89.996 174.76Z" fill="#E2E2E2"/>
<path d="M89.996 100.704C89.8407 100.704 89.6916 100.62 89.5797 100.47C89.4678 100.32 89.402 100.116 89.396 99.9V96.4286C89.396 96.2068 89.4592 95.9943 89.5716 95.8374C89.6842 95.6809 89.8368 95.5928 89.996 95.5928C90.155 95.5928 90.3078 95.6809 90.4201 95.8374C90.5328 95.9943 90.596 96.2068 90.596 96.4286V100.029C90.5688 100.221 90.4938 100.395 90.3842 100.518C90.2743 100.642 90.137 100.707 89.996 100.704Z" fill="#E2E2E2"/>
<path d="M89.996 86.9779C89.9171 86.9779 89.8391 86.9561 89.7664 86.9143C89.6935 86.8722 89.6275 86.8108 89.5716 86.733C89.516 86.6555 89.4717 86.5633 89.4417 86.462C89.4115 86.3605 89.396 86.2518 89.396 86.1422V61.9386C89.396 61.7168 89.4592 61.5044 89.5716 61.3475C89.6842 61.191 89.8368 61.1029 89.996 61.1029C90.155 61.1029 90.3078 61.191 90.4201 61.3475C90.5328 61.5044 90.596 61.7168 90.596 61.9386V86.1422C90.596 86.3637 90.5328 86.5765 90.4201 86.733C90.3078 86.8899 90.155 86.9779 89.996 86.9779Z" fill="#E2E2E2"/>
<path d="M71.0057 135.514H70.8672L54.2057 129.986C54.0753 129.943 53.9592 129.84 53.8754 129.694C53.7919 129.549 53.7455 129.369 53.7441 129.182V120.214C53.7441 119.993 53.8074 119.78 53.9198 119.623C54.0324 119.466 54.1849 119.379 54.3441 119.379C54.5031 119.379 54.6559 119.466 54.7683 119.623C54.8809 119.78 54.9441 119.993 54.9441 120.214V128.571L70.4057 133.714V113.014L54.9441 107.871V112.886C54.9441 113.107 54.8809 113.32 54.7683 113.476C54.6559 113.633 54.5031 113.721 54.3441 113.721C54.1849 113.721 54.0324 113.633 53.9198 113.476C53.8074 113.32 53.7441 113.107 53.7441 112.886V106.811C53.7458 106.686 53.7674 106.564 53.8074 106.453C53.8473 106.342 53.9045 106.244 53.9749 106.168C54.0469 106.093 54.1291 106.041 54.2165 106.013C54.304 105.985 54.3944 105.983 54.4826 106.007L71.1441 111.568C71.281 111.627 71.3968 111.756 71.4695 111.928C71.542 112.1 71.5658 112.304 71.5364 112.5V134.839C71.5346 134.963 71.5131 135.086 71.4732 135.197C71.4333 135.308 71.3761 135.406 71.3057 135.482C71.2085 135.523 71.1061 135.534 71.0057 135.514Z" fill="#E2E2E2"/>
<path d="M29.1669 103.178C29.0079 103.178 28.8551 103.09 28.7427 102.934C28.6301 102.777 28.5669 102.564 28.5669 102.343V93.7604C28.5669 93.5389 28.6301 93.3261 28.7427 93.1696C28.8551 93.0127 29.0079 92.9247 29.1669 92.9247C29.3261 92.9247 29.4787 93.0127 29.5913 93.1696C29.7037 93.3261 29.7669 93.5389 29.7669 93.7604V102.343C29.7669 102.564 29.7037 102.777 29.5913 102.934C29.4787 103.09 29.3261 103.178 29.1669 103.178Z" fill="white"/>
<path d="M117.535 88.6175C117.208 88.6172 116.884 88.5195 116.586 88.3308C116.287 88.1424 116.021 87.8676 115.805 87.5247L91.7354 50.0461C91.6011 49.8413 91.5072 49.5916 91.4626 49.3213C91.4183 49.051 91.4248 48.7691 91.4816 48.5032C91.5425 48.2348 91.6503 47.9915 91.7952 47.7951C91.9403 47.5987 92.118 47.4557 92.3123 47.3782L152.612 25.4569C152.807 25.3922 153.011 25.3965 153.204 25.4695C153.398 25.5425 153.575 25.6818 153.72 25.8748L179.289 60.4604C179.594 60.866 179.813 61.38 179.923 61.9467C180.033 62.513 180.029 63.1109 179.912 63.6747C179.808 64.2227 179.601 64.7222 179.314 65.123C179.026 65.5238 178.667 65.8115 178.274 65.9568L118.135 88.4568C117.943 88.5555 117.74 88.6098 117.535 88.6175ZM94.7354 49.8532L117.535 85.2104L177.674 62.7104L152.566 28.9284L94.7354 49.8532Z" fill="#E2E2E2"/>
<path d="M72.3448 74.0568C73.0842 74.0568 73.6833 73.2221 73.6833 72.1925C73.6833 71.163 73.0842 70.3282 72.3448 70.3282C71.6057 70.3282 71.0063 71.163 71.0063 72.1925C71.0063 73.2221 71.6057 74.0568 72.3448 74.0568Z" fill="#E2E2E2"/>
<path d="M66.2551 65.1536C66.1769 65.1263 66.1054 65.0706 66.0474 64.9929C65.9835 64.9295 65.9295 64.8485 65.8887 64.755C65.848 64.6615 65.8215 64.5573 65.8107 64.449C65.7998 64.3407 65.8051 64.2304 65.8259 64.125C65.8467 64.0196 65.8829 63.9212 65.9321 63.8357L71.1244 54.6429C71.2222 54.4638 71.3671 54.3465 71.5273 54.3163C71.6874 54.2861 71.8497 54.3459 71.9782 54.4821C72.1067 54.6184 72.191 54.8206 72.2127 55.0433C72.2344 55.2664 72.1914 55.4924 72.0936 55.6714L66.9244 64.8321C66.8542 64.9816 66.7504 65.0944 66.6292 65.1526C66.508 65.2108 66.3765 65.2111 66.2551 65.1536Z" fill="#E2E2E2"/>
<path d="M71.543 61.6497C71.4675 61.6799 71.3876 61.6799 71.3122 61.6497C71.1931 61.5115 71.1151 61.316 71.0939 61.1023C71.0724 60.8882 71.1091 60.6709 71.1968 60.4925L73.8506 55.3497C73.9065 55.2709 73.973 55.2086 74.0461 55.1658C74.1195 55.1231 74.1982 55.1012 74.2776 55.1012C74.357 55.1012 74.4356 55.1231 74.509 55.1658C74.5822 55.2086 74.6486 55.2709 74.7045 55.3497C74.8254 55.4934 74.9039 55.6942 74.9253 55.9135C74.9466 56.133 74.909 56.3557 74.8199 56.539L72.0276 61.489C71.9613 61.5664 71.8831 61.6214 71.7989 61.6494C71.7149 61.6773 71.6272 61.6773 71.543 61.6497Z" fill="#E2E2E2"/>
</g>
<defs>
<clipPath id="clip0_15_248">
<rect width="180" height="180" fill="white"/>
</clipPath>
</defs>
</svg>
