<svg width="16" height="16" viewBox="0 0 16 16" fill="none" xmlns="http://www.w3.org/2000/svg">
<path d="M13.3327 5.33334H11.3327V2.66667H1.99935C1.26602 2.66667 0.666016 3.26667 0.666016 4.00001V11.3333H1.99935C1.99935 12.44 2.89268 13.3333 3.99935 13.3333C5.10602 13.3333 5.99935 12.44 5.99935 11.3333H9.99935C9.99935 12.44 10.8927 13.3333 11.9993 13.3333C13.106 13.3333 13.9993 12.44 13.9993 11.3333H15.3327V8L13.3327 5.33334ZM12.9993 6.33334L14.306 8H11.3327V6.33334H12.9993ZM3.99935 12C3.63268 12 3.33268 11.7 3.33268 11.3333C3.33268 10.9667 3.63268 10.6667 3.99935 10.6667C4.36602 10.6667 4.66602 10.9667 4.66602 11.3333C4.66602 11.7 4.36602 12 3.99935 12ZM5.47935 10C5.11268 9.59334 4.59268 9.33334 3.99935 9.33334C3.40602 9.33334 2.88602 9.59334 2.51935 10H1.99935V4.00001H9.99935V10H5.47935ZM11.9993 12C11.6327 12 11.3327 11.7 11.3327 11.3333C11.3327 10.9667 11.6327 10.6667 11.9993 10.6667C12.366 10.6667 12.666 10.9667 12.666 11.3333C12.666 11.7 12.366 12 11.9993 12Z" fill="#3E236E"/>
</svg>
