<svg width="11" height="14" viewBox="0 0 11 14" fill="none" xmlns="http://www.w3.org/2000/svg">
<path fill-rule="evenodd" clip-rule="evenodd" d="M0 5.07025C0 2.27451 2.27451 0 5.07028 0C7.86601 0 10.1405 2.27451 10.1406 5.07025C10.1406 8.53985 5.60315 13.6334 5.40997 13.8486C5.22884 14.0503 4.91204 14.0507 4.73058 13.8486C4.5374 13.6334 0 8.53985 0 5.07025ZM2.51932 5.07025C2.51932 6.47687 3.66366 7.62123 5.07028 7.62123C6.47687 7.62123 7.6212 6.47689 7.6212 5.07028C7.6212 3.66366 6.47687 2.51929 5.07028 2.51929C3.66368 2.51929 2.51932 3.66363 2.51932 5.07025Z" fill="#F7F8FB"/>
</svg>
