<svg width="8" height="8" viewBox="0 0 8 8" fill="none" xmlns="http://www.w3.org/2000/svg">
<path fill-rule="evenodd" clip-rule="evenodd" d="M4.00008 0.666667C3.29284 0.666667 2.61456 0.947618 2.11446 1.44772C1.61437 1.94781 1.33341 2.62609 1.33341 3.33333C1.33341 4.36602 2.00533 5.36808 2.74207 6.14575C3.10362 6.52739 3.4663 6.83982 3.73897 7.05695C3.84045 7.13776 3.92909 7.20506 4.00008 7.25753C4.07107 7.20506 4.15971 7.13776 4.26119 7.05695C4.53386 6.83982 4.89654 6.52739 5.2581 6.14575C5.99484 5.36808 6.66675 4.36602 6.66675 3.33333C6.66675 2.62609 6.3858 1.94781 5.8857 1.44772C5.3856 0.947618 4.70733 0.666667 4.00008 0.666667ZM4.00008 7.66667C3.81518 7.94402 3.8151 7.94396 3.815 7.9439L3.81405 7.94326L3.81183 7.94177L3.80419 7.9366C3.7977 7.93219 3.78844 7.92586 3.7766 7.91766C3.75292 7.90127 3.7189 7.87737 3.67601 7.8464C3.59026 7.78447 3.46887 7.69407 3.32369 7.57847C3.03386 7.34768 2.64654 7.01428 2.2581 6.60425C1.49484 5.79858 0.666748 4.63398 0.666748 3.33333C0.666748 2.44928 1.01794 1.60143 1.64306 0.976311C2.26818 0.351189 3.11603 0 4.00008 0C4.88414 0 5.73198 0.351189 6.3571 0.976311C6.98222 1.60143 7.33342 2.44928 7.33342 3.33333C7.33342 4.63398 6.50533 5.79858 5.74207 6.60425C5.35362 7.01428 4.9663 7.34768 4.67647 7.57847C4.53129 7.69407 4.4099 7.78447 4.32415 7.8464C4.28126 7.87737 4.24724 7.90127 4.22356 7.91766C4.21172 7.92586 4.20247 7.93219 4.19598 7.9366L4.18834 7.94177L4.18611 7.94326L4.18541 7.94373C4.18531 7.94379 4.18498 7.94402 4.00008 7.66667ZM4.00008 7.66667L4.18498 7.94402C4.07301 8.01866 3.92697 8.01854 3.815 7.9439L4.00008 7.66667Z" fill="#F7F8FB"/>
<path fill-rule="evenodd" clip-rule="evenodd" d="M4.00008 2.66667C3.63189 2.66667 3.33341 2.96514 3.33341 3.33333C3.33341 3.70152 3.63189 4 4.00008 4C4.36827 4 4.66675 3.70152 4.66675 3.33333C4.66675 2.96514 4.36827 2.66667 4.00008 2.66667ZM2.66675 3.33333C2.66675 2.59695 3.2637 2 4.00008 2C4.73646 2 5.33341 2.59695 5.33341 3.33333C5.33341 4.06971 4.73646 4.66667 4.00008 4.66667C3.2637 4.66667 2.66675 4.06971 2.66675 3.33333Z" fill="#F7F8FB"/>
</svg>
