<svg width="8" height="8" viewBox="0 0 8 8" fill="none" xmlns="http://www.w3.org/2000/svg">
<path fill-rule="evenodd" clip-rule="evenodd" d="M3.99984 0.666667C3.29259 0.666667 2.61432 0.947618 2.11422 1.44772C1.61412 1.94781 1.33317 2.62609 1.33317 3.33333C1.33317 4.36602 2.00508 5.36808 2.74182 6.14575C3.10337 6.52739 3.46606 6.83982 3.73873 7.05695C3.84021 7.13776 3.92884 7.20506 3.99984 7.25753C4.07083 7.20506 4.15947 7.13776 4.26095 7.05695C4.53361 6.83982 4.8963 6.52739 5.25785 6.14575C5.99459 5.36808 6.6665 4.36602 6.6665 3.33333C6.6665 2.62609 6.38555 1.94781 5.88546 1.44772C5.38536 0.947618 4.70708 0.666667 3.99984 0.666667ZM3.99984 7.66667C3.81494 7.94402 3.81485 7.94396 3.81476 7.9439L3.8138 7.94326L3.81158 7.94177L3.80394 7.9366C3.79745 7.93219 3.7882 7.92586 3.77636 7.91766C3.75268 7.90127 3.71866 7.87737 3.67577 7.8464C3.59002 7.78447 3.46862 7.69407 3.32345 7.57847C3.03361 7.34768 2.6463 7.01428 2.25785 6.60425C1.49459 5.79858 0.666504 4.63398 0.666504 3.33333C0.666504 2.44928 1.01769 1.60143 1.64281 0.976311C2.26794 0.351189 3.11578 0 3.99984 0C4.88389 0 5.73174 0.351189 6.35686 0.976311C6.98198 1.60143 7.33317 2.44928 7.33317 3.33333C7.33317 4.63398 6.50508 5.79858 5.74182 6.60425C5.35337 7.01428 4.96606 7.34768 4.67623 7.57847C4.53105 7.69407 4.40966 7.78447 4.32391 7.8464C4.28102 7.87737 4.24699 7.90127 4.22332 7.91766C4.21148 7.92586 4.20222 7.93219 4.19573 7.9366L4.18809 7.94177L4.18587 7.94326L4.18517 7.94373C4.18507 7.94379 4.18474 7.94402 3.99984 7.66667ZM3.99984 7.66667L4.18474 7.94402C4.07277 8.01866 3.92672 8.01854 3.81476 7.9439L3.99984 7.66667Z" fill="white"/>
<path fill-rule="evenodd" clip-rule="evenodd" d="M3.99984 2.66667C3.63165 2.66667 3.33317 2.96514 3.33317 3.33333C3.33317 3.70152 3.63165 4 3.99984 4C4.36803 4 4.6665 3.70152 4.6665 3.33333C4.6665 2.96514 4.36803 2.66667 3.99984 2.66667ZM2.6665 3.33333C2.6665 2.59695 3.26346 2 3.99984 2C4.73622 2 5.33317 2.59695 5.33317 3.33333C5.33317 4.06971 4.73622 4.66667 3.99984 4.66667C3.26346 4.66667 2.6665 4.06971 2.6665 3.33333Z" fill="white"/>
</svg>
