<svg width="8" height="8" viewBox="0 0 8 8" fill="none" xmlns="http://www.w3.org/2000/svg">
<path fill-rule="evenodd" clip-rule="evenodd" d="M4.00033 0.666667C3.29308 0.666667 2.6148 0.947618 2.11471 1.44772C1.61461 1.94781 1.33366 2.62609 1.33366 3.33333C1.33366 4.36602 2.00557 5.36808 2.74231 6.14575C3.10386 6.52739 3.46655 6.83982 3.73922 7.05695C3.8407 7.13776 3.92933 7.20506 4.00033 7.25753C4.07132 7.20506 4.15995 7.13776 4.26143 7.05695C4.5341 6.83982 4.89679 6.52739 5.25834 6.14575C5.99508 5.36808 6.66699 4.36602 6.66699 3.33333C6.66699 2.62609 6.38604 1.94781 5.88594 1.44772C5.38585 0.947618 4.70757 0.666667 4.00033 0.666667ZM4.00033 7.66667C3.81543 7.94402 3.81534 7.94396 3.81525 7.9439L3.81429 7.94326L3.81207 7.94177L3.80443 7.9366C3.79794 7.93219 3.78868 7.92586 3.77684 7.91766C3.75317 7.90127 3.71915 7.87737 3.67626 7.8464C3.59051 7.78447 3.46911 7.69407 3.32393 7.57847C3.0341 7.34768 2.64679 7.01428 2.25834 6.60425C1.49508 5.79858 0.666992 4.63398 0.666992 3.33333C0.666992 2.44928 1.01818 1.60143 1.6433 0.976311C2.26842 0.351189 3.11627 0 4.00033 0C4.88438 0 5.73223 0.351189 6.35735 0.976311C6.98247 1.60143 7.33366 2.44928 7.33366 3.33333C7.33366 4.63398 6.50557 5.79858 5.74231 6.60425C5.35386 7.01428 4.96655 7.34768 4.67672 7.57847C4.53154 7.69407 4.41014 7.78447 4.3244 7.8464C4.2815 7.87737 4.24748 7.90127 4.22381 7.91766C4.21197 7.92586 4.20271 7.93219 4.19622 7.9366L4.18858 7.94177L4.18636 7.94326L4.18566 7.94373C4.18556 7.94379 4.18523 7.94402 4.00033 7.66667ZM4.00033 7.66667L4.18523 7.94402C4.07326 8.01866 3.92721 8.01854 3.81525 7.9439L4.00033 7.66667Z" fill="black"/>
<path fill-rule="evenodd" clip-rule="evenodd" d="M4.00033 2.66667C3.63214 2.66667 3.33366 2.96514 3.33366 3.33333C3.33366 3.70152 3.63214 4 4.00033 4C4.36852 4 4.66699 3.70152 4.66699 3.33333C4.66699 2.96514 4.36852 2.66667 4.00033 2.66667ZM2.66699 3.33333C2.66699 2.59695 3.26395 2 4.00033 2C4.73671 2 5.33366 2.59695 5.33366 3.33333C5.33366 4.06971 4.73671 4.66667 4.00033 4.66667C3.26395 4.66667 2.66699 4.06971 2.66699 3.33333Z" fill="black"/>
</svg>
