<svg width="16" height="16" viewBox="0 0 16 16" fill="none" xmlns="http://www.w3.org/2000/svg">
<path fill-rule="evenodd" clip-rule="evenodd" d="M1.33203 4C1.33203 3.63181 1.63051 3.33334 1.9987 3.33334H13.9987C14.3669 3.33334 14.6654 3.63181 14.6654 4C14.6654 4.36819 14.3669 4.66667 13.9987 4.66667H1.9987C1.63051 4.66667 1.33203 4.36819 1.33203 4Z" fill="#3E236E"/>
<path fill-rule="evenodd" clip-rule="evenodd" d="M6.66536 2.00001C6.48855 2.00001 6.31898 2.07024 6.19396 2.19527C6.06894 2.32029 5.9987 2.48986 5.9987 2.66667V3.33334H9.9987V2.66667C9.9987 2.48986 9.92846 2.32029 9.80344 2.19527C9.67841 2.07024 9.50884 2.00001 9.33203 2.00001H6.66536ZM11.332 3.33334V2.66667C11.332 2.13624 11.1213 1.62753 10.7462 1.25246C10.3712 0.877385 9.86246 0.666672 9.33203 0.666672H6.66536C6.13493 0.666672 5.62622 0.877385 5.25115 1.25246C4.87608 1.62753 4.66536 2.13624 4.66536 2.66667V3.33334H3.33203C2.96384 3.33334 2.66536 3.63182 2.66536 4V13.3333C2.66536 13.8638 2.87608 14.3725 3.25115 14.7476C3.62622 15.1226 4.13493 15.3333 4.66536 15.3333H11.332C11.8625 15.3333 12.3712 15.1226 12.7462 14.7476C13.1213 14.3725 13.332 13.8638 13.332 13.3333V4C13.332 3.63182 13.0336 3.33334 12.6654 3.33334H11.332ZM3.9987 4.66667V13.3333C3.9987 13.5101 4.06894 13.6797 4.19396 13.8047C4.31898 13.9298 4.48855 14 4.66536 14H11.332C11.5088 14 11.6784 13.9298 11.8034 13.8047C11.9285 13.6797 11.9987 13.5101 11.9987 13.3333V4.66667H3.9987Z" fill="#3E236E"/>
<path fill-rule="evenodd" clip-rule="evenodd" d="M6.66536 6.66667C7.03355 6.66667 7.33203 6.96515 7.33203 7.33334V11.3333C7.33203 11.7015 7.03355 12 6.66536 12C6.29717 12 5.9987 11.7015 5.9987 11.3333V7.33334C5.9987 6.96515 6.29717 6.66667 6.66536 6.66667Z" fill="#3E236E"/>
<path fill-rule="evenodd" clip-rule="evenodd" d="M9.33203 6.66667C9.70022 6.66667 9.9987 6.96515 9.9987 7.33334V11.3333C9.9987 11.7015 9.70022 12 9.33203 12C8.96384 12 8.66536 11.7015 8.66536 11.3333V7.33334C8.66536 6.96515 8.96384 6.66667 9.33203 6.66667Z" fill="#3E236E"/>
</svg>
