<svg width="196" height="193" viewBox="0 0 196 193" fill="none" xmlns="http://www.w3.org/2000/svg">
<g clip-path="url(#clip0_109_0)">
<path d="M175.121 32.1344C185.715 44.6681 189.989 61.4698 190.134 78.4108C190.32 95.3026 186.37 112.427 175.776 135.151C165.182 157.876 147.852 186.214 124.805 191.891C101.759 197.568 72.9418 180.6 51.0664 157.876C29.1282 135.151 14.0741 106.689 19.3806 83.4133C24.6215 60.1372 50.1301 42.0958 72.0629 29.5184C93.9929 16.9847 112.254 9.96144 129.91 10.6059C147.521 11.2476 164.527 19.6034 175.121 32.1344Z" fill="#F0E9FE"/>
<path d="M68.5226 85.2029L65.2192 85.8333L77.2233 148.784L80.5267 148.153L68.5226 85.2029Z" fill="#DFDFDF"/>
<path d="M66.164 81.3735C64.5781 81.3735 54.0252 79.9699 53.5257 79.9699C53.0262 79.9699 51.806 80.2867 51.806 81.1032C51.806 83.8666 60.6829 86.3133 69.6989 86.3133C78.715 86.3133 66.164 81.3735 66.164 81.3735Z" fill="black"/>
<path d="M36.6046 180.581C55.6148 180.581 71.0256 165.165 71.0256 146.147C71.0256 127.13 55.6148 111.714 36.6046 111.714C17.5945 111.714 2.18372 127.13 2.18372 146.147C2.18372 165.165 17.5945 180.581 36.6046 180.581Z" stroke="#FD69E5" stroke-width="16" stroke-linecap="round" stroke-linejoin="round"/>
<path d="M159.395 180.581C178.405 180.581 193.816 165.165 193.816 146.147C193.816 127.13 178.405 111.714 159.395 111.714C140.385 111.714 124.974 127.13 124.974 146.147C124.974 165.165 140.385 180.581 159.395 180.581Z" stroke="#FD69E5" stroke-width="16" stroke-linecap="round" stroke-linejoin="round"/>
<path d="M136.973 80.0074L114.927 87.8344L115.709 90.0372L137.755 82.2102L136.973 80.0074Z" fill="black"/>
<path d="M159.933 142.044L128.664 84.9092L126.013 86.3608L157.282 143.496L159.933 142.044Z" fill="#DFDFDF"/>
<path d="M142.267 111.015H69.164V113.096H142.267V111.015Z" fill="#DFDFDF"/>
<path d="M139.239 109.577L80.4512 154.589L83.479 158.547L142.267 113.535L139.239 109.577Z" fill="#DFDFDF"/>
<path d="M38.6601 142.767C44.1358 142.767 80.028 145.061 80.028 145.061C78.5485 149.503 73.4413 162.829 73.4413 162.829C70.8509 162.089 39.7711 147.652 39.7711 147.652L38.6601 142.767Z" fill="#DFDFDF"/>
<path d="M70.7289 109.361L34.3444 143.938L36.8974 146.626L73.282 112.05L70.7289 109.361Z" fill="#DFDFDF"/>
<path d="M76.7223 164.724C81.9655 164.724 86.216 160.472 86.216 155.227C86.216 149.982 81.9655 145.73 76.7223 145.73C71.479 145.73 67.2285 149.982 67.2285 155.227C67.2285 160.472 71.479 164.724 76.7223 164.724Z" fill="#DFDFDF"/>
<path d="M75.0873 129.16C74.2384 129.897 68.9128 134.862 68.9128 134.862L81.6166 149.206L83.9641 147.073L78.9743 133.147L75.0873 129.16Z" fill="black"/>
<path d="M97.4487 19.7702L71.1499 0.00294495L39.8169 41.7196L66.1156 61.4869L97.4487 19.7702Z" fill="#A9A5A5"/>
<path d="M93.3978 71.0162C96.294 71.9992 116.461 89.1231 118.633 92.3289C116.936 100.095 82.0561 132.5 78.543 133.87C76.6596 132.756 74.6888 130.356 74.6888 128.983C75.7151 127.344 91.5689 102.443 91.5689 102.443C91.5689 102.443 80.9124 69.6317 93.3978 71.0162Z" fill="#56CAD8"/>
<path d="M121.478 90.3402C123.507 90.0315 124.856 87.839 124.491 85.443C124.127 83.0471 122.187 81.355 120.159 81.6637C118.13 81.9724 116.781 84.1649 117.146 86.5609C117.51 88.9568 119.45 90.6489 121.478 90.3402Z" fill="#B26C4A"/>
<path d="M130.981 87.459C132.858 87.1732 134.114 85.1902 133.786 83.0299C133.457 80.8695 131.669 79.3498 129.791 79.6356C127.913 79.9214 126.657 81.9044 126.985 84.0648C127.314 86.2252 129.103 87.7448 130.981 87.459Z" fill="#DE8E68"/>
<path d="M70.1684 55.6234C68.1184 56.8959 61.0486 64.763 61.0486 73.3727C61.0486 84.4592 83.3144 101.796 91.3724 107.233C89.8165 111.261 74.4076 144.351 73.9026 145.907C75.1036 146.898 78.7095 148.242 80.0525 148.242C87.4717 142.303 108.111 110.832 108.465 107.798C108.82 104.764 91.2905 71.666 91.2905 71.666L70.1684 55.6234Z" fill="#74D5DE"/>
<path d="M112.344 44.4278C112.617 46.271 113.674 53.9851 114.184 54.8889C114.695 55.7928 129.181 78.5501 129.964 79.686C129.847 80.6663 128.163 82.2719 126.989 82.0753C125.501 81.0186 111.637 63.2611 111.637 63.2611C111.637 63.2611 97.4241 44.7036 112.344 44.4278Z" fill="#9F5536"/>
<path d="M107.93 33.6963C110.933 32.7952 113.715 41.4514 113.204 44.7036C111.566 46.6615 107.136 47.0929 106.039 46.585C105.76 44.9002 104.835 34.6247 107.93 33.6963Z" fill="#FCC486"/>
<path d="M99.0318 22.9566C103.424 22.9566 109.677 28.0056 109.677 33.0792C109.677 44.4687 96.5124 73.2635 92.5134 74.2029C86.9067 75.5218 69.1558 58.974 69.1558 55.9593C69.164 49.7143 90.1796 22.9566 99.0318 22.9566Z" fill="#FED385"/>
<path d="M103.962 15.876C103.787 16.616 100.599 22.304 99.2147 23.8359C99.3621 24.5786 102.354 27.2001 103.962 27.1127C104.529 26.2607 106.729 22.3914 107.548 21.7852C108.367 21.179 106.481 16.0726 103.962 15.876Z" fill="#9F5536"/>
<path d="M70.1684 55.6234C76.1573 57.8626 99.6487 54.0397 106.249 50.9622C105.845 44.8565 105.875 32.4811 96.6597 20.8185" stroke="#DFDFDF" stroke-width="7" stroke-miterlimit="10" stroke-linecap="round"/>
<path d="M117.391 17.565C120.134 12.8136 119.605 7.37245 116.21 5.41192C112.816 3.4514 107.841 5.71386 105.099 10.4653C102.357 15.2167 102.885 20.6578 106.28 22.6183C109.674 24.5789 114.649 22.3164 117.391 17.565Z" fill="#B26C4A"/>
<path d="M104.221 11.0237C104.166 9.98055 105.979 4.65304 108.916 3.10476C111.853 1.55648 113.69 2.62143 115.737 2.62143C117.577 2.62143 119.037 1.72578 121.066 1.85139C123.7 2.01523 124.03 4.62573 124.442 5.86272C124.988 7.50111 127.663 7.66495 128.889 10.7779C129.547 12.4518 126.337 15.7204 123.563 15.7204C121.942 15.7204 119.469 14.792 118.745 14.3551C118.898 13.7181 119.018 13.0737 119.106 12.4245C118.126 12.4245 112.06 11.2093 111.566 11.2366C111.072 11.264 109.26 13.1044 109.093 13.4894C108.531 13.3311 105.318 13.1399 104.221 11.0237Z" fill="#FD8369"/>
<path d="M104.557 15.2016C105.837 15.2016 106.874 14.1636 106.874 12.8833C106.874 11.6029 105.837 10.5649 104.557 10.5649C103.277 10.5649 102.239 11.6029 102.239 12.8833C102.239 14.1636 103.277 15.2016 104.557 15.2016Z" fill="#DE8E68"/>
<path d="M94.3805 26.146C99.9817 23.8796 107.698 38.2292 107.93 43.4174C106.967 44.9794 96.8071 48.734 94.7462 48.4336C91.7573 44.9794 88.1378 28.6719 94.3805 26.146Z" fill="#FED892"/>
<path d="M95.2649 47.6418C96.0074 49.6406 99.1028 58.8375 100.042 61.2732C100.981 63.709 114.962 82.0262 117.116 83.7984C119.66 84.5056 120.678 83.4079 120.913 81.9989C120.405 80.5871 110.065 58.062 109.284 55.9075C108.504 53.753 106.503 44.5862 106.465 43.371C104.707 42.2351 96.2476 44.3513 95.2649 47.6418Z" fill="#B26C4A"/>
<path d="M69.7699 56.6256L43.4697 36.8584" stroke="#F9F9F9" stroke-width="7" stroke-miterlimit="10"/>
<path d="M93.8291 24.5896L67.5289 4.82509" stroke="#F9F9F9" stroke-width="7" stroke-miterlimit="10"/>
<path d="M74.4623 145.41C73.9709 146.423 71.0256 153.081 71.0256 153.081L88.3589 161.273L89.6774 158.389L79.6159 147.556L74.4623 145.41Z" fill="black"/>
<path d="M36.6046 150.869C39.2112 150.869 41.3242 148.755 41.3242 146.147C41.3242 143.54 39.2112 141.426 36.6046 141.426C33.9981 141.426 31.8851 143.54 31.8851 146.147C31.8851 148.755 33.9981 150.869 36.6046 150.869Z" fill="#FD8369"/>
<path d="M159.395 150.869C162.002 150.869 164.115 148.755 164.115 146.147C164.115 143.54 162.002 141.426 159.395 141.426C156.789 141.426 154.676 143.54 154.676 146.147C154.676 148.755 156.789 150.869 159.395 150.869Z" fill="#FD8369"/>
<path d="M70.7881 37.6749C73.4942 37.6749 75.6879 35.4804 75.6879 32.7734C75.6879 30.0663 73.4942 27.8718 70.7881 27.8718C68.0821 27.8718 65.8884 30.0663 65.8884 32.7734C65.8884 35.4804 68.0821 37.6749 70.7881 37.6749Z" fill="#F9F9F9"/>
</g>
<defs>
<clipPath id="clip0_109_0">
<rect width="196" height="193" fill="white"/>
</clipPath>
</defs>
</svg>
