<svg width="100" height="100" viewBox="0 0 100 100" fill="none" xmlns="http://www.w3.org/2000/svg">
<g clip-path="url(#clip0_322_2085)">
<path d="M1.59938 97.2622C3.2191 98.882 5.67796 99.3184 7.75593 98.3545L64.1522 74.0739C66.9126 72.794 67.5577 69.158 65.4063 67.0064L31.977 33.5772C29.8255 31.4256 26.1895 32.0707 24.9096 34.8312L0.507063 91.1057C-0.456554 93.1836 -0.0203502 95.6425 1.59938 97.2622Z" fill="#FFE266"/>
<path d="M48.5786 68.7547L7.12203 86.6031C5.65686 87.2825 3.93591 87.013 2.74697 85.9396L0.506819 91.1055C-0.456798 93.1836 -0.0205944 95.6423 1.59913 97.262C3.21886 98.8817 5.67771 99.3179 7.75569 98.3543L63.6111 74.3066C62.3244 73.7908 48.7879 68.6576 48.5786 68.7547Z" fill="#EFAA66"/>
<path d="M65.7965 71.7934C69.6501 67.9398 64.0473 56.089 53.2822 45.324C42.5172 34.5589 30.6664 28.9561 26.8128 32.8097C22.9592 36.6633 28.562 48.5141 39.3271 59.2792C50.0921 70.0442 61.9429 75.6471 65.7965 71.7934Z" fill="#FFE266"/>
<path d="M56.0303 66.8276C58.5582 64.2997 54.4636 56.1065 46.8847 48.5277C39.3058 40.9488 31.1127 36.8542 28.5847 39.3821C26.0568 41.91 30.1515 50.1032 37.7303 57.682C45.3092 65.2609 53.5024 69.3555 56.0303 66.8276Z" fill="#EFAA66"/>
<path d="M62.3286 75.0185C56.1855 75.0185 46.6718 69.4503 37.9196 60.6982C29.9724 52.7507 24.5264 43.9982 23.708 37.8562C23.5618 36.7587 24.3326 35.7506 25.4301 35.6045C26.5266 35.4587 27.5358 36.2291 27.6819 37.3266C28.3793 42.5582 33.5107 50.6194 40.7548 57.8632C50.0107 67.1191 58.5457 71.1548 62.5569 71.0049C63.6618 70.9646 64.5954 71.8221 64.6395 72.9285C64.6834 74.0346 63.8222 74.9672 62.7159 75.0111C62.5886 75.0159 62.4587 75.0185 62.3286 75.0185Z" fill="#D0844B"/>
<path d="M40.8958 44.0717C40.4253 43.6012 40.0622 43.0101 39.8606 42.3269L38.0069 36.0525C37.3067 33.683 37.9386 31.1444 39.6555 29.4274L43.0252 26.0577C44.7424 24.3405 47.281 23.7089 49.6505 24.4091L56.4 26.3141L54.1236 18.1924C53.4785 16.0092 54.7256 13.7165 56.9088 13.0714C59.092 12.4263 61.3847 13.6734 62.0299 15.8566L63.8836 22.131C64.5836 24.5007 63.952 27.0393 62.235 28.7561L58.8653 32.1258C57.1483 33.8428 54.6097 34.4744 52.2402 33.7744L45.4218 31.5509L47.7669 39.9911C48.412 42.1743 47.165 44.467 44.9817 45.1121C43.4813 45.5553 41.9291 45.1051 40.8958 44.0717Z" fill="#CAB4EF"/>
<path d="M56.4001 26.3142L49.6506 24.4092C47.6139 23.8074 45.4529 24.1903 43.7955 25.3997C44.2596 27.2553 44.85 29.7238 45.4217 31.5508L52.2402 33.7743C54.3735 34.4046 56.6433 33.955 58.3278 32.6063C57.7312 30.7388 56.9678 28.1905 56.4001 26.3142Z" fill="#A183E2"/>
<path d="M67.0007 41.1378C67.4712 41.6083 68.0626 41.9714 68.7455 42.173L75.02 44.0267C77.3892 44.7267 79.9281 44.095 81.645 42.3781L85.0148 39.0083C86.7319 37.2912 87.3636 34.7526 86.6634 32.3831L84.7584 25.6336L92.8801 27.9098C95.0633 28.5549 97.3562 27.3078 98.0012 25.1246C98.6463 22.9414 97.3993 20.6487 95.216 20.0036L88.9416 18.15C86.5719 17.45 84.0333 18.0818 82.3166 19.7986L78.9468 23.1683C77.2299 24.8853 76.5982 27.4239 77.2982 29.7934L79.5215 36.6118L71.0813 34.2666C68.8981 33.6216 66.6054 34.8686 65.9603 37.0518C65.5169 38.5523 65.9674 40.1045 67.0007 41.1378Z" fill="#F7C4DB"/>
<path d="M86.6629 32.3832L84.7579 25.6336C82.7942 25.2105 80.0471 24.669 78.0872 24.2294C77.0378 25.8441 76.7307 27.8742 77.2978 29.7936L79.5211 36.6121C81.554 37.114 83.7051 37.4602 85.6568 38.2595C86.8786 36.5993 87.2673 34.4285 86.6629 32.3832Z" fill="#EF8BBD"/>
<path d="M76.5975 7.24136C75.2905 8.54836 73.1712 8.54836 71.8642 7.24136C70.5572 5.93435 70.5572 3.81508 71.8642 2.50807C73.1712 1.20107 75.2905 1.20107 76.5975 2.50807C77.9045 3.81528 77.9045 5.93435 76.5975 7.24136Z" fill="#FFA585"/>
<path d="M81.6477 62.8451C83.4961 62.8451 84.9946 61.3466 84.9946 59.4982C84.9946 57.6497 83.4961 56.1513 81.6477 56.1513C79.7992 56.1513 78.3008 57.6497 78.3008 59.4982C78.3008 61.3466 79.7992 62.8451 81.6477 62.8451Z" fill="#78EAC4"/>
<path d="M63.3386 62.4727C62.0315 63.7797 59.9123 63.7797 58.6053 62.4727C57.2982 61.1657 57.2982 59.0464 58.6053 57.7394C59.9123 56.4324 62.0315 56.4324 63.3386 57.7394C64.6456 59.0466 64.6456 61.1657 63.3386 62.4727Z" fill="#78EAC4"/>
<path d="M63.3386 62.4727C62.0315 63.7797 59.9123 63.7797 58.6053 62.4727C57.2982 61.1657 57.2982 59.0464 58.6053 57.7394C59.9123 56.4324 62.0315 56.4324 63.3386 57.7394C64.6456 59.0466 64.6456 61.1657 63.3386 62.4727Z" fill="#8BB6EF"/>
<path d="M18.223 72.2849C17.9586 72.2849 17.6896 72.2321 17.4314 72.1209C16.4145 71.6831 15.945 70.504 16.383 69.487L18.9217 63.5906C19.3595 62.5739 20.539 62.1036 21.5555 62.5422C22.5725 62.98 23.0419 64.1592 22.6039 65.1761L20.0653 71.0725C19.7387 71.8308 18.9996 72.2849 18.223 72.2849Z" fill="white"/>
<path d="M23.6026 59.7905C23.3382 59.7905 23.0693 59.7377 22.8107 59.6265C21.794 59.1887 21.3245 58.0096 21.7625 56.9924L22.5363 55.1951C22.9741 54.1785 24.1528 53.7083 25.1704 54.1469C26.1871 54.5847 26.6566 55.7638 26.2188 56.7809L25.445 58.5783C25.1182 59.3364 24.3789 59.7905 23.6026 59.7905Z" fill="white"/>
<path d="M39.3342 1.62992L40.9808 6.26017C41.0514 6.45843 41.1909 6.61559 41.3671 6.69497L45.4808 8.54843C46.0619 8.81024 46.0619 9.73616 45.4808 9.99817L41.3671 11.8516C41.1909 11.931 41.0514 12.0882 40.9808 12.2862L39.3342 16.9165C39.1017 17.5706 38.2788 17.5706 38.0463 16.9165L36.3997 12.2862C36.3291 12.088 36.1896 11.9308 36.0134 11.8516L31.8997 9.99817C31.3186 9.73637 31.3186 8.81044 31.8997 8.54843L36.0134 6.69497C36.1896 6.61559 36.3291 6.45843 36.3997 6.26017L38.0463 1.62992C38.2788 0.975614 39.1017 0.975614 39.3342 1.62992Z" fill="#F7C4DB"/>
<path d="M95.1179 43.2547L96.3393 46.6892C96.3916 46.8364 96.495 46.9528 96.6257 47.0118L99.6771 48.3865C100.108 48.5808 100.108 49.2676 99.6771 49.4618L96.6257 50.8366C96.495 50.8955 96.3916 51.012 96.3393 51.1591L95.1179 54.5936C94.9453 55.0789 94.3351 55.0789 94.1625 54.5936L92.9411 51.1591C92.8887 51.012 92.7853 50.8955 92.6546 50.8366L89.6032 49.4618C89.172 49.2676 89.172 48.5808 89.6032 48.3865L92.6546 47.0118C92.7853 46.9528 92.8887 46.8364 92.9411 46.6892L94.1625 43.2547C94.3351 42.7696 94.9453 42.7696 95.1179 43.2547Z" fill="#CAB4EF"/>
<path d="M72.4064 17.3908C73.263 17.3908 73.9574 16.6964 73.9574 15.8398C73.9574 14.9832 73.263 14.2888 72.4064 14.2888C71.5499 14.2888 70.8555 14.9832 70.8555 15.8398C70.8555 16.6964 71.5499 17.3908 72.4064 17.3908Z" fill="#78EAC4"/>
<path d="M95.8891 6.24088C96.082 4.67076 94.9654 3.24155 93.3952 3.04863C91.825 2.85571 90.3957 3.97215 90.2028 5.54226C90.0099 7.11238 91.1264 8.5416 92.6967 8.73452C94.2669 8.92743 95.6962 7.81099 95.8891 6.24088Z" fill="#8BB6EF"/>
</g>
<defs>
<clipPath id="clip0_322_2085">
<rect width="100" height="100" fill="white"/>
</clipPath>
</defs>
</svg>
