<svg width="232" height="192" viewBox="0 0 232 192" fill="none" xmlns="http://www.w3.org/2000/svg">
<g clip-path="url(#clip0_109_65)">
<path d="M164.708 15.1589C188.705 20.9405 208.44 46.2685 208.134 71.2412C207.834 96.1596 187.49 120.723 170.467 144.361C153.492 168.003 139.933 190.735 122.772 191.94C105.589 193.126 84.8314 172.761 67.6551 159.252C50.4249 145.747 36.8152 139.092 25.0924 127.221C13.3695 115.351 3.58149 98.2585 5.87327 82.9551C8.16504 67.6517 22.5426 54.1461 37.5801 46.7774C52.6686 39.3576 68.3661 38.0778 90.3749 30.5556C112.384 23.0334 140.686 9.33502 164.708 15.1589Z" fill="#F0E9FE"/>
<path d="M152.562 130.732L121.188 68.552C120.231 67.9919 116.388 65.5136 116.388 65.5136" stroke="#BC96FF" stroke-width="5" stroke-linecap="round" stroke-linejoin="round"/>
<path d="M118.938 73.4755C118.563 72.2319 117.438 69.6693 117.438 69.6693C116.751 69.6271 111.97 67.1578 111.97 67.1578" stroke="#A9A5A5" stroke-width="5" stroke-linecap="round" stroke-linejoin="round"/>
<path d="M110.602 67.3867L125.469 61.2978" stroke="#A9A5A5" stroke-width="5" stroke-linecap="round" stroke-linejoin="round"/>
<path d="M3.82162 162.369L0 165.913L9.17309 177.989L12.0108 175.468L7.64324 164.724L3.82162 162.369Z" fill="black"/>
<path d="M77.8932 151.348L74.7345 157.189L82.5757 169.445L85.8784 168.59L83.7126 152.594L77.8932 151.348Z" fill="black"/>
<path d="M113.641 68.5521C116.219 68.5521 118.308 66.9868 118.308 65.056C118.308 63.1251 116.219 61.5599 113.641 61.5599C111.063 61.5599 108.973 63.1251 108.973 65.056C108.973 66.9868 111.063 68.5521 113.641 68.5521Z" fill="#9F5536"/>
<path d="M51.352 68.7478C49.2522 71.7591 3.10777 162.724 3.10777 162.724L8.32726 165.922L69.2212 99.7701L51.352 68.7478Z" fill="#56CAD8"/>
<path d="M91.1068 46.675C92.3067 47.7049 95.8224 51.7099 96.9712 52.4387C98.1201 53.1674 111.298 61.4183 113.77 62.1471C116.241 62.8758 110.989 65.0439 110.989 65.0439C110.989 65.0439 93.8216 61.2226 92.5527 60.3734C91.2838 59.5242 83.7635 53.4474 83.7635 51.8183C83.7635 50.1892 91.1068 46.675 91.1068 46.675Z" fill="#9F5536"/>
<path d="M81.049 38.8457C84.8797 34.675 92.3609 44.5671 92.1989 46.0216C92.0369 47.476 86.7455 53.5769 83.3918 53.5769C82.3869 53.5769 78.3583 41.7757 81.049 38.8457Z" fill="#FCC486"/>
<path d="M50.758 69.6633C49.8581 70.8678 45.9585 80.5039 45.9585 83.8163C45.9585 106.401 79.5011 112.261 84.3187 112.261C83.6227 115.414 76.2435 151.224 76.5914 152.01C76.9394 152.796 83.0618 154.401 84.3187 154.193C89.1182 151.57 104.612 115.046 103.448 109.852C101.813 102.574 76.1505 81.2869 72.4428 79.1669C68.7352 77.047 50.758 69.6633 50.758 69.6633Z" fill="#74D5DE"/>
<path d="M72.9166 29.5107C98.7351 29.5107 78.7331 78.2273 74.1915 80.8682C71.1918 82.6088 52.5936 75.9899 50.6018 69.35C49.9209 67.0825 58.65 29.5107 72.9166 29.5107Z" fill="#FED385"/>
<path d="M109.711 70.1992C112.289 70.1992 114.379 68.634 114.379 66.7031C114.379 64.7723 112.289 63.207 109.711 63.207C107.133 63.207 105.043 64.7723 105.043 66.7031C105.043 68.634 107.133 70.1992 109.711 70.1992Z" fill="#B26C4A"/>
<path d="M64.6767 52.005C64.7397 54.4622 65.5586 65.7395 66.5755 66.0798C78.8743 70.1992 100.172 68.3834 103.85 68.1365C107.527 67.8895 109.885 65.2908 109.702 64.6735C109.519 64.0562 97.9524 59.3224 77.8724 58.7653C77.5004 56.4888 78.3913 49.608 77.4734 48.9937C76.5555 48.3794 64.6767 52.005 64.6767 52.005Z" fill="#B26C4A"/>
<path d="M68.0932 31.5975C78.7752 29.4053 80.692 49.4243 79.6661 50.8998C78.6402 52.3754 65.0305 54.4622 63.2547 53.1734C61.4789 51.8845 59.994 33.2567 68.0932 31.5975Z" fill="#FED892"/>
<path d="M75.3614 17.062C74.8695 18.947 71.5128 29.7395 71.7198 30.3117C71.9268 30.8838 76.5463 33.4073 78.3191 33.1302C78.3881 32.3081 79.141 27.9056 80.6829 25.2587C82.2247 22.6118 75.3614 17.062 75.3614 17.062Z" fill="#9F5536"/>
<path d="M89.0402 17.116C89.6178 11.3748 87.0055 6.40827 83.2053 6.02293C79.4052 5.63759 75.8562 9.97938 75.2785 15.7206C74.7009 21.4618 77.3132 26.4283 81.1134 26.8137C84.9135 27.199 88.4625 22.8572 89.0402 17.116Z" fill="#B26C4A"/>
<path d="M74.6147 17.062C73.8287 16.6284 72.3379 14.0748 72.3379 11.7019C72.3379 7.98896 76.0245 5.87503 78.5113 4.77591C80.3921 3.92974 81.9909 0 86.2745 0C89.6912 0 89.9192 3.45395 91.491 3.58645C95.5646 3.92673 97.8504 4.0803 97.8504 7.05245C97.8504 9.23563 95.0606 15.1829 89.3702 15.1829C89.3702 14.0808 89.0012 11.3435 88.3923 10.0276C84.9726 10.1992 82.1889 14.6108 77.4464 14.5927C76.4295 14.5747 74.6147 17.062 74.6147 17.062Z" fill="#FD8369"/>
<path d="M76.4055 18.9109C77.5685 18.9109 78.5113 17.7555 78.5113 16.3302C78.5113 14.905 77.5685 13.7495 76.4055 13.7495C75.2425 13.7495 74.2997 14.905 74.2997 16.3302C74.2997 17.7555 75.2425 18.9109 76.4055 18.9109Z" fill="#DE8E68"/>
<path d="M228.013 154.196H130.007V132.849C135.368 132.373 211.566 125.146 211.566 125.146V78.7333L118.938 73.4755L130.007 132.855" stroke="#BC96FF" stroke-width="5" stroke-linecap="round" stroke-linejoin="round"/>
<path d="M137.884 165.991C140.396 165.991 142.432 163.948 142.432 161.426C142.432 158.905 140.396 156.861 137.884 156.861C135.373 156.861 133.337 158.905 133.337 161.426C133.337 163.948 135.373 165.991 137.884 165.991Z" stroke="#BC96FF" stroke-width="5" stroke-linecap="round" stroke-linejoin="round"/>
<path d="M226.703 165.991C229.214 165.991 231.25 163.948 231.25 161.426C231.25 158.905 229.214 156.861 226.703 156.861C224.191 156.861 222.155 158.905 222.155 161.426C222.155 163.948 224.191 165.991 226.703 165.991Z" stroke="#BC96FF" stroke-width="5" stroke-linecap="round" stroke-linejoin="round"/>
<path d="M122.556 92.8773H211.566" stroke="#BC96FF" stroke-width="5" stroke-linecap="round" stroke-linejoin="round"/>
<path d="M125.016 106.073H211.566" stroke="#BC96FF" stroke-width="5" stroke-linecap="round" stroke-linejoin="round"/>
<path d="M103.076 70.4672L110.602 67.3867" stroke="#A9A5A5" stroke-width="5" stroke-linecap="round" stroke-linejoin="round"/>
<path d="M132.548 106.073C131.573 103.305 121.23 73.599 121.23 73.599" stroke="#BC96FF" stroke-width="5" stroke-linecap="round" stroke-linejoin="round"/>
</g>
<defs>
<clipPath id="clip0_109_65">
<rect width="232" height="192" fill="white"/>
</clipPath>
</defs>
</svg>
