<svg width="209" height="193" viewBox="0 0 209 193" fill="none" xmlns="http://www.w3.org/2000/svg">
<g clip-path="url(#clip0_109_108)">
<path d="M147.42 4.69103C171.837 8.16023 202.471 21.3384 208.034 40.7505C213.599 60.2131 194.105 85.862 175.547 106.383C156.995 126.951 139.398 142.395 117.838 152.8C96.2806 163.16 70.8087 168.555 53.6644 158.784C36.5676 149.081 27.8576 124.237 17.7133 102.358C7.5364 80.4308 -4.09562 61.4201 1.41366 48.0932C6.93479 34.8169 29.5972 27.2215 46.6437 22.4443C63.6902 17.6671 75.0703 15.6545 89.9119 11.5819C104.703 7.45569 122.953 1.22183 147.42 4.69103Z" fill="#F0E9FE"/>
<path d="M69.718 10.5562C65.8031 10.5562 64.5792 16.692 64.5792 19.1445C64.5792 23.3064 68.9831 40.4948 73.1409 40.4948C77.2988 40.4948 81.7057 23.5501 81.7057 21.6C81.7057 19.6499 76.5668 10.5562 69.718 10.5562Z" fill="#B36C4A"/>
<path d="M146.605 11.7189L87.7556 0.137401C83.6841 -0.663871 79.7359 1.9974 78.9371 6.08152L56.4808 120.897C55.682 124.981 58.335 128.942 62.4065 129.743L121.255 141.324C125.327 142.126 129.275 139.464 130.074 135.38L152.53 20.5647C153.329 16.4805 150.676 12.5201 146.605 11.7189Z" fill="#74D5DE"/>
<path d="M133.121 9.09369L132.377 12.8958C132.193 13.826 131.649 14.6451 130.864 15.1739C130.079 15.7026 129.117 15.8979 128.189 15.717L102.815 10.7228C101.888 10.5374 101.072 9.99151 100.545 9.20444C100.018 8.41738 99.8232 7.45309 100.003 6.52226L100.761 2.72011" fill="#FED385"/>
<path d="M57 116L132 131" stroke="#FED385" stroke-width="3" stroke-miterlimit="10"/>
<path d="M92.0693 132.133C93.7109 132.133 95.0418 130.798 95.0418 129.151C95.0418 127.505 93.7109 126.17 92.0693 126.17C90.4277 126.17 89.0968 127.505 89.0968 129.151C89.0968 130.798 90.4277 132.133 92.0693 132.133Z" fill="#FED385"/>
<path d="M65.0712 43.6995C59.9324 43.6995 56.5065 47.6235 56.5065 51.7972C56.5065 65.5373 64.3362 76.8248 67.768 76.8248C75.1058 76.8248 77.7968 72.8978 77.7968 70.1986C77.7908 68.2217 76.8129 43.6995 65.0712 43.6995Z" fill="#B36C4A"/>
<path d="M62.3803 79.756C63.8473 81.2275 75.1 93.2523 75.1 101.594C75.1 107.242 73.876 111.654 63.6013 111.654C58.7084 111.654 45.0108 92.2683 45.0108 84.4173C45.0108 79.9998 47.7017 69.6932 55.2855 69.6932C57.4874 69.6932 62.3803 73.6202 63.1123 74.6012C63.8662 75.3844 64.6658 76.122 65.5069 76.81C65.1987 78.4064 63.4976 86.8044 63.4976 86.8044" fill="#B36C4A"/>
<path d="M60.5517 129.122C59.8197 131.087 59.3218 150.059 61.5238 160.609C60.042 168.216 54.183 193.012 54.183 193.012H107.281L112.663 171.418C112.663 171.418 145.428 142.692 148.608 137.543C151.788 132.395 159.251 102.331 159.144 99.5099C159.058 97.5479 123.427 67.3626 122.449 66.1349C121.471 64.9071 104.264 82.1877 132.887 102.075C132.641 104.528 132.655 115.361 132.655 115.361C132.655 115.361 112.746 122.225 110.725 123.705C108.704 125.186 104.836 135.617 104.137 137.957C101.431 137.427 60.5517 129.122 60.5517 129.122Z" fill="#B36C4A"/>
</g>
<defs>
<clipPath id="clip0_109_108">
<rect width="209" height="193" fill="white"/>
</clipPath>
</defs>
</svg>
