<svg width="32" height="32" viewBox="0 0 32 32" fill="none" xmlns="http://www.w3.org/2000/svg">
<path fill-rule="evenodd" clip-rule="evenodd" d="M6.20552 24.1618C18.7839 25.2915 26.034 12.5494 30.1671 7.58596L32 4.95035L30.5985 6.22263C18.8624 15.8803 6.63065 23.9177 0.344222 15.5524C0.141972 16.2478 0.0261736 16.9447 0 17.6232C0.683686 18.6699 1.95826 20.2153 3.08293 20.7801L2.73554 21.4892C1.63149 20.9348 0.789967 20.0574 0.0840728 19.059C0.510782 21.7019 2.47856 23.8275 6.20552 24.1618V24.1618ZM29.2843 7.49249C28.419 8.46261 27.5211 9.4134 26.5963 10.3255L27.1404 10.8936C28.0763 9.96775 28.8433 8.87757 29.7205 7.89456L29.2843 7.49249V7.49249ZM24.9022 11.9418C23.9449 12.8193 22.959 13.6678 21.9414 14.4727L22.4205 15.098C23.4523 14.2801 24.4525 13.4212 25.4241 12.53L24.9022 11.9418V11.9418ZM20.0791 15.8771C19.0258 16.6297 17.9432 17.3347 16.8225 17.9801L17.2056 18.6699C18.3485 18.0132 19.4533 17.2928 20.5264 16.5258L20.0791 15.8771ZM14.773 19.0647C13.6198 19.6222 12.4229 20.1057 11.1999 20.482L11.4244 21.241C12.6871 20.8502 13.9156 20.3563 15.1069 19.7802L14.773 19.0647V19.0647ZM8.97199 21.0371C7.76166 21.2636 6.4276 21.403 5.18951 21.3184L5.13558 22.1088C6.43871 22.1974 7.83542 22.0548 9.11079 21.8171L8.97199 21.0371V21.0371ZM12.8354 28.5C10.5004 28.5 8.3819 27.9706 6.48153 26.9135C5.01423 26.0973 3.78803 25.0466 2.80216 23.7622C3.23442 23.9951 3.71031 24.1917 4.22981 24.3472C4.81991 24.5244 5.46314 24.6477 6.15873 24.7106C15.0173 25.5058 21.2538 19.6722 25.6541 14.2987C25.6993 14.745 25.7223 15.2003 25.7223 15.6636C25.7223 18.0672 25.1608 20.2467 24.0385 22.2015C22.9154 24.157 21.3743 25.6952 19.4137 26.8168C17.4522 27.9392 15.26 28.5 12.8354 28.5V28.5ZM0.439399 14.7741C0.637684 12.995 1.16909 11.344 2.03599 9.82191C3.15828 7.85105 4.70014 6.30482 6.66078 5.18241C8.62142 4.0608 10.8145 3.5 13.2391 3.5C15.5741 3.5 17.6918 4.02857 19.5929 5.08652C21.4941 6.14447 22.9907 7.60288 24.0829 9.46174C24.2455 9.73812 24.3962 10.0193 24.5342 10.3046C20.6145 13.2262 16.7622 15.691 13.2264 17.1365C8.14554 19.2137 3.73331 19.1573 0.774104 15.2188L0.439399 14.7741V14.7741ZM4.66921 13.5743C4.7977 12.4197 5.14272 11.348 5.70505 10.361C6.43395 9.08143 7.43409 8.07827 8.70629 7.35068C9.97849 6.62228 11.4014 6.25808 12.975 6.25808C14.4907 6.25808 15.8644 6.60133 17.0985 7.28783C18.3318 7.97433 19.3034 8.92028 20.0125 10.1265C20.118 10.3062 20.2155 10.4891 20.3052 10.6744C17.7608 12.5703 15.2608 14.1697 12.967 15.1076C9.66996 16.4548 6.80672 16.4186 4.88574 13.8627L4.66921 13.5743V13.5743Z" fill="#3C2470"/>
</svg>
