<svg width="296" height="83" viewBox="0 0 296 83" fill="none" xmlns="http://www.w3.org/2000/svg">
<rect x="0.5" y="0.5" width="295" height="82" rx="3.5" fill="white" stroke="#577387"/>
<g clip-path="url(#clip0_1055_717)">
<path d="M73.1572 65.4679C72.2108 64.8146 71.3721 64.0075 70.6732 63.0775C69.9044 62.1175 69.1921 61.1103 68.5402 60.0614C67.0103 57.7361 65.8105 55.1947 64.9777 52.5152C63.9772 49.4027 63.4927 46.4194 63.4927 43.5014C63.4927 40.2426 64.1722 37.3978 65.5012 35.0074C66.4863 33.139 67.9348 31.5777 69.6967 30.4849C71.4041 29.3846 73.366 28.7825 75.3757 28.7419C76.0792 28.7419 76.8367 28.8477 77.6407 29.0501C78.2182 29.2197 78.9217 29.4874 79.7812 29.8204C80.8747 30.2577 81.4762 30.5254 81.6802 30.5907C82.3207 30.8335 82.8592 30.9393 83.2822 30.9393C83.6032 30.9393 84.0562 30.8335 84.5707 30.6717C84.8602 30.5658 85.4062 30.3791 86.1877 30.032C86.9617 29.7395 87.5707 29.4889 88.0552 29.3022C88.7977 29.075 89.5162 28.8649 90.1567 28.759C90.916 28.6348 91.6866 28.6019 92.4532 28.661C93.7816 28.7511 95.0901 29.0431 96.3367 29.5278C98.3752 30.3791 100.024 31.7081 101.251 33.5974C100.732 33.929 100.245 34.3116 99.7972 34.7397C98.8216 35.637 97.9906 36.6904 97.3357 37.86C96.4796 39.4583 96.0358 41.2589 96.0472 43.0874C96.0787 45.3331 96.6337 47.3111 97.7272 49.0214C98.5311 50.289 99.5759 51.373 100.798 52.207C101.423 52.6444 101.962 52.9447 102.478 53.147C102.236 53.9251 101.978 54.6784 101.674 55.4254C100.983 57.1005 100.146 58.7065 99.1732 60.2233C98.3062 61.529 97.6267 62.5016 97.1107 63.149C96.3067 64.1373 95.5327 64.892 94.7512 65.4181C93.8917 66.0094 92.8762 66.3253 91.8442 66.3253C91.1453 66.3532 90.4465 66.2655 89.7742 66.0655C89.1967 65.8631 88.6252 65.6437 88.0627 65.3932C87.4779 65.1145 86.8749 64.8789 86.2582 64.6882C84.7337 64.2819 83.1354 64.2793 81.6097 64.6804C80.9842 64.8671 80.3827 65.085 79.7887 65.3527C78.9532 65.7169 78.3982 65.9612 78.0772 66.0655C77.4367 66.26 76.7722 66.3814 76.1002 66.4218C75.0607 66.4218 74.0917 66.1137 73.1317 65.4896L73.1572 65.4679ZM86.8672 27.1608C85.5082 27.8657 84.2107 28.1661 82.9222 28.0681C82.7197 26.7219 82.9222 25.3446 83.4607 23.8366C83.9191 22.559 84.5965 21.378 85.4602 20.3506C86.3722 19.2691 87.4789 18.3825 88.7182 17.7408C90.0382 17.0358 91.2967 16.6545 92.4997 16.5985C92.6557 18.0085 92.4997 19.3951 92.0002 20.8937C91.5379 22.2186 90.8618 23.4521 90.0007 24.5416C89.1218 25.6246 88.0432 26.5146 86.8282 27.1592L86.8672 27.1608Z" fill="#567286"/>
</g>
<path d="M122.965 49.9375L129.281 32.7578H132.738L138.961 49.9375H135.703L134.004 45.0859H127.992L126.281 49.9375H122.965ZM128.789 42.7188H133.195C131.789 38.2109 131.066 35.8828 131.027 35.7344L128.789 42.7188ZM140.496 55.293V37.0586H143.133L143.461 38.8633C143.883 38.1836 144.441 37.6602 145.137 37.293C145.84 36.918 146.621 36.7305 147.48 36.7305C148.535 36.7305 149.461 37.0234 150.258 37.6094C151.062 38.1953 151.672 38.9961 152.086 40.0117C152.5 41.0195 152.707 42.1602 152.707 43.4336C152.707 45.4258 152.223 47.0508 151.254 48.3086C150.293 49.5586 148.988 50.1836 147.34 50.1836C146.527 50.1836 145.789 50.0234 145.125 49.7031C144.469 49.375 143.918 48.9336 143.473 48.3789C143.535 49.5039 143.566 50.1367 143.566 50.2773V55.1406L140.496 55.293ZM146.684 47.8398C147.598 47.8398 148.316 47.457 148.84 46.6914C149.371 45.9258 149.637 44.832 149.637 43.4102C149.637 41.9648 149.371 40.8789 148.84 40.1523C148.309 39.4258 147.57 39.0625 146.625 39.0625C144.594 39.0625 143.566 40.4453 143.543 43.2109C143.543 44.8047 143.805 45.9766 144.328 46.7266C144.859 47.4688 145.645 47.8398 146.684 47.8398ZM155.215 55.293V37.0586H157.852L158.18 38.8633C158.602 38.1836 159.16 37.6602 159.855 37.293C160.559 36.918 161.34 36.7305 162.199 36.7305C163.254 36.7305 164.18 37.0234 164.977 37.6094C165.781 38.1953 166.391 38.9961 166.805 40.0117C167.219 41.0195 167.426 42.1602 167.426 43.4336C167.426 45.4258 166.941 47.0508 165.973 48.3086C165.012 49.5586 163.707 50.1836 162.059 50.1836C161.246 50.1836 160.508 50.0234 159.844 49.7031C159.188 49.375 158.637 48.9336 158.191 48.3789C158.254 49.5039 158.285 50.1367 158.285 50.2773V55.1406L155.215 55.293ZM161.402 47.8398C162.316 47.8398 163.035 47.457 163.559 46.6914C164.09 45.9258 164.355 44.832 164.355 43.4102C164.355 41.9648 164.09 40.8789 163.559 40.1523C163.027 39.4258 162.289 39.0625 161.344 39.0625C159.312 39.0625 158.285 40.4453 158.262 43.2109C158.262 44.8047 158.523 45.9766 159.047 46.7266C159.578 47.4688 160.363 47.8398 161.402 47.8398ZM181.395 50.1719C179.324 50.1719 177.469 49.6953 175.828 48.7422L176.602 46.2227C177.336 46.6289 178.133 46.957 178.992 47.207C179.859 47.457 180.703 47.582 181.523 47.582C182.531 47.582 183.293 47.3672 183.809 46.9375C184.324 46.5 184.582 45.875 184.582 45.0625C184.582 43.9844 183.863 43.2383 182.426 42.8242C182.324 42.793 182.039 42.7109 181.57 42.5781C181.102 42.4375 180.66 42.3047 180.246 42.1797C179.84 42.0469 179.547 41.9453 179.367 41.875C177.062 41.0625 175.91 39.5469 175.91 37.3281C175.91 35.7734 176.461 34.5742 177.562 33.7305C178.672 32.8867 180.141 32.4648 181.969 32.4648C184.039 32.4648 185.824 32.8906 187.324 33.7422L186.363 36.0625C184.832 35.375 183.41 35.0312 182.098 35.0312C181.152 35.0312 180.438 35.1992 179.953 35.5352C179.477 35.8633 179.223 36.4141 179.191 37.1875C179.191 38.1406 179.664 38.7617 180.609 39.0508C180.797 39.1211 181.258 39.2734 181.992 39.5078C182.727 39.7422 183.203 39.8945 183.422 39.9648C184.992 40.4805 186.113 41.1211 186.785 41.8867C187.465 42.6523 187.805 43.7188 187.805 45.0859C187.805 46.7188 187.227 47.9766 186.07 48.8594C184.914 49.7344 183.355 50.1719 181.395 50.1719ZM195.375 50.1133C194.5 50.1133 193.77 50.0117 193.184 49.8086C192.605 49.5977 192.152 49.2695 191.824 48.8242C191.496 48.3789 191.262 47.8555 191.121 47.2539C190.988 46.6445 190.922 45.8945 190.922 45.0039V38.9219H188.812L188.93 37.2578L191.133 37.0586L192.117 33.5664L193.992 33.5547V37.0586H197.191V38.9219H193.992V45.0625C193.992 46.0391 194.133 46.7344 194.414 47.1484C194.695 47.5625 195.215 47.7695 195.973 47.7695C196.418 47.7695 196.895 47.7305 197.402 47.6523L197.484 49.8555C197.469 49.8555 197.371 49.875 197.191 49.9141C197.02 49.9453 196.852 49.9727 196.688 49.9961C196.531 50.0273 196.328 50.0547 196.078 50.0781C195.828 50.1016 195.594 50.1133 195.375 50.1133ZM205.148 47.8516C206.188 47.8516 206.969 47.4727 207.492 46.7148C208.016 45.957 208.277 44.8711 208.277 43.457C208.277 42.0273 208.016 40.9375 207.492 40.1875C206.969 39.4375 206.18 39.0625 205.125 39.0625C204.086 39.0625 203.301 39.4414 202.77 40.1992C202.246 40.9492 201.984 42.0391 201.984 43.4688C201.984 44.875 202.25 45.957 202.781 46.7148C203.312 47.4727 204.102 47.8516 205.148 47.8516ZM205.066 50.1836C203.16 50.1836 201.66 49.5664 200.566 48.332C199.473 47.0977 198.926 45.4727 198.926 43.457C198.926 41.3789 199.473 39.7422 200.566 38.5469C201.66 37.3438 203.203 36.7422 205.195 36.7422C207.117 36.7422 208.621 37.3555 209.707 38.582C210.801 39.8008 211.348 41.4258 211.348 43.457C211.348 45.5117 210.797 47.1484 209.695 48.3672C208.594 49.5781 207.051 50.1836 205.066 50.1836ZM213.867 49.9375V37.0586H216.445L216.844 39.0273C217.688 37.6758 218.91 37 220.512 37C220.848 37 221.121 37.0156 221.332 37.0469L221.285 39.6133C220.973 39.5664 220.648 39.543 220.312 39.543C219.18 39.543 218.332 39.8438 217.77 40.4453C217.215 41.0469 216.938 41.8828 216.938 42.9531V49.9375H213.867ZM229.043 50.1836C226.973 50.1836 225.359 49.5898 224.203 48.4023C223.055 47.207 222.48 45.5586 222.48 43.457C222.48 41.4102 223.023 39.7812 224.109 38.5703C225.195 37.3594 226.676 36.75 228.551 36.7422C230.324 36.7422 231.699 37.2969 232.676 38.4062C233.66 39.5156 234.152 40.9883 234.152 42.8242C234.152 42.957 234.148 43.1719 234.141 43.4688C234.141 43.7656 234.141 43.9844 234.141 44.125H225.574C225.605 45.3281 225.934 46.2617 226.559 46.9258C227.191 47.582 228.059 47.9102 229.16 47.9102C230.566 47.9102 231.918 47.543 233.215 46.8086L233.648 48.9883C232.359 49.7852 230.824 50.1836 229.043 50.1836ZM225.633 42.1914H231.258C231.258 41.1445 231.02 40.3398 230.543 39.7773C230.066 39.2148 229.406 38.9336 228.562 38.9336C227.773 38.9336 227.105 39.207 226.559 39.7539C226.02 40.3008 225.711 41.1133 225.633 42.1914Z" fill="#567286"/>
<defs>
<clipPath id="clip0_1055_717">
<rect width="48" height="49.8" fill="white" transform="translate(59 16.6)"/>
</clipPath>
</defs>
</svg>
