<svg width="16" height="12" viewBox="0 0 16 12" fill="none" xmlns="http://www.w3.org/2000/svg">
<path d="M13.3346 3.33333H11.3346V0.666667H2.0013C1.26797 0.666667 0.667969 1.26667 0.667969 2V9.33333H2.0013C2.0013 10.44 2.89464 11.3333 4.0013 11.3333C5.10797 11.3333 6.0013 10.44 6.0013 9.33333H10.0013C10.0013 10.44 10.8946 11.3333 12.0013 11.3333C13.108 11.3333 14.0013 10.44 14.0013 9.33333H15.3346V6L13.3346 3.33333ZM13.0013 4.33333L14.308 6H11.3346V4.33333H13.0013ZM4.0013 10C3.63464 10 3.33464 9.7 3.33464 9.33333C3.33464 8.96667 3.63464 8.66667 4.0013 8.66667C4.36797 8.66667 4.66797 8.96667 4.66797 9.33333C4.66797 9.7 4.36797 10 4.0013 10ZM5.4813 8C5.11464 7.59333 4.59464 7.33333 4.0013 7.33333C3.40797 7.33333 2.88797 7.59333 2.5213 8H2.0013V2H10.0013V8H5.4813ZM12.0013 10C11.6346 10 11.3346 9.7 11.3346 9.33333C11.3346 8.96667 11.6346 8.66667 12.0013 8.66667C12.368 8.66667 12.668 8.96667 12.668 9.33333C12.668 9.7 12.368 10 12.0013 10Z" fill="#3E236E"/>
</svg>
