<svg width="30" height="30" viewBox="0 0 30 30" fill="none" xmlns="http://www.w3.org/2000/svg">
<path fill-rule="evenodd" clip-rule="evenodd" d="M0.333008 15C0.333008 6.89983 6.8995 0.333344 14.9997 0.333344C23.0999 0.333344 29.6663 6.89983 29.6663 15C29.6663 23.1002 23.0999 29.6667 14.9997 29.6667C6.8995 29.6667 0.333008 23.1002 0.333008 15Z" fill="#884DF0"/>
<path fill-rule="evenodd" clip-rule="evenodd" d="M22.0806 9.72391C22.6013 10.2446 22.6013 11.0888 22.0806 11.6095L13.8045 20.2762C13.2838 20.7969 12.4395 20.7969 11.9188 20.2762L7.91884 16.2762C7.39815 15.7555 7.39815 14.9113 7.91884 14.3906C8.43954 13.8699 9.28376 13.8699 9.80446 14.3906L12.8617 17.4478L20.195 9.72391C20.7157 9.20321 21.5599 9.20321 22.0806 9.72391Z" fill="white"/>
</svg>
