<svg width="100" height="100" viewBox="0 0 100 100" fill="none" xmlns="http://www.w3.org/2000/svg">
<g clip-path="url(#clip0_200_672)">
<path d="M1.59901 97.2622C3.21873 98.882 5.67759 99.3184 7.75557 98.3545L64.1519 74.0739C66.9122 72.794 67.5573 69.158 65.406 67.0064L31.9767 33.5772C29.8251 31.4256 26.1892 32.0707 24.9092 34.8312L0.506697 91.1057C-0.45692 93.1836 -0.0207164 95.6425 1.59901 97.2622Z" fill="#FFE266"/>
<path d="M48.5785 68.7547L7.12191 86.6031C5.65674 87.2825 3.93578 87.013 2.74685 85.9396L0.506697 91.1055C-0.45692 93.1836 -0.0207164 95.6423 1.59901 97.262C3.21873 98.8817 5.67759 99.3179 7.75557 98.3543L63.611 74.3066C62.3243 73.7908 48.7877 68.6576 48.5785 68.7547Z" fill="#EFAA66"/>
<path d="M65.7972 71.7934C69.6508 67.9398 64.048 56.089 53.283 45.324C42.5179 34.5589 30.6671 28.9561 26.8135 32.8097C22.9599 36.6633 28.5627 48.5141 39.3278 59.2792C50.0928 70.0442 61.9436 75.6471 65.7972 71.7934Z" fill="#FFE266"/>
<path d="M56.0305 66.8276C58.5584 64.2997 54.4638 56.1065 46.8849 48.5277C39.3061 40.9488 31.1129 36.8542 28.585 39.3821C26.0571 41.91 30.1517 50.1032 37.7306 57.682C45.3094 65.2609 53.5026 69.3555 56.0305 66.8276Z" fill="#EFAA66"/>
<path d="M62.3279 75.0185C56.1847 75.0185 46.671 69.4503 37.9189 60.6982C29.9716 52.7507 24.5257 43.9982 23.7072 37.8562C23.5611 36.7587 24.3319 35.7506 25.4294 35.6045C26.5259 35.4587 27.535 36.2291 27.6812 37.3266C28.3786 42.5582 33.51 50.6194 40.754 57.8632C50.0099 67.1191 58.5449 71.1548 62.5562 71.0049C63.6611 70.9646 64.5947 71.8221 64.6388 72.9285C64.6827 74.0346 63.8215 74.9672 62.7151 75.0111C62.5878 75.0159 62.458 75.0185 62.3279 75.0185Z" fill="#D0844B"/>
<path d="M40.8961 44.0717C40.4256 43.6012 40.0626 43.0101 39.8609 42.3269L38.0073 36.0525C37.3071 33.683 37.9389 31.1444 39.6559 29.4274L43.0256 26.0577C44.7428 24.3405 47.2814 23.7089 49.6508 24.4091L56.4004 26.3141L54.1239 18.1924C53.4788 16.0092 54.7259 13.7165 56.9091 13.0714C59.0924 12.4263 61.385 13.6734 62.0303 15.8566L63.884 22.131C64.584 24.5007 63.9523 27.0393 62.2354 28.7561L58.8656 32.1258C57.1487 33.8428 54.6101 34.4744 52.2406 33.7744L45.4221 31.5509L47.7673 39.9911C48.4124 42.1743 47.1653 44.467 44.9821 45.1121C43.4817 45.5553 41.9295 45.1051 40.8961 44.0717Z" fill="#CAB4EF"/>
<path d="M56.3995 26.3142L49.65 24.4092C47.6133 23.8074 45.4523 24.1903 43.7949 25.3997C44.259 27.2553 44.8493 29.7238 45.4211 31.5508L52.2395 33.7743C54.3728 34.4046 56.6427 33.955 58.3271 32.6063C57.7306 30.7388 56.9672 28.1905 56.3995 26.3142Z" fill="#A183E2"/>
<path d="M67.0015 41.1378C67.4719 41.6083 68.0633 41.9714 68.7463 42.173L75.0207 44.0267C77.39 44.7267 79.9288 44.095 81.6458 42.3781L85.0155 39.0083C86.7327 37.2912 87.3643 34.7526 86.6641 32.3831L84.7591 25.6336L92.8808 27.9098C95.064 28.5549 97.3569 27.3078 98.002 25.1246C98.6471 22.9414 97.4 20.6487 95.2168 20.0036L88.9423 18.15C86.5727 17.45 84.034 18.0818 82.3173 19.7986L78.9475 23.1683C77.2306 24.8853 76.5989 27.4239 77.299 29.7934L79.5223 36.6118L71.0821 34.2666C68.8988 33.6216 66.6062 34.8686 65.9611 37.0518C65.5177 38.5523 65.9681 40.1045 67.0015 41.1378Z" fill="#F7C4DB"/>
<path d="M86.6633 32.3832L84.7583 25.6336C82.7946 25.2105 80.0475 24.669 78.0876 24.2294C77.0382 25.8441 76.7311 27.8742 77.2982 29.7936L79.5215 36.6121C81.5544 37.114 83.7055 37.4602 85.6572 38.2595C86.879 36.5993 87.2677 34.4285 86.6633 32.3832Z" fill="#EF8BBD"/>
<path d="M76.5983 7.24136C75.2913 8.54836 73.172 8.54836 71.865 7.24136C70.558 5.93435 70.558 3.81508 71.865 2.50807C73.172 1.20107 75.2913 1.20107 76.5983 2.50807C77.9053 3.81528 77.9053 5.93435 76.5983 7.24136Z" fill="#FFA585"/>
<path d="M81.6477 62.8451C83.4961 62.8451 84.9946 61.3466 84.9946 59.4982C84.9946 57.6497 83.4961 56.1513 81.6477 56.1513C79.7992 56.1513 78.3008 57.6497 78.3008 59.4982C78.3008 61.3466 79.7992 62.8451 81.6477 62.8451Z" fill="#78EAC4"/>
<path d="M63.3386 62.4727C62.0315 63.7797 59.9123 63.7797 58.6053 62.4727C57.2982 61.1657 57.2982 59.0464 58.6053 57.7394C59.9123 56.4324 62.0315 56.4324 63.3386 57.7394C64.6456 59.0466 64.6456 61.1657 63.3386 62.4727Z" fill="#78EAC4"/>
<path d="M63.3386 62.4727C62.0315 63.7797 59.9123 63.7797 58.6053 62.4727C57.2982 61.1657 57.2982 59.0464 58.6053 57.7394C59.9123 56.4324 62.0315 56.4324 63.3386 57.7394C64.6456 59.0466 64.6456 61.1657 63.3386 62.4727Z" fill="#8BB6EF"/>
<path d="M18.2228 72.2849C17.9584 72.2849 17.6894 72.2321 17.4312 72.1209C16.4142 71.6831 15.9448 70.504 16.3828 69.487L18.9214 63.5906C19.3592 62.5739 20.5387 62.1036 21.5553 62.5422C22.5722 62.98 23.0417 64.1592 22.6037 65.1761L20.065 71.0725C19.7385 71.8308 18.9994 72.2849 18.2228 72.2849Z" fill="white"/>
<path d="M23.6017 59.7905C23.3373 59.7905 23.0685 59.7377 22.8099 59.6265C21.7932 59.1887 21.3237 58.0096 21.7617 56.9924L22.5355 55.1951C22.9733 54.1785 24.152 53.7083 25.1695 54.1469C26.1863 54.5847 26.6557 55.7638 26.2179 56.7809L25.4441 58.5783C25.1174 59.3364 24.3781 59.7905 23.6017 59.7905Z" fill="white"/>
<path d="M39.3332 1.62992L40.9798 6.26017C41.0504 6.45843 41.1899 6.61559 41.3661 6.69497L45.4798 8.54843C46.0609 8.81024 46.0609 9.73616 45.4798 9.99817L41.3661 11.8516C41.1899 11.931 41.0504 12.0882 40.9798 12.2862L39.3332 16.9165C39.1007 17.5706 38.2778 17.5706 38.0453 16.9165L36.3987 12.2862C36.3281 12.088 36.1886 11.9308 36.0124 11.8516L31.8987 9.99817C31.3176 9.73637 31.3176 8.81044 31.8987 8.54843L36.0124 6.69497C36.1886 6.61559 36.3281 6.45843 36.3987 6.26017L38.0453 1.62992C38.2778 0.975614 39.1007 0.975614 39.3332 1.62992Z" fill="#F7C4DB"/>
<path d="M95.1174 43.2547L96.3388 46.6892C96.3911 46.8364 96.4945 46.9528 96.6252 47.0118L99.6766 48.3865C100.108 48.5808 100.108 49.2676 99.6766 49.4618L96.6252 50.8366C96.4945 50.8955 96.3911 51.012 96.3388 51.1591L95.1174 54.5936C94.9448 55.0789 94.3346 55.0789 94.162 54.5936L92.9406 51.1591C92.8882 51.012 92.7848 50.8955 92.6541 50.8366L89.6027 49.4618C89.1715 49.2676 89.1715 48.5808 89.6027 48.3865L92.6541 47.0118C92.7848 46.9528 92.8882 46.8364 92.9406 46.6892L94.162 43.2547C94.3346 42.7696 94.9448 42.7696 95.1174 43.2547Z" fill="#CAB4EF"/>
<path d="M72.4064 17.3908C73.263 17.3908 73.9574 16.6964 73.9574 15.8398C73.9574 14.9832 73.263 14.2888 72.4064 14.2888C71.5499 14.2888 70.8555 14.9832 70.8555 15.8398C70.8555 16.6964 71.5499 17.3908 72.4064 17.3908Z" fill="#78EAC4"/>
<path d="M95.8891 6.24088C96.082 4.67076 94.9654 3.24155 93.3952 3.04863C91.825 2.85571 90.3957 3.97215 90.2028 5.54226C90.0099 7.11238 91.1264 8.5416 92.6967 8.73452C94.2669 8.92743 95.6962 7.81099 95.8891 6.24088Z" fill="#8BB6EF"/>
</g>
<defs>
<clipPath id="clip0_200_672">
<rect width="100" height="100" fill="white"/>
</clipPath>
</defs>
</svg>
