<svg width="527" height="527" viewBox="0 0 527 527" fill="none" xmlns="http://www.w3.org/2000/svg">
<g clip-path="url(#clip0_370_808)">
<path d="M527 0H0V527H527V0Z" fill="white"/>
<path fill-rule="evenodd" clip-rule="evenodd" d="M507.976 220.182C501.904 265.451 495.05 289.364 455.048 336.771C415.046 384.18 231.993 415.367 164.319 415.367C96.6441 415.367 13.2428 363.182 18.5065 302.719C23.7702 242.254 51.2316 192.836 116.962 186.752C184.135 180.535 243.14 209.325 309.088 193.885C366.103 180.535 383.548 129.651 422.707 113.598C501.904 81.1306 512.106 189.385 507.976 220.182Z" fill="#E0CFFF"/>
<path d="M467.231 242.291C464.994 246.083 436.669 265.274 419.488 268.114C416.163 268.663 412.533 268.852 409.644 267.116C407.938 266.09 406.667 264.491 405.459 262.908C402.698 259.291 400.064 255.576 397.564 251.773C396.249 249.775 394.946 247.689 394.5 245.34C393.318 239.117 398.333 233.529 403.29 229.587C414.684 220.525 428.024 213.923 442.14 210.362C444.638 209.731 447.288 209.197 449.764 209.913C453.781 211.075 456.184 215.141 457.716 219.032C459.25 222.924 460.445 227.181 463.509 230.027C464.209 230.677 469.468 238.498 467.231 242.291Z" fill="white"/>
<path fill-rule="evenodd" clip-rule="evenodd" d="M315.036 407.62C287.546 412.321 300.648 392.342 304.439 367.334C310.668 326.243 318.349 263.799 318.349 263.799C318.349 263.799 323.359 358.95 323.359 382.118C323.359 405.287 318.349 407.053 315.036 407.62Z" fill="#6D7975"/>
<path d="M285.663 384.981C286.365 391.598 287.105 398.355 289.917 404.385C288.383 390.73 286.849 377.073 285.314 363.418C285.125 361.731 285.181 359.585 286.732 358.897C288.046 374.317 290.002 389.682 292.597 404.939C292.905 406.751 290.184 407.786 288.656 406.765C287.129 405.745 286.64 403.759 286.292 401.954C283.76 388.807 282.368 375.441 282.137 362.055C278.913 362.689 276.652 365.815 276 369.035C275.348 372.255 275.977 375.58 276.605 378.805C278.626 389.186 280.648 399.567 282.669 409.947C283.615 414.802 284.561 419.819 283.518 424.654C279.505 406.335 276.279 387.845 273.852 369.249C243.066 388.075 203.397 391.576 169.789 378.432C162.449 375.562 155.159 371.758 150.311 365.544C146.492 360.649 144.454 354.572 143.386 348.456C139.595 326.734 147.365 304.578 157.911 285.214C161.913 277.866 166.47 270.213 166.147 261.853C166.036 258.975 165.415 255.788 167.096 253.448C167.334 253.882 156.092 173.469 160.602 155.681C171.458 112.86 206.727 107.061 229.308 107.59C244.458 107.944 340.495 127.029 354.37 152.983C372.607 187.095 368.735 215.774 365.496 234.684C364.531 240.316 318.363 263.383 318.35 263.5C315.711 288.037 297.998 341.504 283.143 361.211C283.983 369.134 284.824 377.058 285.663 384.981Z" fill="white"/>
<path fill-rule="evenodd" clip-rule="evenodd" d="M63.9857 285.141C55.3273 281.684 45.0092 282.709 37.2031 287.802C36.4474 288.294 35.3609 287.745 34.9868 286.925C34.6127 286.105 34.7526 285.151 34.944 284.27C37.4371 272.797 47.3688 264.019 58.4138 259.984C69.4588 255.95 81.5402 255.939 93.2811 256.628C94.4461 256.697 95.6638 256.787 96.6574 257.398C97.651 258.009 98.3199 259.315 97.8245 260.37C93.2059 270.205 89.727 280.572 87.4785 291.2C87.1138 292.923 85.3283 294.066 83.5695 294.21C81.8108 294.353 80.0878 293.705 78.4921 292.954C73.5179 290.612 69.0916 287.179 63.9857 285.141Z" fill="white"/>
<path fill-rule="evenodd" clip-rule="evenodd" d="M330.118 111.944C330.548 105.363 330.052 98.7212 328.649 92.277L328.619 92.1393C328.381 91.0494 328.136 89.9287 328.355 88.8381C328.841 86.4266 331.52 84.9749 333.98 85.0255C336.439 85.0761 338.718 86.2502 340.895 87.397C351.333 92.896 361.96 98.5335 370.178 106.999C370.436 113.852 368.821 120.614 367.227 127.29L367.077 127.918C360.421 155.821 354.971 184.013 350.747 212.387C350.341 215.106 349.574 218.314 346.994 219.266C345.144 219.95 342.993 219.077 341.678 217.606C340.363 216.135 339.735 214.183 339.297 212.26C338.215 207.515 338.085 202.556 338.917 197.761C339.425 194.828 340.283 191.976 341.143 189.123L341.143 189.123V189.122V189.121C341.915 186.561 342.686 184 343.204 181.379C343.722 178.758 343.983 176.094 344.237 173.434C345.584 159.292 346.727 145.129 347.665 130.954C347.797 128.951 347.918 126.885 347.261 124.988C346.094 121.613 342.695 119.48 339.261 118.503C338.668 118.334 338.068 118.191 337.466 118.047C336.067 117.714 334.669 117.38 333.392 116.73C331.568 115.8 329.985 113.987 330.118 111.944ZM336.497 111.403C341.351 112.427 346.094 113.974 350.619 116.008C351.531 116.418 352.489 116.897 352.981 117.766C353.383 118.476 353.406 119.331 353.418 120.147C353.561 129.728 353.591 139.335 352.576 148.863C351.969 154.568 350.988 160.224 350.009 165.879C349.698 167.669 349.388 169.459 349.09 171.25C347.613 180.116 346.425 189.029 345.528 197.971C344.877 204.459 344.399 211.165 346.417 217.366C347.453 217.177 347.852 215.929 348.048 214.895L366.699 116.587C367.151 114.205 367.602 111.742 367.07 109.377C366.138 105.236 362.462 102.357 358.919 100.02C352.097 95.5233 344.836 91.6931 337.272 88.602C336.643 96.1838 336.384 103.796 336.497 111.403ZM346.088 175.967C349.503 158.436 351.046 140.54 350.682 122.682C350.655 121.333 350.581 119.883 349.757 118.816C349.152 118.034 348.229 117.576 347.327 117.172C343.938 115.654 340.377 114.525 336.733 113.813C335.679 113.607 334.128 113.831 334.174 114.904L347.27 120.316C348.039 120.633 348.857 120.992 349.291 121.701C349.716 122.396 349.675 123.27 349.62 124.082L346.088 175.967ZM333.902 86.8679C332.822 86.1518 331.262 86.8896 330.66 88.0371C330.059 89.1846 330.151 90.5576 330.287 91.8456C330.487 93.7357 330.75 95.6266 331.014 97.5182C331.744 102.765 332.474 108.014 331.854 113.25C332.844 113.59 333.95 112.892 334.43 111.961C334.911 111.031 334.923 109.939 334.925 108.891L334.958 90.0088C334.96 88.855 334.863 87.5052 333.902 86.8679ZM343.598 216.94C343.004 212.273 342.848 207.552 343.134 202.856C343.286 200.345 343.565 197.844 343.844 195.342C344.212 192.034 344.58 188.727 344.657 185.401C341.937 193.498 340.91 202.157 341.661 210.665C341.856 212.878 342.219 215.199 343.598 216.94ZM345.095 180.619C345.533 180.423 345.717 179.808 345.458 179.404C345.014 179.623 344.825 180.244 345.073 180.673L345.095 180.619ZM341.028 140.072C319.382 126.723 294.906 118.725 270.428 111.823C262.603 109.617 254.713 107.502 246.634 106.597C222.695 103.916 198.427 112.175 178.522 125.741C170.539 131.183 162.836 137.875 159.387 146.899C156.828 153.595 156.846 160.966 157.092 168.13C157.944 192.837 161.114 217.399 164.281 241.917C166.756 241.47 167.001 238.046 166.642 235.556C163.35 212.692 161.504 189.618 161.119 166.521C161.01 160.044 161.044 153.404 163.286 147.326C167.344 136.324 177.808 129.13 188.076 123.467C201.01 116.335 215.069 110.34 229.835 110.021C247.721 109.636 264.675 117.57 280.299 126.284C289.01 131.141 297.842 136.567 303.384 144.859C308.416 152.389 310.244 161.566 311.565 170.526C315.755 198.962 315.908 227.82 316.054 256.563C316.059 257.726 315.988 259.058 315.078 259.781C314.455 260.275 313.604 260.337 312.81 260.379L283.63 261.898C297.227 265.807 312.311 264.265 324.836 257.685L357.26 240.652C360.286 239.062 363.409 237.392 365.496 234.684C368.366 230.957 368.777 225.943 368.912 221.241C369.412 203.873 367.676 186.443 363.759 169.516C365.117 187.827 365.305 206.225 364.322 224.56C364.155 227.691 363.903 230.976 362.201 233.609C360.382 236.422 357.22 238.014 354.208 239.479L319.217 256.486C320.665 229.298 319.542 201.974 315.867 174.997C314.631 165.923 313.054 156.723 308.902 148.561C299.089 129.273 277.369 119.732 257.295 111.647C287.307 120.427 317.661 129.352 344.661 145.126C345.012 142.947 342.907 141.231 341.028 140.072ZM452.855 223.064C454.41 227.073 456.598 231.347 460.618 232.876C461.57 232.949 462.139 231.686 461.827 230.784C461.566 230.03 460.952 229.481 460.349 228.941C460.305 228.902 460.261 228.863 460.218 228.824L460.151 228.764L460.098 228.716L460.065 228.686C460.042 228.665 460.019 228.644 459.996 228.622C457.438 226.245 456.182 222.886 454.945 219.577L454.944 219.574C454.7 218.921 454.457 218.269 454.204 217.627C452.671 213.736 450.268 209.671 446.25 208.508C443.775 207.792 441.126 208.326 438.627 208.956C424.511 212.518 411.17 219.12 399.777 228.182C394.82 232.124 389.805 237.712 390.987 243.934C391.434 246.284 392.737 248.37 394.051 250.368C396.551 254.171 399.186 257.886 401.946 261.504C403.154 263.086 404.425 264.685 406.131 265.711C409.019 267.447 412.65 267.258 415.975 266.708C433.157 263.868 447.861 253.19 461.855 242.824C462.583 242.284 463.34 241.71 463.718 240.885C464.095 240.062 463.934 238.915 463.134 238.49C462.217 238.002 461.134 238.675 460.316 239.316C447.294 249.511 433.385 259.473 417.24 263.054C414.179 263.733 410.806 264.133 408.052 262.634C405.992 261.514 404.6 259.498 403.286 257.554L395.142 245.503C394.456 244.488 393.744 243.397 393.719 242.172C393.694 240.947 394.684 239.622 395.899 239.78C407.315 241.265 418.787 242.332 430.281 242.979C431.196 243.031 432.153 243.072 432.987 242.691C434.061 242.201 434.716 241.114 435.289 240.082C440.155 231.309 443.872 221.9 446.316 212.17C449.563 214.5 451.079 218.444 452.526 222.208L452.526 222.211C452.636 222.497 452.746 222.781 452.855 223.064ZM442.806 211.4C440.632 219.538 437.414 227.396 433.257 234.721C432.56 235.949 431.787 237.214 430.568 237.927C429.018 238.835 427.089 238.664 425.304 238.465L396.865 235.291C401.583 229.057 408.592 225.01 415.596 221.533C422.225 218.242 429.031 215.306 435.974 212.742C438.172 211.931 440.477 211.144 442.806 211.4ZM285.663 384.981C286.365 391.598 287.104 398.355 289.916 404.386L285.314 363.418C285.124 361.731 285.18 359.585 286.732 358.897C288.044 374.318 290.001 389.683 292.596 404.94C292.904 406.751 290.184 407.786 288.655 406.765C287.127 405.745 286.639 403.759 286.291 401.955C283.759 388.808 282.367 375.441 282.135 362.055C278.912 362.69 276.651 365.815 275.999 369.035C275.347 372.255 275.976 375.58 276.604 378.805L282.669 409.947C283.615 414.802 284.56 419.819 283.516 424.654C279.504 406.335 276.278 387.845 273.851 369.249C243.064 388.075 203.395 391.576 169.787 378.433C162.447 375.563 155.158 371.758 150.31 365.545C146.491 360.649 144.453 354.572 143.385 348.456C139.594 326.734 147.364 304.578 157.91 285.214C158.184 284.709 158.462 284.203 158.74 283.696C162.514 276.812 166.447 269.64 166.146 261.854C166.126 261.339 166.09 260.814 166.053 260.287C165.886 257.862 165.715 255.37 167.095 253.449C168.946 256.817 169.652 260.802 169.068 264.602C200.94 263.23 232.86 262.953 264.751 263.773C265.123 265.24 262.999 265.921 261.486 265.898C231.725 265.454 201.949 265.961 172.22 267.418C171.279 267.464 170.291 267.526 169.492 268.027C168.653 268.554 168.164 269.48 167.712 270.362C159.275 286.871 150.809 303.621 146.731 321.708C144.633 331.008 143.83 341.188 148.129 349.698C149.759 352.926 152.066 355.778 154.641 358.318C168.466 371.954 189.167 376.134 208.582 375.808C220.973 375.599 233.337 373.818 245.283 370.52C257.948 367.024 270.579 361.513 279.224 351.619C284.3 345.808 287.75 338.772 290.772 331.673C296.541 318.118 300.967 303.99 303.962 289.566C305.838 289.961 305.864 292.613 305.432 294.48C300.077 317.581 293.852 342.204 276.215 358.055C260.286 372.371 237.84 376.811 216.456 378.009C204.104 378.7 191.557 378.484 179.593 375.335C167.629 372.186 156.206 365.888 148.61 356.122C150.825 364.569 158.329 370.597 166.141 374.497C186.654 384.74 210.876 384.199 233.525 380.639C248.612 378.267 264.098 374.374 275.84 364.607C285.876 356.259 292.272 344.336 297.087 332.201C302.416 318.769 306.113 304.69 308.069 290.373C309.289 289.603 310.191 291.757 310.038 293.19C307.398 317.728 297.997 341.504 283.142 361.211L285.663 384.981ZM271.398 426.941C270.09 424.731 269.246 422.246 268.941 419.696L267.06 426.068L262.315 407.97C261.947 406.566 261.051 404.809 259.631 405.111C258.251 405.404 258.096 407.298 258.302 408.694C259.336 415.715 261.308 422.597 264.149 429.101L259.101 424.672C258.856 426.781 259.411 428.972 260.63 430.709C258.002 428.774 254.476 428.114 251.325 428.968C253.576 432.096 256.633 434.64 260.119 436.286L255.854 430.333C259.302 432.323 262.913 434.028 266.639 435.425L263.026 430.894L267.49 432.132C264.074 424.36 260.594 416.292 260.677 407.804C261.97 414.709 263.863 421.502 266.328 428.081C266.745 429.197 267.209 430.349 268.098 431.14C268.989 431.931 270.434 432.229 271.366 431.489C272.091 430.913 272.302 429.92 272.466 429.009L274.477 417.858L276.686 431.687C278.36 427.457 283.806 426.397 288.355 426.369C294.362 426.331 300.413 426.993 306.449 427.653H306.45H306.45C317.332 428.843 328.162 430.027 338.588 427.1C338.282 428.712 337.747 430.281 337.002 431.743C345.415 430.518 353.928 429.981 362.428 430.137C366.018 430.204 369.618 430.393 373.219 430.582H373.219H373.22H373.221C382.74 431.082 392.259 431.581 401.585 429.813L339.687 429.27C340.85 429.202 341.741 427.85 341.344 426.755C340.948 425.661 339.399 425.192 338.462 425.883C337.853 423.948 335.116 423.088 333.509 424.326C334.441 421.454 336.284 418.884 338.705 417.08C335.972 416.934 333.196 417.77 331 419.403L337.657 388.59C337.094 388.106 336.156 388.431 335.74 389.047C335.328 389.655 335.282 390.43 335.239 391.165L335.237 391.188C334.614 401.709 330.904 412.03 324.685 420.54L322.243 413.474L318.743 421.913C317.157 420.685 314.907 420.375 313.048 421.129C313.523 422.934 314.966 424.451 316.745 425.016L317.572 422.797L323.04 426.46C320.951 424.27 320.497 420.687 321.977 418.046L325.285 423.596L331.699 410.912C331.735 416.005 329.552 420.819 327.412 425.44C329.738 423.619 331.737 421.382 333.286 418.867C334.781 421.516 333.148 425.066 330.547 426.643C327.946 428.219 324.73 428.305 321.691 428.176C317.055 427.98 312.384 427.398 307.718 426.817C297.24 425.51 286.791 424.208 276.837 427.293L275.402 414.059C273.21 418.021 271.838 422.434 271.398 426.941ZM333.847 427.294C333.622 427.025 333.623 426.594 333.85 426.327L334.031 426.395C334.334 425.668 335.613 425.727 335.848 426.48C335.258 426.905 334.566 427.187 333.847 427.294ZM367.664 286.689C360.455 283.046 351.876 284.029 343.874 285.126C341.613 285.436 339.307 285.761 337.259 286.768C335.211 287.775 333.427 289.598 333.074 291.853C313.531 289.413 294.802 280.811 280.217 267.575C277.052 264.702 273.821 260.611 275.245 256.581C275.693 255.314 276.563 254.245 277.469 253.252C284.269 245.797 293.644 241.313 302.771 237.009C292.427 237.917 282.502 242.948 275.655 250.754C274.086 252.544 272.64 254.543 272.1 256.86C270.766 262.583 275.21 267.951 279.659 271.791C293.852 284.04 311.704 291.995 330.304 294.358C331.419 294.5 331.477 296.068 331.375 297.187C330.922 302.168 333.637 307.028 337.399 310.322C341.162 313.617 345.876 315.595 350.552 317.366C365.035 322.852 380.066 326.892 395.348 329.408C396.358 329.575 397.744 329.496 397.957 328.495C394.431 326.162 390.187 325.273 386.036 324.404L386.02 324.401L385.974 324.391L385.617 324.316L385.364 324.263C374.842 322.048 364.46 319.162 354.303 315.631C350.137 314.182 345.959 312.6 342.327 310.097C338.693 307.594 335.608 304.059 334.446 299.804C333.872 297.702 334.651 294.565 336.813 294.83C345.618 295.906 354.665 296.969 363.262 294.786C365.207 294.292 367.235 293.546 368.421 291.926C369.607 290.307 369.455 287.595 367.664 286.689ZM345.455 292.508C342.433 291.987 339.345 291.848 336.288 292.094C337.773 289.273 341.402 288.53 344.561 288.1C351.428 287.165 358.579 286.253 365.158 288.43C365.593 288.574 366.057 288.757 366.292 289.15C366.602 289.667 366.375 290.371 365.935 290.783C365.496 291.196 364.896 291.382 364.316 291.545C358.203 293.253 351.71 293.585 345.455 292.508ZM245.443 434.852C250.501 434.71 255.589 435.828 260.122 438.077C258.911 439.818 256.475 440.062 254.355 440.143L198.95 442.245C198.443 442.182 198.347 441.398 198.706 441.034C199.066 440.67 199.629 440.624 200.14 440.599L254.226 437.961C251.101 437.674 248.052 436.595 245.443 434.852ZM138.817 251.614C138.028 255.391 141.223 259.419 145.07 259.704C138.779 269.185 127.447 273.864 116.558 277.167C109.763 279.228 102.225 280.921 95.7468 278.012C94.9429 278.503 95.8002 279.713 96.649 280.122C102.953 283.16 110.428 281.467 117.133 279.466C126.968 276.531 137.104 272.738 143.797 264.957C144.07 264.638 144.343 264.31 144.618 263.981V263.98C146.34 261.91 148.136 259.751 150.726 259.272C159.063 257.73 166.006 252.509 172.868 247.349H172.869V247.348H172.869C174.425 246.178 175.977 245.011 177.539 243.891C187.039 237.083 197.575 231.723 208.672 228.054C209.653 227.73 210.844 227.129 210.757 226.101C196.999 227.363 184.973 235.568 173.884 243.809L173.514 244.084C165.978 249.687 158.103 255.542 148.83 256.93C151.858 254.541 151.219 249.021 147.802 247.231C144.384 245.441 139.607 247.838 138.817 251.614ZM141.385 253.922C140.767 252.09 141.721 249.911 143.417 248.984C143.898 248.72 144.437 248.544 144.986 248.544C146.798 248.542 148.121 250.48 148.132 252.291C148.144 254.103 147.226 255.773 146.334 257.35C144.246 257.03 142.06 255.922 141.385 253.922ZM347.26 213.559C346.748 212.988 346.905 212.219 347.068 211.423C347.183 210.86 347.302 210.283 347.188 209.752C347.09 209.293 346.822 208.901 346.552 208.509C346.315 208.161 346.076 207.812 345.954 207.415C345.981 206.889 346.684 206.619 347.163 206.838C347.642 207.055 347.911 207.57 348.078 208.069C348.688 209.89 348.374 211.995 347.26 213.559ZM300.88 173.596C302.161 170.556 304.703 167.861 307.944 167.245C308.992 167.045 308.96 165.316 308.041 164.773C307.122 164.229 305.942 164.55 304.978 165.009C300.488 167.146 297.654 171.85 296.544 176.696C295.433 181.543 295.8 186.59 296.173 191.548L298.158 217.903C298.226 218.799 298.308 219.74 298.807 220.488C299.824 222.01 302.003 222.057 303.83 221.941L313.075 221.354C311.021 219.744 308.263 219.066 305.695 219.54C304.196 219.817 302.69 218.828 301.896 217.527C301.101 216.225 300.868 214.668 300.672 213.157C299.383 203.266 298.91 193.268 299.26 183.3C299.375 180.004 299.597 176.635 300.88 173.596ZM324.487 407.527C323.962 407.908 323.435 407.04 323.359 406.396C319.786 376.362 319.247 346.06 318.712 315.819L318.352 295.433C318.341 294.852 318.349 294.216 318.723 293.77C319.365 293.004 320.717 293.356 321.277 294.183C321.839 295.01 321.84 296.082 321.821 297.082C321.271 326.84 321.632 356.657 324.482 386.284C324.516 386.644 324.551 387.005 324.586 387.366C325.239 394.096 325.902 400.928 324.487 407.527ZM294.782 218.212C293.999 217.782 293.034 218.025 292.177 218.278C252.566 229.993 213.046 242.074 174.108 255.861C173.379 256.119 172.545 256.491 172.378 257.246C172.201 258.045 172.954 258.809 173.759 258.957C174.565 259.106 175.379 258.817 176.148 258.535C215.17 244.18 254.78 231.421 294.845 220.302C295.705 220.064 295.564 218.641 294.782 218.212Z" fill="#00160A"/>
<path fill-rule="evenodd" clip-rule="evenodd" d="M435.911 397.419C434.989 397.825 433.99 398.201 432.997 398.03C432.005 397.86 431.076 396.928 431.276 395.941C433.098 386.914 430.81 377.138 425.168 369.858C423.192 367.307 420.838 365.063 418.911 362.473C417.697 360.841 416.617 358.789 417.233 356.851C418.109 354.093 421.637 353.422 424.524 353.225C431.236 352.767 437.949 352.31 444.661 351.853C447.753 351.642 451.316 351.61 453.38 353.923C459.127 360.36 470.329 360.792 476.554 354.817C477.518 353.892 478.731 355.733 478.693 357.068C478.573 361.265 476.843 365.396 473.937 368.426C473.251 369.141 472.374 369.842 471.389 369.739C470.404 369.636 469.677 368.222 470.463 367.618C472.148 366.324 473.864 364.997 475.046 363.23C476.228 361.464 476.801 359.148 475.995 357.182C471.659 362.667 467.282 368.119 462.864 373.538C455.203 382.934 447.011 392.544 435.911 397.419ZM448.018 369.772C446.915 370.077 445.739 369.842 444.638 369.531C436.716 367.293 429.417 361.103 421.313 362.551C430.763 370.162 435.78 382.922 434.044 394.93C440.27 393.597 445.186 388.948 449.596 384.356C456.123 377.558 462.32 370.443 468.159 363.045C463.962 363.011 459.781 361.8 456.215 359.588C451.81 360.677 452.392 368.562 448.018 369.772ZM453.771 357.273C451.146 354.179 446.431 354.275 442.389 354.63C437.118 355.093 431.846 355.556 426.575 356.019C424.435 356.207 421.977 356.582 420.861 358.418C429.985 360.328 438.879 363.329 447.297 367.334C448.379 363.934 450.548 360.889 453.409 358.756C453.731 358.515 454.099 358.208 454.056 357.808C454.034 357.605 453.904 357.43 453.771 357.273Z" fill="#FFB61D"/>
<path fill-rule="evenodd" clip-rule="evenodd" d="M62.9643 283.497C55.0247 280.321 45.5631 281.263 38.405 285.941C37.712 286.394 36.7157 285.889 36.3726 285.135C36.0296 284.382 36.1579 283.506 36.3333 282.697C38.6195 272.157 47.7268 264.092 57.855 260.386C67.9831 256.68 79.0612 256.669 89.8282 257.303C90.8962 257.366 92.0128 257.449 92.9241 258.011C93.8355 258.572 94.4482 259.771 93.9943 260.74C89.7586 269.775 86.5685 279.299 84.5069 289.062C84.1724 290.645 82.5352 291.696 80.9226 291.828C79.31 291.96 77.7297 291.364 76.266 290.674C71.705 288.523 67.6463 285.369 62.9643 283.497ZM63.8718 272.832C63.1643 273.407 62.0583 273.103 61.3925 272.48C60.7266 271.858 60.3473 270.995 59.8239 270.249C57.0166 266.245 50.5746 266.577 46.756 269.632C42.9374 272.687 41.0896 277.515 39.407 282.107C50.6097 277.241 64.4078 278.988 74.0449 286.491C75.361 287.516 76.6666 288.67 78.2869 289.064C79.9072 289.459 81.9485 288.75 82.3588 287.134C84.5512 278.498 87.2529 269.993 90.4451 261.677C84.32 269.29 71.4563 266.67 63.8718 272.832ZM61.4341 268.231C62.0632 269.021 63.2054 269.231 64.1998 269.053C65.1941 268.874 66.0974 268.379 67.0239 267.976C70.2135 266.59 73.7463 266.28 77.1661 265.647C80.586 265.012 84.1127 263.939 86.52 261.429C81.0884 261.413 75.6568 261.397 70.2256 261.38C64.7671 261.364 58.8849 261.479 54.4998 264.73C57.1693 264.827 59.7706 266.141 61.4341 268.231Z" fill="#FFB61D"/>
<path fill-rule="evenodd" clip-rule="evenodd" d="M318.044 282.769C318.032 277.991 318.019 273.213 318.006 268.436C318.002 267.064 317.999 265.692 317.995 264.319C317.992 263.374 318.151 262.19 319.051 261.895C319.731 261.673 320.479 262.161 320.797 262.803C321.115 263.444 321.112 264.191 321.1 264.906C321.001 271.574 320.902 278.241 320.803 284.907C320.788 285.867 320.628 287.046 319.73 287.383C318.233 286.535 318.049 284.489 318.044 282.769Z" fill="#00160A"/>
<path fill-rule="evenodd" clip-rule="evenodd" d="M308.509 278.347C307.817 278.65 307.46 277.51 307.567 276.763C307.949 274.088 308.333 271.406 308.984 268.783C309.389 267.15 309.973 265.432 311.321 264.427C312.671 263.421 314.987 263.597 315.646 265.144C315.966 265.894 315.833 266.751 315.686 267.552C314.778 272.515 313.555 277.421 312.027 282.23C311.962 282.433 311.891 282.646 311.737 282.795C311.361 283.155 310.682 282.913 310.421 282.461C310.161 282.01 310.195 281.455 310.236 280.935C310.858 280.89 311.147 280.159 311.296 279.555C311.905 277.085 312.515 274.617 313.123 272.148C313.597 270.227 314.029 268.039 312.926 266.396C311.794 267.093 311.368 268.504 311.031 269.792C310.352 272.381 309.674 274.97 308.996 277.559C308.915 277.869 308.802 278.218 308.509 278.347Z" fill="#00160A"/>
</g>
<defs>
<clipPath id="clip0_370_808">
<rect width="527" height="527" fill="white"/>
</clipPath>
</defs>
</svg>
