<svg width="196" height="193" viewBox="0 0 196 193" fill="none" xmlns="http://www.w3.org/2000/svg">
<g clip-path="url(#clip0_291_895)">
<path d="M174.937 29.1314C185.531 41.6651 189.806 58.4668 189.951 75.4078C190.136 92.2997 186.186 109.424 175.593 132.148C164.999 154.873 147.668 183.211 124.622 188.888C101.575 194.565 72.7584 177.597 50.8829 154.873C28.9447 132.148 13.8907 103.686 19.1971 80.4104C24.438 57.1343 49.9467 39.0928 71.8794 26.5154C93.8094 13.9817 112.071 6.95848 129.726 7.60292C147.338 8.24462 164.344 16.6004 174.937 29.1314Z" fill="#CACEE2"/>
<path d="M68.3385 82.1999L65.0352 82.8303L77.0392 145.781L80.3426 145.151L68.3385 82.1999Z" fill="#DFDFDF"/>
<path d="M65.9801 78.3705C64.3941 78.3705 53.8413 76.967 53.3418 76.967C52.8422 76.967 51.6221 77.2837 51.6221 78.1002C51.6221 80.8636 60.4989 83.3103 69.515 83.3103C78.531 83.3103 65.9801 78.3705 65.9801 78.3705Z" fill="black"/>
<path d="M36.4209 177.578C55.4311 177.578 70.8419 162.162 70.8419 143.144C70.8419 124.127 55.4311 108.711 36.4209 108.711C17.4108 108.711 2 124.127 2 143.144C2 162.162 17.4108 177.578 36.4209 177.578Z" stroke="#EF8BBD" stroke-width="16" stroke-linecap="round" stroke-linejoin="round"/>
<path d="M159.212 177.578C178.222 177.578 193.633 162.162 193.633 143.144C193.633 124.127 178.222 108.711 159.212 108.711C140.202 108.711 124.791 124.127 124.791 143.144C124.791 162.162 140.202 177.578 159.212 177.578Z" stroke="#EF8BBD" stroke-width="16" stroke-linecap="round" stroke-linejoin="round"/>
<path d="M136.789 77.0044L114.743 84.8315L115.525 87.0343L137.571 79.2073L136.789 77.0044Z" fill="black"/>
<path d="M159.748 139.041L128.479 81.9062L125.829 83.3579L157.098 140.493L159.748 139.041Z" fill="#DFDFDF"/>
<path d="M142.083 108.012H68.9805V110.093H142.083V108.012Z" fill="#DFDFDF"/>
<path d="M139.055 106.575L80.2676 151.586L83.2954 155.544L142.083 110.532L139.055 106.575Z" fill="#DFDFDF"/>
<path d="M38.4766 139.764C43.9522 139.764 79.8444 142.058 79.8444 142.058C78.365 146.5 73.2578 159.826 73.2578 159.826C70.6674 159.086 39.5875 144.649 39.5875 144.649L38.4766 139.764Z" fill="#DFDFDF"/>
<path d="M70.5457 106.358L34.1611 140.935L36.7142 143.623L73.0988 109.047L70.5457 106.358Z" fill="#DFDFDF"/>
<path d="M76.5387 161.721C81.7819 161.721 86.0324 157.469 86.0324 152.224C86.0324 146.979 81.7819 142.727 76.5387 142.727C71.2954 142.727 67.0449 146.979 67.0449 152.224C67.0449 157.469 71.2954 161.721 76.5387 161.721Z" fill="#DFDFDF"/>
<path d="M74.904 126.157C74.055 126.894 68.7295 131.859 68.7295 131.859L81.4333 146.203L83.7808 144.07L78.791 130.144L74.904 126.157Z" fill="black"/>
<path d="M97.2646 16.7673L70.9658 -3L39.6328 38.7167L65.9315 58.484L97.2646 16.7673Z" fill="#A9A5A5"/>
<path d="M93.2139 68.0133C96.1101 68.9963 116.277 86.1202 118.45 89.326C116.752 97.092 81.8722 129.497 78.3592 130.867C76.4757 129.753 74.5049 127.353 74.5049 125.98C75.5312 124.341 91.3851 99.4404 91.3851 99.4404C91.3851 99.4404 80.7285 66.6288 93.2139 68.0133Z" fill="#56CAD8"/>
<path d="M121.294 87.3373C123.322 87.0286 124.671 84.836 124.307 82.4401C123.943 80.0441 122.003 78.3521 119.975 78.6608C117.946 78.9695 116.597 81.162 116.961 83.558C117.326 85.9539 119.266 87.646 121.294 87.3373Z" fill="#B26C4A"/>
<path d="M130.797 84.4561C132.675 84.1703 133.931 82.1873 133.602 80.0269C133.274 77.8665 131.485 76.3469 129.607 76.6327C127.729 76.9185 126.473 78.9015 126.802 81.0619C127.13 83.2222 128.919 84.7419 130.797 84.4561Z" fill="#DE8E68"/>
<path d="M69.985 52.6205C67.935 53.893 60.8652 61.76 60.8652 70.3697C60.8652 81.4562 83.131 98.7931 91.1889 104.23C89.633 108.258 74.2242 141.348 73.7192 142.904C74.9202 143.895 78.5261 145.239 79.8691 145.239C87.2883 139.3 107.927 107.829 108.282 104.795C108.637 101.761 91.1071 68.6631 91.1071 68.6631L69.985 52.6205Z" fill="#74D5DE"/>
<path d="M112.16 41.4249C112.433 43.2681 113.49 50.9822 114 51.886C114.511 52.7899 128.997 75.5471 129.78 76.6831C129.663 77.6634 127.979 79.269 126.805 79.0724C125.317 78.0157 111.453 60.2582 111.453 60.2582C111.453 60.2582 97.2402 41.7007 112.16 41.4249Z" fill="#9F5536"/>
<path d="M107.747 30.6934C110.749 29.7923 113.531 38.4484 113.02 41.7006C111.383 43.6585 106.952 44.09 105.855 43.5821C105.577 41.8972 104.651 31.6218 107.747 30.6934Z" fill="#FCC486"/>
<path d="M98.8477 19.9537C103.24 19.9537 109.493 25.0027 109.493 30.0762C109.493 41.4658 96.3283 70.2605 92.3293 71.1999C86.7226 72.5188 68.9717 55.971 68.9717 52.9564C68.9799 46.7114 89.9955 19.9537 98.8477 19.9537Z" fill="#FED385"/>
<path d="M103.778 12.8731C103.603 13.6131 100.415 19.3011 99.0312 20.833C99.1787 21.5757 102.17 24.1971 103.778 24.1098C104.346 23.2578 106.546 19.3884 107.365 18.7822C108.184 18.176 106.298 13.0697 103.778 12.8731Z" fill="#9F5536"/>
<path d="M69.9844 52.6205C75.9732 54.8596 99.4646 51.0367 106.065 47.9593C105.661 41.8535 105.691 29.4782 96.4757 17.8156" stroke="#DFDFDF" stroke-width="7" stroke-miterlimit="10" stroke-linecap="round"/>
<path d="M117.208 14.5621C119.95 9.81063 119.421 4.36952 116.027 2.40899C112.632 0.448466 107.658 2.71093 104.915 7.46235C102.173 12.2138 102.702 17.6549 106.096 19.6154C109.491 21.5759 114.466 19.3135 117.208 14.5621Z" fill="#B26C4A"/>
<path d="M104.037 8.02071C103.983 6.9776 105.795 1.65009 108.732 0.101812C111.669 -1.44647 113.507 -0.381514 115.554 -0.381514C117.394 -0.381514 118.854 -1.27717 120.882 -1.15156C123.516 -0.987719 123.846 1.62279 124.259 2.85977C124.805 4.49817 127.48 4.66201 128.705 7.77495C129.363 9.44884 126.153 12.7174 123.38 12.7174C121.758 12.7174 119.285 11.789 118.562 11.3521C118.715 10.7151 118.835 10.0708 118.922 9.42154C117.942 9.42154 111.877 8.2064 111.383 8.2337C110.889 8.26101 109.076 10.1015 108.91 10.4865C108.347 10.3281 105.135 10.137 104.037 8.02071Z" fill="#FD8369"/>
<path d="M104.373 12.1987C105.653 12.1987 106.691 11.1607 106.691 9.88034C106.691 8.59996 105.653 7.56201 104.373 7.56201C103.093 7.56201 102.056 8.59996 102.056 9.88034C102.056 11.1607 103.093 12.1987 104.373 12.1987Z" fill="#DE8E68"/>
<path d="M94.1966 23.1431C99.7979 20.8767 107.515 35.2263 107.747 40.4145C106.783 41.9764 96.6233 45.7311 94.5624 45.4307C91.5734 41.9764 87.9539 25.669 94.1966 23.1431Z" fill="#FED892"/>
<path d="M95.0811 44.6388C95.8235 46.6377 98.9189 55.8345 99.8579 58.2703C100.797 60.706 114.778 79.0233 116.932 80.7955C119.476 81.5027 120.494 80.405 120.729 78.996C120.221 77.5842 109.881 55.059 109.101 52.9045C108.32 50.7501 106.319 41.5832 106.281 40.3681C104.523 39.2322 96.0637 41.3484 95.0811 44.6388Z" fill="#B26C4A"/>
<path d="M69.5863 53.6227L43.2861 33.8555" stroke="#F9F9F9" stroke-width="7" stroke-miterlimit="10"/>
<path d="M93.6459 21.5866L67.3457 1.82214" stroke="#F9F9F9" stroke-width="7" stroke-miterlimit="10"/>
<path d="M74.2784 142.407C73.7871 143.42 70.8418 150.078 70.8418 150.078L88.1751 158.27L89.4935 155.386L79.432 144.554L74.2784 142.407Z" fill="black"/>
<path d="M36.4207 147.866C39.0273 147.866 41.1403 145.752 41.1403 143.145C41.1403 140.537 39.0273 138.423 36.4207 138.423C33.8142 138.423 31.7012 140.537 31.7012 143.145C31.7012 145.752 33.8142 147.866 36.4207 147.866Z" fill="#FD8369"/>
<path d="M159.212 147.866C161.818 147.866 163.931 145.752 163.931 143.145C163.931 140.537 161.818 138.423 159.212 138.423C156.605 138.423 154.492 140.537 154.492 143.145C154.492 145.752 156.605 147.866 159.212 147.866Z" fill="#FD8369"/>
<path d="M70.6048 34.6719C73.3108 34.6719 75.5045 32.4775 75.5045 29.7704C75.5045 27.0634 73.3108 24.8689 70.6048 24.8689C67.8988 24.8689 65.7051 27.0634 65.7051 29.7704C65.7051 32.4775 67.8988 34.6719 70.6048 34.6719Z" fill="#F9F9F9"/>
</g>
<defs>
<clipPath id="clip0_291_895">
<rect width="196" height="193" fill="white"/>
</clipPath>
</defs>
</svg>
