<svg width="262" height="193" viewBox="0 0 262 193" fill="none" xmlns="http://www.w3.org/2000/svg">
<g clip-path="url(#clip0_332_704)">
<path d="M161.607 6.24075C188.374 10.045 221.956 24.4962 228.054 45.7833C234.155 67.1258 212.785 95.2521 192.441 117.755C172.104 140.31 152.813 157.246 129.178 168.655C105.546 180.016 77.6232 185.933 58.8291 175.217C40.0869 164.577 30.5388 137.334 19.4183 113.341C8.26199 89.2963 -4.48943 68.4493 1.55003 53.8352C7.60249 39.2765 32.4458 30.9475 51.1327 25.7088C69.8197 20.4702 82.2949 18.2632 98.5648 13.7972C114.779 9.27245 134.785 2.43645 161.607 6.24075Z" fill="#CACEE2"/>
<path d="M260.549 11.443H1.45129C1.06651 11.4426 0.697615 11.2895 0.425537 11.0174C0.153458 10.7452 0.000420563 10.3762 0 9.99129V1.45174C0.000420563 1.06684 0.153458 0.697829 0.425537 0.425666C0.697615 0.153502 1.06651 0.00041983 1.45129 0H260.549C260.933 0.000420695 261.302 0.153507 261.574 0.425671C261.847 0.697834 262 1.06684 262 1.45174V9.9913C262 10.3762 261.847 10.7452 261.574 11.0174C261.302 11.2895 260.933 11.4426 260.549 11.443Z" fill="#B36C4A"/>
<path d="M8.42277 7.36612C9.56073 7.36612 10.4832 6.44333 10.4832 5.30501C10.4832 4.16669 9.56073 3.2439 8.42277 3.2439C7.28481 3.2439 6.3623 4.16669 6.3623 5.30501C6.3623 6.44333 7.28481 7.36612 8.42277 7.36612Z" fill="white"/>
<path d="M16.2431 7.36612C17.381 7.36612 18.3035 6.44333 18.3035 5.30501C18.3035 4.16669 17.381 3.2439 16.2431 3.2439C15.1051 3.2439 14.1826 4.16669 14.1826 5.30501C14.1826 6.44333 15.1051 7.36612 16.2431 7.36612Z" fill="white"/>
<path d="M24.0644 7.36612C25.2023 7.36612 26.1248 6.44333 26.1248 5.30501C26.1248 4.16669 25.2023 3.2439 24.0644 3.2439C22.9264 3.2439 22.0039 4.16669 22.0039 5.30501C22.0039 6.44333 22.9264 7.36612 24.0644 7.36612Z" fill="white"/>
<path d="M252.885 3.88634H243.88C243.703 3.88594 243.534 3.81546 243.409 3.69036C243.284 3.56526 243.214 3.39574 243.214 3.21901C243.214 3.04229 243.284 2.87278 243.409 2.74767C243.534 2.62257 243.703 2.55209 243.88 2.5517H252.885C253.062 2.55157 253.232 2.62165 253.357 2.74654C253.482 2.87143 253.553 3.04091 253.553 3.21776C253.553 3.39461 253.484 3.56436 253.359 3.68972C253.234 3.81508 253.065 3.8858 252.888 3.88634H252.885Z" fill="white"/>
<path d="M252.885 6.38878H243.88C243.703 6.38839 243.534 6.31791 243.409 6.1928C243.284 6.0677 243.214 5.89819 243.214 5.72146C243.214 5.54473 243.284 5.37522 243.409 5.25011C243.534 5.12501 243.703 5.05453 243.88 5.05414H252.885C253.062 5.05401 253.232 5.12409 253.357 5.24898C253.482 5.37387 253.553 5.54336 253.553 5.72021C253.553 5.89705 253.484 6.0668 253.359 6.19216C253.234 6.31752 253.065 6.38824 252.888 6.38878H252.885Z" fill="white"/>
<path d="M252.886 8.89128H243.88C243.703 8.89128 243.533 8.82097 243.408 8.69583C243.283 8.57068 243.213 8.40095 243.213 8.22396C243.213 8.04698 243.283 7.87724 243.408 7.7521C243.533 7.62695 243.703 7.55664 243.88 7.55664H252.886C253.063 7.55631 253.233 7.6263 253.358 7.75121C253.483 7.87612 253.554 8.04572 253.554 8.22271C253.555 8.39969 253.485 8.56956 253.36 8.69494C253.235 8.82032 253.065 8.89095 252.888 8.89128H252.886Z" fill="white"/>
<path d="M73.8778 169.694C74.8312 162.026 79.5824 154.47 86.8938 151.974C84.0103 159.867 84.011 168.527 86.8956 176.419C88.019 179.459 89.585 182.724 88.5283 185.787C87.8707 187.694 86.2622 189.152 84.4642 190.064C82.6661 190.976 80.6705 191.411 78.7 191.837L78.3121 192.158C75.1839 185.092 72.9244 177.363 73.8778 169.694Z" fill="#56CAD8"/>
<path d="M86.9671 152.119C82.7093 156.891 80.063 162.884 79.4039 169.247C79.2378 170.614 79.2881 171.999 79.553 173.35C79.8536 174.658 80.4989 175.862 81.4219 176.837C82.2642 177.762 83.233 178.612 83.8357 179.726C84.1357 180.301 84.3109 180.933 84.3496 181.581C84.3884 182.228 84.2898 182.877 84.0605 183.483C83.5284 185.01 82.4796 186.255 81.4117 187.436C80.226 188.747 78.9736 190.091 78.4696 191.83C78.4085 192.04 78.0853 191.933 78.1463 191.723C79.0232 188.698 81.9589 186.979 83.359 184.255C84.0123 182.983 84.2865 181.507 83.674 180.165C83.1385 178.991 82.1402 178.115 81.2792 177.185C80.3649 176.247 79.6939 175.1 79.3249 173.844C78.992 172.51 78.8885 171.13 79.0187 169.761C79.2627 166.676 79.9901 163.648 81.1744 160.789C82.5078 157.518 84.3908 154.499 86.7419 151.864C86.8875 151.701 87.1118 151.957 86.9672 152.119L86.9671 152.119Z" fill="white"/>
<path d="M79.4954 167.185C78.4433 166.93 77.5162 166.309 76.8797 165.433C76.2433 164.556 75.9389 163.482 76.0209 162.403C76.0247 162.359 76.0454 162.318 76.0786 162.289C76.1119 162.26 76.1551 162.245 76.1992 162.247C76.2433 162.249 76.2848 162.268 76.315 162.3C76.3452 162.333 76.3617 162.375 76.3611 162.42C76.2829 163.425 76.5665 164.425 77.1608 165.24C77.7552 166.055 78.621 166.63 79.6022 166.862C79.8153 166.913 79.7073 167.236 79.4954 167.185Z" fill="white"/>
<path d="M80.9325 176.423C82.8327 175.288 84.2355 173.479 84.8612 171.355C84.923 171.145 85.2462 171.252 85.1845 171.462C84.5293 173.67 83.0657 175.551 81.0856 176.728C80.8968 176.84 80.7447 176.535 80.9325 176.423Z" fill="white"/>
<path d="M82.8238 157.84C83.2103 158.024 83.6364 158.109 84.0637 158.087C84.4911 158.066 84.9064 157.938 85.2723 157.716C85.4596 157.602 85.6115 157.907 85.4254 158.02C85.02 158.264 84.5612 158.404 84.0891 158.429C83.617 158.454 83.1459 158.363 82.717 158.164C82.675 158.148 82.6405 158.118 82.6204 158.078C82.6003 158.038 82.5961 157.992 82.6088 157.949C82.6231 157.906 82.6537 157.871 82.694 157.85C82.7343 157.83 82.7809 157.826 82.8238 157.84Z" fill="white"/>
<path d="M109.18 165.671C109.065 165.746 108.95 165.821 108.835 165.898C107.295 166.911 105.84 168.048 104.485 169.296C104.378 169.391 104.272 169.489 104.168 169.587C100.934 172.629 98.2924 176.247 96.378 180.254C95.6176 181.849 94.9797 183.5 94.4698 185.193C93.7657 187.53 93.1882 190.12 91.7944 192.031C91.6512 192.232 91.4958 192.424 91.3289 192.606H78.7336C78.705 192.592 78.6762 192.58 78.6474 192.566L78.1445 192.589C78.1647 192.5 78.1876 192.408 78.2078 192.319C78.2193 192.267 78.2336 192.215 78.2452 192.163C78.2537 192.129 78.2624 192.094 78.2682 192.063C78.271 192.051 78.2739 192.04 78.2767 192.031C78.2825 192 78.2912 191.971 78.2969 191.942C78.4233 191.427 78.5536 190.913 78.6877 190.398C78.6877 190.395 78.6877 190.395 78.6905 190.393C79.6748 186.462 81.1217 182.662 83.001 179.073C83.0585 178.966 83.1159 178.857 83.1792 178.751C84.0494 177.162 85.048 175.646 86.165 174.22C86.7791 173.441 87.4323 172.694 88.122 171.981C89.9075 170.142 91.9711 168.596 94.2371 167.399C98.7545 165.013 103.984 164.099 108.812 165.556C108.936 165.594 109.057 165.631 109.18 165.671Z" fill="#56CAD8"/>
<path d="M109.152 165.831C102.88 167.077 97.1598 170.269 92.8042 174.952C91.8487 175.943 91.0554 177.079 90.4534 178.318C89.9061 179.543 89.6967 180.893 89.8473 182.227C89.9626 183.474 90.2249 184.735 90.0354 185.988C89.9288 186.628 89.6883 187.238 89.3295 187.778C88.9707 188.319 88.5017 188.777 87.9534 189.123C86.6097 190.022 85.0233 190.384 83.4596 190.684C81.7235 191.017 79.915 191.336 78.466 192.42C78.2904 192.552 78.0968 192.272 78.2721 192.14C80.7931 190.253 84.1713 190.649 86.9292 189.317C88.216 188.695 89.3234 187.682 89.6422 186.241C89.9209 184.981 89.6516 183.68 89.5239 182.419C89.358 181.12 89.5126 179.8 89.9742 178.575C90.5111 177.309 91.2594 176.145 92.1869 175.131C94.2388 172.814 96.642 170.835 99.3085 169.265C102.342 167.456 105.662 166.18 109.126 165.492C109.34 165.449 109.365 165.789 109.152 165.831H109.152Z" fill="white"/>
<path d="M94.1181 173.361C93.4318 172.524 93.0655 171.469 93.0847 170.386C93.1039 169.303 93.5072 168.263 94.2227 167.45C94.368 167.286 94.6296 167.504 94.484 167.668C93.8164 168.424 93.4408 169.393 93.425 170.402C93.4092 171.41 93.7543 172.391 94.398 173.167C94.5377 173.336 94.257 173.529 94.1181 173.361Z" fill="white"/>
<path d="M89.7056 181.603C91.906 181.841 94.1153 181.241 95.893 179.922C96.069 179.791 96.2627 180.071 96.0869 180.202C94.2344 181.571 91.934 182.191 89.6448 181.938C89.4266 181.914 89.4886 181.579 89.7056 181.603Z" fill="white"/>
<path d="M102.4 167.904C102.598 168.284 102.887 168.608 103.241 168.848C103.596 169.088 104.004 169.236 104.43 169.279C104.648 169.301 104.586 169.636 104.369 169.615C103.899 169.565 103.448 169.4 103.056 169.136C102.664 168.872 102.343 168.515 102.12 168.098C102.096 168.06 102.087 168.015 102.095 167.971C102.103 167.927 102.127 167.888 102.163 167.861C102.2 167.836 102.246 167.826 102.29 167.834C102.335 167.842 102.374 167.867 102.4 167.904L102.4 167.904Z" fill="white"/>
<path d="M84.9217 59.5422H43.2506C41.9628 59.5407 40.7283 59.0283 39.8177 58.1175C38.9072 57.2066 38.395 55.9716 38.3936 54.6835V31.9802C38.395 30.6921 38.9072 29.4572 39.8178 28.5464C40.7283 27.6355 41.9629 27.1232 43.2506 27.1218H84.9217C86.2094 27.1232 87.444 27.6355 88.3545 28.5464C89.2651 29.4572 89.7773 30.6921 89.7787 31.9802V54.6835C89.7773 55.9716 89.2651 57.2066 88.3546 58.1175C87.444 59.0283 86.2095 59.5407 84.9217 59.5422Z" fill="#E0CFFF"/>
<path d="M148.542 59.5422H106.871C105.583 59.5407 104.348 59.0283 103.438 58.1175C102.527 57.2066 102.015 55.9716 102.014 54.6835V31.9802C102.015 30.6921 102.527 29.4572 103.438 28.5464C104.348 27.6355 105.583 27.1232 106.871 27.1218H148.542C149.83 27.1232 151.064 27.6355 151.975 28.5464C152.885 29.4572 153.397 30.6921 153.399 31.9802V54.6835C153.397 55.9716 152.885 57.2066 151.975 58.1175C151.064 59.0283 149.83 59.5407 148.542 59.5422Z" fill="#6C63FF"/>
<path d="M212.162 59.5422H170.491C169.203 59.5407 167.969 59.0283 167.058 58.1175C166.147 57.2066 165.635 55.9716 165.634 54.6835V31.9802C165.635 30.6921 166.147 29.4572 167.058 28.5464C167.969 27.6355 169.203 27.1232 170.491 27.1218H212.162C213.45 27.1232 214.684 27.6355 215.595 28.5464C216.505 29.4572 217.018 30.6921 217.019 31.9802V54.6835C217.018 55.9716 216.505 57.2066 215.595 58.1175C214.684 59.0283 213.45 59.5407 212.162 59.5422Z" fill="#E0CFFF"/>
<path d="M84.9217 110.128H43.2506C41.9628 110.126 40.7283 109.614 39.8177 108.703C38.9072 107.792 38.395 106.557 38.3936 105.269V82.5658C38.395 81.2776 38.9072 80.0427 39.8178 79.1319C40.7283 78.2211 41.9629 77.7087 43.2506 77.7073H84.9217C86.2094 77.7087 87.444 78.2211 88.3545 79.1319C89.2651 80.0427 89.7773 81.2776 89.7787 82.5657V105.269C89.7773 106.557 89.2651 107.792 88.3546 108.703C87.444 109.614 86.2095 110.126 84.9217 110.128Z" fill="white"/>
<path d="M148.542 110.128H106.871C105.583 110.126 104.348 109.614 103.438 108.703C102.527 107.792 102.015 106.557 102.014 105.269V82.5658C102.015 81.2776 102.527 80.0427 103.438 79.1319C104.348 78.2211 105.583 77.7087 106.871 77.7073H148.542C149.83 77.7087 151.064 78.2211 151.975 79.1319C152.885 80.0427 153.397 81.2776 153.399 82.5657V105.269C153.397 106.557 152.885 107.792 151.975 108.703C151.064 109.614 149.83 110.126 148.542 110.128Z" fill="#E0CFFF"/>
<path d="M151.484 114.305C155.594 114.305 158.926 110.972 158.926 106.86C158.926 102.749 155.594 99.4155 151.484 99.4155C147.373 99.4155 144.041 102.749 144.041 106.86C144.041 110.972 147.373 114.305 151.484 114.305Z" fill="#6C63FF"/>
<path d="M154.574 106.235H152.043V103.704C152.043 103.626 152.028 103.548 151.998 103.476C151.968 103.404 151.924 103.338 151.869 103.283C151.814 103.227 151.748 103.184 151.676 103.154C151.604 103.124 151.526 103.108 151.448 103.108C151.37 103.108 151.292 103.124 151.22 103.154C151.148 103.184 151.082 103.227 151.027 103.283C150.972 103.338 150.928 103.404 150.898 103.476C150.868 103.548 150.852 103.626 150.852 103.704V106.235H148.322C148.244 106.235 148.166 106.251 148.094 106.281C148.022 106.311 147.956 106.354 147.901 106.41C147.846 106.465 147.802 106.531 147.772 106.603C147.742 106.675 147.727 106.753 147.727 106.831C147.727 106.909 147.742 106.987 147.772 107.059C147.802 107.131 147.846 107.197 147.901 107.252C147.956 107.307 148.022 107.351 148.094 107.381C148.166 107.411 148.244 107.427 148.322 107.427H150.852V109.958C150.852 110.036 150.868 110.113 150.898 110.186C150.928 110.258 150.972 110.324 151.027 110.379C151.082 110.434 151.148 110.478 151.22 110.508C151.292 110.538 151.37 110.553 151.448 110.553C151.606 110.553 151.757 110.491 151.869 110.379C151.981 110.267 152.043 110.116 152.043 109.958V107.427H154.574C154.652 107.427 154.729 107.411 154.802 107.381C154.874 107.351 154.94 107.307 154.995 107.252C155.05 107.197 155.094 107.131 155.124 107.059C155.154 106.987 155.169 106.909 155.169 106.831C155.169 106.753 155.154 106.675 155.124 106.603C155.094 106.531 155.05 106.465 154.995 106.41C154.94 106.354 154.874 106.311 154.802 106.281C154.729 106.251 154.652 106.235 154.574 106.235L154.574 106.235Z" fill="white"/>
<path d="M216.082 65.0253C220.193 65.0253 223.525 61.6921 223.525 57.5803C223.525 53.4686 220.193 50.1354 216.082 50.1354C211.972 50.1354 208.64 53.4686 208.64 57.5803C208.64 61.6921 211.972 65.0253 216.082 65.0253Z" fill="#6C63FF"/>
<path d="M219.172 56.9552H216.642V54.4239C216.642 54.3457 216.627 54.2682 216.597 54.1959C216.567 54.1237 216.523 54.058 216.468 54.0027C216.412 53.9474 216.347 53.9035 216.274 53.8736C216.202 53.8437 216.125 53.8282 216.047 53.8282C215.968 53.8282 215.891 53.8437 215.819 53.8736C215.746 53.9035 215.681 53.9474 215.626 54.0027C215.57 54.058 215.526 54.1237 215.496 54.1959C215.467 54.2682 215.451 54.3457 215.451 54.4239V56.9552H212.921C212.842 56.9552 212.765 56.9706 212.693 57.0005C212.621 57.0304 212.555 57.0743 212.5 57.1296C212.444 57.1849 212.4 57.2506 212.371 57.3229C212.341 57.3951 212.325 57.4726 212.325 57.5508C212.325 57.629 212.341 57.7065 212.371 57.7787C212.4 57.851 212.444 57.9167 212.5 57.972C212.555 58.0273 212.621 58.0712 212.693 58.1011C212.765 58.131 212.842 58.1464 212.921 58.1464H215.451V60.6777C215.451 60.7559 215.467 60.8334 215.496 60.9057C215.526 60.9779 215.57 61.0436 215.626 61.0989C215.681 61.1542 215.746 61.1981 215.819 61.228C215.891 61.2579 215.968 61.2733 216.047 61.2733C216.204 61.2733 216.356 61.2106 216.468 61.0989C216.579 60.9872 216.642 60.8357 216.642 60.6777V58.1464H219.172C219.251 58.1464 219.328 58.131 219.4 58.1011C219.473 58.0711 219.538 58.0273 219.593 57.972C219.649 57.9167 219.693 57.851 219.723 57.7787C219.752 57.7065 219.768 57.629 219.768 57.5508C219.768 57.4726 219.752 57.3951 219.723 57.3228C219.693 57.2506 219.649 57.1849 219.593 57.1296C219.538 57.0743 219.473 57.0304 219.4 57.0005C219.328 56.9706 219.251 56.9552 219.172 56.9552L219.172 56.9552Z" fill="white"/>
<path d="M87.8645 64.3726C91.9749 64.3726 95.3071 61.0394 95.3071 56.9276C95.3071 52.8159 91.9749 49.4827 87.8645 49.4827C83.754 49.4827 80.4219 52.8159 80.4219 56.9276C80.4219 61.0394 83.754 64.3726 87.8645 64.3726Z" fill="#6C63FF"/>
<path d="M90.9547 56.3025H88.4242V53.7712C88.4242 53.693 88.4088 53.6155 88.3789 53.5432C88.349 53.471 88.3051 53.4053 88.2498 53.35C88.1945 53.2947 88.1289 53.2508 88.0567 53.2209C87.9844 53.1909 87.907 53.1755 87.8288 53.1755C87.7506 53.1755 87.6732 53.1909 87.6009 53.2209C87.5287 53.2508 87.4631 53.2947 87.4078 53.35C87.3525 53.4053 87.3086 53.471 87.2787 53.5432C87.2488 53.6155 87.2333 53.693 87.2334 53.7712V56.3025H84.7029C84.6247 56.3025 84.5472 56.3179 84.475 56.3478C84.4028 56.3777 84.3371 56.4216 84.2818 56.4769C84.2265 56.5322 84.1827 56.5979 84.1528 56.6702C84.1228 56.7424 84.1074 56.8199 84.1074 56.8981C84.1074 57.0561 84.1702 57.2076 84.2818 57.3193C84.3935 57.431 84.5449 57.4937 84.7029 57.4937H87.2333V60.025C87.2333 60.1032 87.2487 60.1807 87.2787 60.2529C87.3086 60.3252 87.3525 60.3909 87.4077 60.4462C87.463 60.5015 87.5287 60.5454 87.6009 60.5753C87.6732 60.6052 87.7506 60.6206 87.8288 60.6206C87.907 60.6206 87.9844 60.6052 88.0567 60.5753C88.1289 60.5454 88.1945 60.5015 88.2498 60.4462C88.3051 60.3909 88.349 60.3252 88.3789 60.253C88.4088 60.1807 88.4242 60.1032 88.4242 60.025V57.4937H90.9547C91.0329 57.4937 91.1103 57.4783 91.1826 57.4484C91.2548 57.4184 91.3205 57.3746 91.3758 57.3193C91.4311 57.2639 91.4749 57.1983 91.5048 57.126C91.5348 57.0537 91.5502 56.9763 91.5502 56.8981C91.5502 56.7401 91.4874 56.5886 91.3758 56.4769C91.2641 56.3652 91.1126 56.3024 90.9547 56.3024V56.3025Z" fill="white"/>
<path d="M143.585 46.643C143.721 47.0538 143.765 47.4895 143.715 47.9192C143.664 48.349 143.52 48.7624 143.292 49.1303C143.064 49.4982 142.759 49.8117 142.397 50.0487C142.035 50.2857 141.625 50.4404 141.197 50.502L137.756 74L132.11 71.242L137.788 47.7865C137.733 47.0601 137.945 46.3385 138.386 45.7584C138.827 45.1783 139.465 44.7801 140.179 44.6391C140.894 44.4982 141.635 44.6243 142.263 44.9936C142.891 45.363 143.361 45.9498 143.585 46.643L143.585 46.643Z" fill="#9E616A"/>
<path d="M102.482 121.901C102.733 121.549 102.904 121.146 102.983 120.72C103.062 120.295 103.046 119.857 102.938 119.438C102.829 119.02 102.63 118.63 102.354 118.296C102.079 117.962 101.734 117.693 101.343 117.508L103.664 92.5132L98.8017 95.0066L97.2833 119.092C97.0151 119.769 97.0046 120.522 97.2538 121.206C97.503 121.891 97.9945 122.46 98.6353 122.806C99.2761 123.153 100.022 123.252 100.731 123.085C101.44 122.918 102.063 122.497 102.482 121.901H102.482Z" fill="#9E616A"/>
<path d="M105.804 109.259L126.672 108.457L127.876 86.7796H103.798L105.804 109.259Z" fill="#9E616A"/>
<path d="M101.931 185.814L105.497 185.813L107.193 172.055H101.931L101.931 185.814Z" fill="#9E616A"/>
<path d="M101.047 184.054L106.684 183.717V186.133L112.043 189.836C112.308 190.018 112.507 190.281 112.612 190.585C112.717 190.89 112.722 191.219 112.626 191.527C112.53 191.834 112.339 192.102 112.08 192.293C111.821 192.484 111.507 192.587 111.186 192.587H104.475L103.318 190.197L102.866 192.587H100.336L101.047 184.054Z" fill="#2F2E41"/>
<path d="M117.792 185.814L121.358 185.813L123.054 172.055H117.791L117.792 185.814Z" fill="#9E616A"/>
<path d="M105.514 104.171C105.514 104.171 99.2703 109.213 102.655 127.221C102.14 127.282 102.723 128.299 102.723 128.299L103.212 142.972L103.589 144.653L102.334 147.367L102.852 150.315L101.257 177.074L107.148 177.836L112.786 150.049L113.86 146.924L114.936 144.186L114.356 141.266L114.832 136.734L118.082 121.45L118.878 147.957L117.767 150.487L118.385 153.265L117.009 154.74L116.465 179.539L122.747 179.833L127.944 154.833L127.541 151.643L128.233 149.284V143.774L129.417 141.174L131.999 126.994C131.999 126.994 132.778 115.912 127.095 102.87L105.514 104.171Z" fill="#2F2E41"/>
<path d="M108.059 68.7639C108.059 68.7639 100.173 70.324 98.8141 77.0517C97.4553 83.7793 96.5811 99.0034 96.5811 99.0034L96.8786 101.124L104.507 102.893L109.376 81.5613L108.059 68.7639Z" fill="#3F3D56"/>
<path d="M126.057 71.0347C126.057 71.0347 126.856 69.9142 131.333 69.7414C131.517 69.7343 131.289 69.3685 131.289 69.3685L133.442 58.8426L140.616 62.8161L139.405 73.8512L127.616 87.2648L126.057 71.0347Z" fill="#3F3D56"/>
<path d="M121.584 102.414C118.207 102.415 113.122 102.042 105.469 100.905C104.976 100.831 104.519 100.601 104.166 100.248C103.813 99.8962 103.582 99.4403 103.507 98.9473C103.257 98.6833 103.094 98.3487 103.041 97.9891C102.988 97.6294 103.046 97.262 103.209 96.9369L103.216 96.923L103.043 96.7185C102.775 96.4033 102.617 96.0089 102.594 95.5956C102.572 95.1824 102.685 94.773 102.917 94.4303L100.546 77.4679C100.306 75.7834 100.674 74.0684 101.585 72.6313C102.496 71.1942 103.889 70.1294 105.515 69.6283L106.39 69.3557L109.699 65.0261L109.764 65.0269L120.387 65.1684L123.834 69.5475L129.407 70.8619L129.422 70.9468L130.716 78.4249C131.388 82.3144 129.845 83.8445 127.875 87.2648L128.453 96.8709L128.716 97.3477C128.861 97.6116 128.91 97.9181 128.854 98.2141C128.797 98.5102 128.639 98.7772 128.406 98.9689C128.582 99.4714 128.594 100.017 128.441 100.526L128.304 100.977C128.305 100.99 128.268 101.173 127.974 101.397C127.444 101.8 125.92 102.414 121.584 102.414Z" fill="#3F3D56"/>
<path d="M116.907 184.054L122.544 183.717V186.133L127.903 189.836C128.168 190.018 128.367 190.281 128.472 190.585C128.577 190.89 128.582 191.219 128.486 191.527C128.391 191.834 128.199 192.102 127.94 192.293C127.681 192.484 127.368 192.587 127.046 192.587H120.335L119.178 190.197L118.727 192.587H116.196L116.907 184.054Z" fill="#2F2E41"/>
<path d="M122.827 55.591C123.564 51.0494 120.481 46.7703 115.94 46.0333C111.4 45.2963 107.123 48.3806 106.386 52.9221C105.649 57.4637 108.732 61.7428 113.272 62.4798C117.813 63.2168 122.09 60.1326 122.827 55.591Z" fill="#9E616A"/>
<path d="M119.476 46.1163C116.424 44.0163 113.736 43.6965 111.528 44.2921C111.242 43.8492 110.84 43.4927 110.367 43.2607C108.645 38.9202 103.404 36.3134 98.9065 37.5806C94.3799 38.856 91.2566 43.8717 92.1084 48.4981C92.6362 51.3659 94.4404 53.8491 95.1661 56.6732C96.5709 62.1402 93.1441 68.4026 87.7832 70.1648C92.8589 71.1843 98.4461 68.083 100.267 63.2351C101.151 60.8805 101.205 58.3096 101.317 55.7967C101.347 54.0623 101.559 52.3357 101.951 50.6458C102.145 49.8877 102.42 49.1524 102.77 48.4526C103.534 46.9143 104.801 45.6842 106.361 44.9678C106.222 45.4001 106.187 45.8594 106.259 46.3078C106.332 46.7562 106.51 47.1809 106.779 47.5468C105.589 49.0385 104.941 50.6516 104.941 51.6176C102.468 56.1385 106.004 60.0218 110.524 62.4953C112.327 63.4871 114.408 63.8501 116.44 63.527L116.629 62.7196L116.885 63.4469L117.74 65.8852C118.727 66.3626 119.705 66.8859 120.674 67.4552C120.306 65.725 120.008 63.998 119.803 62.3095C119.519 60.0113 120.509 56.5899 121.223 54.5092C121.665 53.2269 121.892 51.8801 121.895 50.5235V50.4642L122.59 52.6974L125.12 51.6176C124.649 48.9166 125.12 45.8504 119.476 46.1163Z" fill="#2F2E41"/>
<path d="M223.541 193H38.4588C38.3561 192.999 38.2578 192.958 38.1854 192.886C38.1129 192.813 38.0723 192.714 38.0723 192.611C38.0723 192.509 38.1129 192.41 38.1854 192.337C38.2578 192.265 38.3561 192.223 38.4588 192.223H223.541C223.644 192.223 223.742 192.265 223.815 192.337C223.887 192.41 223.928 192.509 223.928 192.611C223.928 192.714 223.887 192.813 223.815 192.886C223.742 192.958 223.644 192.999 223.541 193Z" fill="#CCCCCC"/>
<path d="M87.0139 115.284C91.1243 115.284 94.4565 111.95 94.4565 107.839C94.4565 103.727 91.1243 100.394 87.0139 100.394C82.9035 100.394 79.5713 103.727 79.5713 107.839C79.5713 111.95 82.9035 115.284 87.0139 115.284Z" fill="#E0CFFF"/>
<path d="M198.996 103.56H172.891C172.085 103.559 171.311 103.238 170.741 102.667C170.17 102.097 169.85 101.323 169.849 100.516V86.294C169.85 85.4871 170.17 84.7135 170.741 84.1429C171.311 83.5723 172.085 83.2514 172.891 83.2505H198.996C199.803 83.2514 200.576 83.5723 201.146 84.1429C201.717 84.7134 202.038 85.4871 202.039 86.294V100.516C202.038 101.323 201.717 102.097 201.146 102.667C200.576 103.238 199.803 103.559 198.996 103.56Z" fill="white"/>
<path d="M199.38 97.783C201.563 97.783 203.333 96.0128 203.333 93.8293C203.333 91.6457 201.563 89.8756 199.38 89.8756C197.197 89.8756 195.428 91.6457 195.428 93.8293C195.428 96.0128 197.197 97.783 199.38 97.783Z" fill="#6C63FF"/>
<path d="M201.021 93.4973H199.677V92.153C199.677 92.1115 199.669 92.0704 199.653 92.032C199.637 91.9936 199.614 91.9587 199.585 91.9294C199.555 91.9 199.52 91.8767 199.482 91.8608C199.444 91.8449 199.403 91.8367 199.361 91.8367C199.277 91.8367 199.197 91.8701 199.137 91.9294C199.078 91.9887 199.045 92.0691 199.045 92.153V93.4973H197.701C197.617 93.4973 197.537 93.5306 197.477 93.5899C197.418 93.6493 197.385 93.7297 197.385 93.8136C197.385 93.8552 197.393 93.8963 197.409 93.9347C197.425 93.973 197.448 94.0079 197.477 94.0373C197.507 94.0667 197.542 94.09 197.58 94.1059C197.618 94.1218 197.659 94.1299 197.701 94.1299H199.045V95.4742C199.045 95.5157 199.053 95.5568 199.069 95.5952C199.085 95.6336 199.108 95.6685 199.137 95.6978C199.167 95.7272 199.202 95.7505 199.24 95.7664C199.278 95.7823 199.32 95.7905 199.361 95.7905C199.445 95.7905 199.525 95.7572 199.585 95.6978C199.644 95.6385 199.677 95.5581 199.677 95.4742V94.1299H201.021C201.105 94.1299 201.185 94.0966 201.245 94.0373C201.304 93.978 201.337 93.8975 201.337 93.8136C201.337 93.7721 201.329 93.731 201.313 93.6926C201.297 93.6542 201.274 93.6193 201.245 93.5899C201.215 93.5606 201.18 93.5373 201.142 93.5214C201.104 93.5055 201.063 93.4973 201.021 93.4973L201.021 93.4973Z" fill="white"/>
<path d="M209.631 99.5239H188.119C187.206 99.5229 186.33 99.1596 185.685 98.5138C185.039 97.868 184.676 96.9924 184.675 96.079V83.2336C184.675 83.0655 184.742 82.9044 184.861 82.7857C184.98 82.667 185.141 82.6003 185.309 82.6003C185.477 82.6003 185.638 82.667 185.757 82.7857C185.876 82.9044 185.943 83.0655 185.944 83.2336V86.6738L210.932 88.946C211.431 88.9548 211.907 89.1593 212.257 89.5153C212.607 89.8713 212.803 90.3505 212.804 90.8498C212.804 90.8891 212.8 90.9282 212.793 90.9668L211.534 97.6847C211.516 98.178 211.308 98.6453 210.954 98.9884C210.599 99.3314 210.125 99.5234 209.631 99.5239ZM185.944 87.9483V96.079C185.945 96.6558 186.174 97.2088 186.582 97.6166C186.989 98.0245 187.542 98.2539 188.119 98.2545H209.631C209.8 98.2544 209.961 98.1874 210.08 98.0684C210.199 97.9495 210.266 97.7881 210.266 97.6199C210.266 97.5806 210.27 97.5415 210.277 97.5029L211.533 90.8009C211.52 90.6416 211.448 90.4928 211.331 90.3843C211.214 90.2757 211.06 90.2153 210.9 90.2151C210.881 90.2151 210.862 90.2143 210.843 90.2125L185.944 87.9483Z" fill="#6C63FF"/>
<path d="M182.402 105.448C182.986 105.448 183.46 104.974 183.46 104.39C183.46 103.806 182.986 103.332 182.402 103.332C181.818 103.332 181.345 103.806 181.345 104.39C181.345 104.974 181.818 105.448 182.402 105.448Z" fill="#6C63FF"/>
<path d="M208.785 105.448C209.369 105.448 209.843 104.974 209.843 104.39C209.843 103.806 209.369 103.332 208.785 103.332C208.201 103.332 207.728 103.806 207.728 104.39C207.728 104.974 208.201 105.448 208.785 105.448Z" fill="#6C63FF"/>
<path d="M209.843 103.332H181.556C181.388 103.332 181.227 103.265 181.108 103.146C180.989 103.027 180.922 102.866 180.922 102.697C180.922 102.529 180.989 102.368 181.108 102.249C181.227 102.13 181.388 102.063 181.556 102.063H209.843C210.011 102.063 210.173 102.13 210.292 102.249C210.411 102.368 210.477 102.529 210.477 102.697C210.477 102.866 210.411 103.027 210.292 103.146C210.173 103.265 210.011 103.332 209.843 103.332Z" fill="#6C63FF"/>
<path d="M187.001 83.6567H181.502C181.334 83.6563 181.173 83.5893 181.054 83.4703C180.936 83.3513 180.869 83.1901 180.869 83.022C180.869 82.8539 180.936 82.6927 181.054 82.5737C181.173 82.4547 181.334 82.3877 181.502 82.3873H187.001C187.169 82.3877 187.33 82.4547 187.449 82.5737C187.568 82.6927 187.634 82.8539 187.634 83.022C187.634 83.1901 187.568 83.3513 187.449 83.4703C187.33 83.5893 187.169 83.6563 187.001 83.6567Z" fill="#6C63FF"/>
<path d="M191.412 103.009C191.26 103.009 191.114 102.955 190.999 102.856L186.828 99.2706C186.765 99.2164 186.713 99.1501 186.675 99.0757C186.637 99.0013 186.615 98.9202 186.608 98.8369C186.602 98.7537 186.612 98.6701 186.638 98.5908C186.664 98.5115 186.705 98.438 186.76 98.3747C186.814 98.3114 186.88 98.2595 186.955 98.2219C187.029 98.1842 187.11 98.1617 187.194 98.1554C187.277 98.1492 187.361 98.1595 187.44 98.1856C187.519 98.2118 187.592 98.2533 187.655 98.3078L191.826 101.893C191.924 101.977 191.994 102.09 192.027 102.215C192.059 102.341 192.052 102.473 192.007 102.595C191.962 102.716 191.881 102.821 191.775 102.895C191.668 102.969 191.542 103.009 191.412 103.009V103.009Z" fill="#6C63FF"/>
<path d="M192.291 99.134C192.207 99.134 192.125 99.1176 192.048 99.0857C191.971 99.0539 191.901 99.0071 191.842 98.9482C191.783 98.8893 191.736 98.8193 191.705 98.7423C191.673 98.6653 191.656 98.5828 191.656 98.4994V88.3111C191.656 88.1428 191.723 87.9813 191.842 87.8623C191.961 87.7433 192.122 87.6764 192.291 87.6764C192.459 87.6764 192.62 87.7433 192.739 87.8623C192.858 87.9813 192.925 88.1428 192.925 88.3111V98.4994C192.925 98.5827 192.909 98.6652 192.877 98.7422C192.845 98.8192 192.798 98.8892 192.739 98.9481C192.681 99.0071 192.611 99.0538 192.534 99.0857C192.457 99.1176 192.374 99.134 192.291 99.134H192.291Z" fill="#6C63FF"/>
<path d="M205.694 99.1341C205.611 99.1341 205.528 99.1177 205.451 99.0858C205.374 99.0539 205.304 99.0071 205.245 98.9482C205.187 98.8893 205.14 98.8193 205.108 98.7423C205.076 98.6653 205.06 98.5828 205.06 98.4994V89.1574C205.06 88.9893 205.127 88.8282 205.246 88.7095C205.365 88.5908 205.526 88.5241 205.694 88.5241C205.862 88.5241 206.023 88.5908 206.142 88.7095C206.261 88.8282 206.328 88.9893 206.329 89.1574V98.4994C206.329 98.5827 206.312 98.6653 206.28 98.7423C206.248 98.8193 206.202 98.8892 206.143 98.9482C206.084 99.0071 206.014 99.0538 205.937 99.0857C205.86 99.1176 205.777 99.1341 205.694 99.1341H205.694Z" fill="#6C63FF"/>
</g>
<defs>
<clipPath id="clip0_332_704">
<rect width="262" height="193" fill="white"/>
</clipPath>
</defs>
</svg>
