<svg width="32" height="32" viewBox="0 0 32 32" fill="none" xmlns="http://www.w3.org/2000/svg">
<circle cx="16" cy="16" r="16" fill="#E0CFFF"/>
<path fill-rule="evenodd" clip-rule="evenodd" d="M15.9999 13.3333C15.2635 13.3333 14.6666 13.9303 14.6666 14.6667C14.6666 15.403 15.2635 16 15.9999 16C16.7363 16 17.3333 15.403 17.3333 14.6667C17.3333 13.9303 16.7363 13.3333 15.9999 13.3333ZM13.3333 14.6667C13.3333 13.1939 14.5272 12 15.9999 12C17.4727 12 18.6666 13.1939 18.6666 14.6667C18.6666 16.1394 17.4727 17.3333 15.9999 17.3333C14.5272 17.3333 13.3333 16.1394 13.3333 14.6667Z" fill="black"/>
<path fill-rule="evenodd" clip-rule="evenodd" d="M15.9999 9.33333C14.5854 9.33333 13.2289 9.89524 12.2287 10.8954C11.2285 11.8956 10.6666 13.2522 10.6666 14.6667C10.6666 16.732 12.0104 18.7362 13.4839 20.2915C14.207 21.0548 14.9324 21.6796 15.4777 22.1139C15.6807 22.2755 15.8579 22.4101 15.9999 22.5151C16.1419 22.4101 16.3192 22.2755 16.5221 22.1139C17.0675 21.6796 17.7928 21.0548 18.516 20.2915C19.9894 18.7362 21.3333 16.732 21.3333 14.6667C21.3333 13.2522 20.7713 11.8956 19.7712 10.8954C18.771 9.89524 17.4144 9.33333 15.9999 9.33333ZM15.9999 23.3333C15.6301 23.888 15.6299 23.8879 15.6298 23.8878L15.6279 23.8865L15.6234 23.8835L15.6081 23.8732C15.5951 23.8644 15.5766 23.8517 15.553 23.8353C15.5056 23.8025 15.4376 23.7547 15.3518 23.6928C15.1803 23.5689 14.9375 23.3881 14.6471 23.1569C14.0675 22.6954 13.2928 22.0286 12.516 21.2085C10.9894 19.5972 9.33325 17.268 9.33325 14.6667C9.33325 12.8986 10.0356 11.2029 11.2859 9.95262C12.5361 8.70238 14.2318 8 15.9999 8C17.768 8 19.4637 8.70238 20.714 9.95262C21.9642 11.2029 22.6666 12.8986 22.6666 14.6667C22.6666 17.268 21.0104 19.5972 19.4839 21.2085C18.707 22.0286 17.9324 22.6954 17.3527 23.1569C17.0623 23.3881 16.8196 23.5689 16.6481 23.6928C16.5623 23.7547 16.4942 23.8025 16.4469 23.8353C16.4232 23.8517 16.4047 23.8644 16.3917 23.8732L16.3764 23.8835L16.372 23.8865L16.3706 23.8875C16.3704 23.8876 16.3697 23.888 15.9999 23.3333ZM15.9999 23.3333L16.3697 23.888C16.1458 24.0373 15.8537 24.0371 15.6298 23.8878L15.9999 23.3333Z" fill="black"/>
</svg>
