<svg width="296" height="83" viewBox="0 0 296 83" fill="none" xmlns="http://www.w3.org/2000/svg">
<rect x="0.5" y="0.5" width="295" height="82" rx="3.5" fill="white" stroke="#577387"/>
<path d="M62.5 22.3863V60.6117C62.5002 60.6946 62.5241 60.7756 62.5685 60.8446C62.613 60.9135 62.6761 60.9673 62.7498 60.9992C62.8236 61.0311 62.9049 61.0396 62.9833 61.0238C63.0618 61.008 63.134 60.9685 63.1909 60.9103L82.375 41.5L63.1909 22.0877C63.134 22.0295 63.0618 21.99 62.9833 21.9742C62.9049 21.9584 62.8236 21.967 62.7498 21.9988C62.6761 22.0307 62.613 22.0845 62.5685 22.1534C62.5241 22.2224 62.5002 22.3034 62.5 22.3863V22.3863Z" fill="#567286"/>
<path d="M90.4187 33.5242L66.3643 19.7747L66.3493 19.766C65.9349 19.5326 65.5412 20.1142 65.8806 20.4527L84.7365 39.1588L90.4187 33.5242Z" fill="#567286"/>
<path d="M65.8826 62.5473C65.5414 62.8858 65.9351 63.4674 66.3514 63.234L66.3664 63.2252L90.4189 49.4758L84.7367 43.8392L65.8826 62.5473Z" fill="#567286"/>
<path d="M100.129 39.0683L93.4121 35.2302L87.0962 41.5L93.4121 47.7668L100.129 43.9316C101.957 42.8841 101.957 40.1159 100.129 39.0683Z" fill="#567286"/>
<path d="M123.77 49.9375V32.7227H129.488C130.84 32.7227 131.996 32.8984 132.957 33.25C133.918 33.5938 134.676 34.1562 135.23 34.9375C135.793 35.7188 136.074 36.6992 136.074 37.8789C136.074 38.6992 135.969 39.4297 135.758 40.0703C135.547 40.7031 135.199 41.2812 134.715 41.8047C134.23 42.3203 133.547 42.7188 132.664 43C131.789 43.2812 130.73 43.4219 129.488 43.4219C128.426 43.4219 127.562 43.3906 126.898 43.3281V49.9375H123.77ZM129.148 41.125C129.797 41.125 130.359 41.0625 130.836 40.9375C131.32 40.8125 131.695 40.6523 131.961 40.457C132.234 40.2617 132.449 40.0195 132.605 39.7305C132.77 39.4414 132.875 39.1641 132.922 38.8984C132.977 38.625 133.004 38.3203 133.004 37.9844C133.004 37.0391 132.699 36.3203 132.09 35.8281C131.48 35.3359 130.621 35.0898 129.512 35.0898H126.898V41.1016C126.992 41.1172 127.742 41.125 129.148 41.125ZM142.672 50.1133C141.789 50.1133 141.055 50.0117 140.469 49.8086C139.891 49.5977 139.434 49.2656 139.098 48.8125C138.762 48.3594 138.527 47.8203 138.395 47.1953C138.262 46.5703 138.195 45.793 138.195 44.8633V32.3125L141.266 32.1133V44.8047C141.266 45.9609 141.402 46.7461 141.676 47.1602C141.949 47.5664 142.48 47.7695 143.27 47.7695C143.66 47.7695 144.156 47.7266 144.758 47.6406L144.84 49.832C144.832 49.832 144.734 49.8516 144.547 49.8906C144.367 49.9297 144.191 49.9609 144.02 49.9844C143.855 50.0156 143.645 50.043 143.387 50.0664C143.129 50.0977 142.891 50.1133 142.672 50.1133ZM149.762 50.1836C148.566 50.1836 147.598 49.8555 146.855 49.1992C146.121 48.5352 145.754 47.582 145.754 46.3398C145.754 45.0039 146.191 44.0156 147.066 43.375C147.941 42.7266 149.262 42.3164 151.027 42.1445C151.27 42.1133 151.531 42.082 151.812 42.0508C152.094 42.0195 152.41 41.9883 152.762 41.957C153.113 41.9258 153.391 41.8984 153.594 41.875V41.1953C153.594 40.4141 153.414 39.8477 153.055 39.4961C152.695 39.1367 152.148 38.957 151.414 38.957C150.367 38.957 149.074 39.25 147.535 39.8359C147.527 39.8125 147.398 39.457 147.148 38.7695C146.898 38.082 146.77 37.7305 146.762 37.7148C148.277 37.0664 149.918 36.7422 151.684 36.7422C153.418 36.7422 154.68 37.1211 155.469 37.8789C156.258 38.6289 156.652 39.8477 156.652 41.5352V49.9375H154.379C154.371 49.9062 154.285 49.6445 154.121 49.1523C153.957 48.6602 153.875 48.3984 153.875 48.3672C153.234 48.9922 152.605 49.4531 151.988 49.75C151.379 50.0391 150.637 50.1836 149.762 50.1836ZM150.594 48.0039C151.305 48.0039 151.922 47.8359 152.445 47.5C152.977 47.1562 153.355 46.7422 153.582 46.2578V43.7734C153.559 43.7734 153.352 43.7891 152.961 43.8203C152.578 43.8516 152.371 43.8672 152.34 43.8672C151.098 43.9766 150.188 44.2109 149.609 44.5703C149.031 44.9297 148.742 45.5078 148.742 46.3047C148.742 46.8516 148.902 47.2734 149.223 47.5703C149.543 47.8594 150 48.0039 150.594 48.0039ZM160.426 55.3633C159.926 55.3633 159.395 55.332 158.832 55.2695L158.68 52.8906C159.039 52.9297 159.496 52.9492 160.051 52.9492C160.762 52.9492 161.332 52.8086 161.762 52.5273C162.191 52.2461 162.547 51.7461 162.828 51.0273C162.859 50.9492 163.016 50.5078 163.297 49.7031L158.117 37.0586H161.398L164.785 46.3984C165.035 45.4688 165.594 43.7422 166.461 41.2188C167.336 38.6953 167.816 37.3086 167.902 37.0586H171.184C167.613 46.4961 165.812 51.2539 165.781 51.332C165.227 52.7773 164.527 53.8086 163.684 54.4258C162.84 55.0508 161.754 55.3633 160.426 55.3633ZM184.285 50.1719C182.215 50.1719 180.359 49.6953 178.719 48.7422L179.492 46.2227C180.227 46.6289 181.023 46.957 181.883 47.207C182.75 47.457 183.594 47.582 184.414 47.582C185.422 47.582 186.184 47.3672 186.699 46.9375C187.215 46.5 187.473 45.875 187.473 45.0625C187.473 43.9844 186.754 43.2383 185.316 42.8242C185.215 42.793 184.93 42.7109 184.461 42.5781C183.992 42.4375 183.551 42.3047 183.137 42.1797C182.73 42.0469 182.438 41.9453 182.258 41.875C179.953 41.0625 178.801 39.5469 178.801 37.3281C178.801 35.7734 179.352 34.5742 180.453 33.7305C181.562 32.8867 183.031 32.4648 184.859 32.4648C186.93 32.4648 188.715 32.8906 190.215 33.7422L189.254 36.0625C187.723 35.375 186.301 35.0312 184.988 35.0312C184.043 35.0312 183.328 35.1992 182.844 35.5352C182.367 35.8633 182.113 36.4141 182.082 37.1875C182.082 38.1406 182.555 38.7617 183.5 39.0508C183.688 39.1211 184.148 39.2734 184.883 39.5078C185.617 39.7422 186.094 39.8945 186.312 39.9648C187.883 40.4805 189.004 41.1211 189.676 41.8867C190.355 42.6523 190.695 43.7188 190.695 45.0859C190.695 46.7188 190.117 47.9766 188.961 48.8594C187.805 49.7344 186.246 50.1719 184.285 50.1719ZM198.266 50.1133C197.391 50.1133 196.66 50.0117 196.074 49.8086C195.496 49.5977 195.043 49.2695 194.715 48.8242C194.387 48.3789 194.152 47.8555 194.012 47.2539C193.879 46.6445 193.812 45.8945 193.812 45.0039V38.9219H191.703L191.82 37.2578L194.023 37.0586L195.008 33.5664L196.883 33.5547V37.0586H200.082V38.9219H196.883V45.0625C196.883 46.0391 197.023 46.7344 197.305 47.1484C197.586 47.5625 198.105 47.7695 198.863 47.7695C199.309 47.7695 199.785 47.7305 200.293 47.6523L200.375 49.8555C200.359 49.8555 200.262 49.875 200.082 49.9141C199.91 49.9453 199.742 49.9727 199.578 49.9961C199.422 50.0273 199.219 50.0547 198.969 50.0781C198.719 50.1016 198.484 50.1133 198.266 50.1133ZM208.039 47.8516C209.078 47.8516 209.859 47.4727 210.383 46.7148C210.906 45.957 211.168 44.8711 211.168 43.457C211.168 42.0273 210.906 40.9375 210.383 40.1875C209.859 39.4375 209.07 39.0625 208.016 39.0625C206.977 39.0625 206.191 39.4414 205.66 40.1992C205.137 40.9492 204.875 42.0391 204.875 43.4688C204.875 44.875 205.141 45.957 205.672 46.7148C206.203 47.4727 206.992 47.8516 208.039 47.8516ZM207.957 50.1836C206.051 50.1836 204.551 49.5664 203.457 48.332C202.363 47.0977 201.816 45.4727 201.816 43.457C201.816 41.3789 202.363 39.7422 203.457 38.5469C204.551 37.3438 206.094 36.7422 208.086 36.7422C210.008 36.7422 211.512 37.3555 212.598 38.582C213.691 39.8008 214.238 41.4258 214.238 43.457C214.238 45.5117 213.688 47.1484 212.586 48.3672C211.484 49.5781 209.941 50.1836 207.957 50.1836ZM216.758 49.9375V37.0586H219.336L219.734 39.0273C220.578 37.6758 221.801 37 223.402 37C223.738 37 224.012 37.0156 224.223 37.0469L224.176 39.6133C223.863 39.5664 223.539 39.543 223.203 39.543C222.07 39.543 221.223 39.8438 220.66 40.4453C220.105 41.0469 219.828 41.8828 219.828 42.9531V49.9375H216.758ZM231.934 50.1836C229.863 50.1836 228.25 49.5898 227.094 48.4023C225.945 47.207 225.371 45.5586 225.371 43.457C225.371 41.4102 225.914 39.7812 227 38.5703C228.086 37.3594 229.566 36.75 231.441 36.7422C233.215 36.7422 234.59 37.2969 235.566 38.4062C236.551 39.5156 237.043 40.9883 237.043 42.8242C237.043 42.957 237.039 43.1719 237.031 43.4688C237.031 43.7656 237.031 43.9844 237.031 44.125H228.465C228.496 45.3281 228.824 46.2617 229.449 46.9258C230.082 47.582 230.949 47.9102 232.051 47.9102C233.457 47.9102 234.809 47.543 236.105 46.8086L236.539 48.9883C235.25 49.7852 233.715 50.1836 231.934 50.1836ZM228.523 42.1914H234.148C234.148 41.1445 233.91 40.3398 233.434 39.7773C232.957 39.2148 232.297 38.9336 231.453 38.9336C230.664 38.9336 229.996 39.207 229.449 39.7539C228.91 40.3008 228.602 41.1133 228.523 42.1914Z" fill="#567286"/>
</svg>
