<svg width="56" height="56" viewBox="0 0 56 56" fill="none" xmlns="http://www.w3.org/2000/svg">
<circle cx="28" cy="28" r="28" fill="#E0CFFF"/>
<path fill-rule="evenodd" clip-rule="evenodd" d="M6 28C6 15.8497 15.8497 6 28 6C40.1503 6 50 15.8497 50 28C50 40.1503 40.1503 50 28 50C15.8497 50 6 40.1503 6 28Z" fill="#6438B0"/>
<path fill-rule="evenodd" clip-rule="evenodd" d="M38.6214 20.0858C39.4024 20.8669 39.4024 22.1332 38.6214 22.9142L26.2072 35.9142C25.4261 36.6953 24.1598 36.6953 23.3788 35.9142L17.3788 29.9142C16.5977 29.1332 16.5977 27.8669 17.3788 27.0858C18.1598 26.3048 19.4261 26.3048 20.2072 27.0858L24.793 31.6716L35.793 20.0858C36.574 19.3048 37.8403 19.3048 38.6214 20.0858Z" fill="white"/>
</svg>
