<svg width="124" height="124" viewBox="0 0 124 124" fill="none" xmlns="http://www.w3.org/2000/svg">
<path d="M124 65.9128V72.3282C124 72.3282 121.953 75.9332 120.6 76.4953H96.063L94.2604 75.9332L93.4697 77.7357H32.2347L32.0718 77.6775L29.308 76.7201L8.48414 79.4219C8.48414 79.4219 7.82516 79.3909 6.87933 79.2669C4.22789 78.9219 -0.667967 77.8481 0.491068 74.6927C0.491068 74.6927 -0.613697 68.7115 0.491068 65.2383C0.491068 65.2383 0.828312 60.3967 4.99153 58.7066C9.15863 57.0204 21.4273 53.7526 28.18 52.7447C28.18 52.7447 34.1457 50.9422 36.7351 48.5776C36.7351 48.5776 42.5768 44.2128 49.7907 41.0497C53.6787 39.348 57.8381 38.344 62.0633 37.9486C70.2386 37.1811 88.0079 35.9988 99.3191 38.782C108.929 41.1505 115.298 46.5774 118.651 50.2057C120.492 52.1982 121.496 54.7992 121.496 57.5127V59.947L122.283 62.7613C122.287 62.7613 124 63.9978 124 65.9128Z" fill="#3E236E"/>
<path d="M32.1223 76.534C32.1223 76.9178 32.1068 77.3015 32.0719 77.6776L29.3081 76.7201L8.4842 79.4219C8.4842 79.4219 7.82522 79.3909 6.87938 79.2669C6.68556 78.3869 6.58478 77.4721 6.58478 76.534C6.58478 69.4829 12.3024 63.7653 19.3535 63.7653C26.4047 63.7653 32.1223 69.4829 32.1223 76.534Z" fill="#2E3235"/>
<path d="M19.3535 86.9693C25.1167 86.9693 29.7887 82.2973 29.7887 76.5341C29.7887 70.7709 25.1167 66.0989 19.3535 66.0989C13.5903 66.0989 8.91827 70.7709 8.91827 76.5341C8.91827 82.2973 13.5903 86.9693 19.3535 86.9693Z" fill="#3E4347"/>
<path d="M94.0162 76.4875L94.2604 75.9293L96.063 76.4914H119.55C119.527 69.4596 113.821 63.7653 106.785 63.7653C99.7455 63.7653 94.0395 69.4596 94.0162 76.4875Z" fill="#2E3235"/>
<path d="M106.781 86.9691C112.544 86.9691 117.216 82.2971 117.216 76.5339C117.216 70.7707 112.544 66.0988 106.781 66.0988C101.018 66.0988 96.3459 70.7707 96.3459 76.5339C96.3459 82.2971 101.018 86.9691 106.781 86.9691Z" fill="#3E4347"/>
<path d="M69.6533 40.3752C67.4864 40.4489 66.1141 40.5225 66.087 40.5264L66.0095 40.5303H65.932C65.7149 40.5225 65.4978 40.5225 65.2807 40.5225C55.8185 40.5225 46.3912 46.1433 41.6116 49.4925C39.4525 51.0043 37.7546 53.1324 36.77 55.5357L66.9243 53.1285L69.6533 40.3752Z" fill="#3E4347"/>
<path d="M97.8229 42.263C94.8265 40.9528 87.6901 40.2318 77.6968 40.2318C76.5261 40.2318 75.3904 40.2434 74.3205 40.2589L73.2351 52.6207L103.118 50.2367C103.215 49.6785 103.296 49.1475 103.354 48.6629L103.358 48.6242L103.366 48.5854C103.68 46.7557 100.277 43.7593 97.8229 42.263Z" fill="#3E4347"/>
<path d="M2.66966 63.3467C2.66966 63.3467 6.82126 58.5129 11.4729 58.8773C12.6048 58.9664 15.9889 60.4821 10.6976 63.3467C9.04242 64.2422 5.78626 64.7694 3.30926 64.8081C1.3013 64.8353 2.66966 63.3467 2.66966 63.3467Z" fill="#FFD83B"/>
<path d="M121.5 59.9471V57.5128C121.5 56.4623 121.306 55.4428 121.015 54.4543C119.341 54.245 117.244 54.1403 116.561 54.8226C115.654 55.7297 115.654 59.0478 116.561 59.9549C117.321 60.7147 119.856 60.5015 121.581 60.2495L121.5 59.9471Z" fill="#FFD83B"/>
<path d="M19.3535 83.5C23.2007 83.5 26.3194 80.3813 26.3194 76.5342C26.3194 72.6871 23.2007 69.5684 19.3535 69.5684C15.5064 69.5684 12.3877 72.6871 12.3877 76.5342C12.3877 80.3813 15.5064 83.5 19.3535 83.5Z" fill="#CBD6E0"/>
<path d="M19.3535 82.2168C22.492 82.2168 25.0362 79.6726 25.0362 76.5341C25.0362 73.3956 22.492 70.8513 19.3535 70.8513C16.215 70.8513 13.6707 73.3956 13.6707 76.5341C13.6707 79.6726 16.215 82.2168 19.3535 82.2168Z" fill="#939799"/>
<path d="M19.3535 80.6237C21.6121 80.6237 23.4431 78.7928 23.4431 76.5342C23.4431 74.2755 21.6121 72.4446 19.3535 72.4446C17.0949 72.4446 15.2639 74.2755 15.2639 76.5342C15.2639 78.7928 17.0949 80.6237 19.3535 80.6237Z" fill="#CBD6E0"/>
<path d="M106.781 83.5C110.628 83.5 113.747 80.3813 113.747 76.5342C113.747 72.6871 110.628 69.5684 106.781 69.5684C102.934 69.5684 99.8153 72.6871 99.8153 76.5342C99.8153 80.3813 102.934 83.5 106.781 83.5Z" fill="#CBD6E0"/>
<path d="M106.781 82.2168C109.92 82.2168 112.464 79.6726 112.464 76.5341C112.464 73.3956 109.92 70.8513 106.781 70.8513C103.643 70.8513 101.098 73.3956 101.098 76.5341C101.098 79.6726 103.643 82.2168 106.781 82.2168Z" fill="#939799"/>
<path d="M106.781 80.6236C109.04 80.6236 110.871 78.7926 110.871 76.534C110.871 74.2754 109.04 72.4445 106.781 72.4445C104.523 72.4445 102.692 74.2754 102.692 76.534C102.692 78.7926 104.523 80.6236 106.781 80.6236Z" fill="#CBD6E0"/>
<path d="M43.8212 54.9698L50.1668 54.462L58.1482 41.4839C55.3728 42.1971 52.7407 43.2476 50.318 44.4067L43.8212 54.9698Z" fill="#5A5F63"/>
<path d="M52.4034 54.2837L55.7139 54.0201L63.9589 40.6117C62.8231 40.6737 61.6951 40.7978 60.5748 40.9955L52.4034 54.2837Z" fill="#5A5F63"/>
<path d="M74.96 52.4851L81.3056 51.9773L88.3102 40.5846C86.5426 40.4528 84.5811 40.3559 82.4491 40.3016L74.96 52.4851Z" fill="#5A5F63"/>
<path d="M83.5385 51.799L86.8489 51.5354L93.2487 41.1274C92.3572 40.9878 91.3997 40.8599 90.3298 40.7552L83.5385 51.799Z" fill="#5A5F63"/>
</svg>
